<svg version="1.2" xmlns="http://www.w3.org/2000/svg" viewBox="0 0 110 110"><style>.a{fill:#8f8f8f}</style><path class="a" d="m12.7 88.9c-0.8 0-1.5-0.7-1.5-1.5 0-0.8 0.7-1.5 1.5-1.5h7.4v-43.1h-10.1q-0.7 0-1.2-0.6c-0.5-0.7-0.3-1.6 0.3-2.1l39.4-28c0.9-0.7 2-1 3.1-1 1.1 0 2.2 0.3 3.1 1l39.4 28c0.3 0.2 0.6 0.7 0.6 1.2 0 0.8-0.7 1.5-1.5 1.5h-10.1v19.1h15.3c0.8 0 1.6 0.3 2.2 0.9 0.5 0.5 0.9 1.3 0.9 2.2v4.4c0 0.8-0.4 1.6-0.9 2.2-0.6 0.5-1.4 0.9-2.2 0.9h-7.4v13.4h9c0.8 0 1.5 0.7 1.5 1.5 0 0.8-0.7 1.5-1.5 1.5h-10.4-0.1-0.1-43.4-0.1-24.3-0.1zm10.4-3h5.2v-15.9c0-2.6 1.1-5 2.8-6.8 1.8-1.7 4.2-2.8 6.8-2.8 2.6 0 5 1.1 6.7 2.8 1.8 1.8 2.8 4.1 2.8 6.8v15.9h32.7v-13.5c-0.7-0.1-1.3-0.4-1.7-0.8-0.6-0.6-0.9-1.4-0.9-2.2v-4.4c0-0.9 0.3-1.6 0.9-2.2 0.4-0.5 1-0.8 1.7-0.9v-19.6q0-0.1 0-0.2-0.2-0.2-0.4-0.3l-26.7-19q-0.7-0.5-1.4-0.5-0.8 0-1.4 0.5l-26.8 19q-0.2 0.1-0.4 0.3 0.1 0.1 0.1 0.2zm21.3 0v-15.9c0-1.8-0.7-3.5-1.9-4.6-1.2-1.2-2.8-2-4.6-2-1.8 0-3.5 0.8-4.6 2-1.2 1.1-2 2.8-2 4.6v15.9zm38.7 0h4.9v-13.4h-4.9zm15.3-21.1h-17.8l-0.1 0.1v4.4 0.1h0.1 17.8 0.1v-0.1-4.4zm-44-15.2h20.6c0.8 0 1.5 0.7 1.5 1.5v12.5c0 0.8-0.7 1.5-1.5 1.5h-20.6c-0.8 0-1.5-0.7-1.5-1.5v-12.5c0-0.8 0.7-1.5 1.5-1.5zm8.8 12.5v-9.5h-7.3v9.5zm3-9.5v9.5h7.3v-9.5zm-44.5-13.3l26.8-19c0.9-0.7 2-1 3.1-1 1.1 0 2.2 0.3 3.1 1l26.7 19q0.4 0.2 0.7 0.4 0.3 0.1 0.7 0.1h5.7l-35.5-25.3q-0.7-0.5-1.4-0.5c-0.5 0-1 0.2-1.4 0.5l-35.5 25.3h5.6q0.4 0 0.7-0.1 0.4-0.1 0.7-0.4z"/></svg>