<svg version="1.2" xmlns="http://www.w3.org/2000/svg" viewBox="0 0 110 110"><style>.a{fill:#8f8f8f}</style><path class="a" d="m26.5 64.1h4.2v2.8h-4.2z"/><path class="a" d="m26.5 58.2h4.2v2.8h-4.2z"/><path class="a" d="m18.9 58.2h4.2v2.8h-4.2z"/><path class="a" d="m71 63.2h2.8v5.5h-2.8z"/><path class="a" d="m18.9 69.9h4.2v2.9h-4.2z"/><path class="a" d="m18.9 64.1h4.2v2.8h-4.2z"/><path class="a" d="m89.4 47.9h2.8v17.1h-2.8z"/><path class="a" d="m98.6 45c0.8 0 1.4-0.6 1.4-1.4v-5.5c0-0.8-0.6-1.4-1.4-1.4h-3.1v-15.6c0-0.8-0.6-1.4-1.4-1.4h-3l-5.2-6c-0.3-0.3-0.7-0.5-1.1-0.5h-2.6v-1.8c0-0.8-0.6-1.4-1.4-1.4-0.8 0-1.4 0.6-1.4 1.4v1.8h-2.6c-0.4 0-0.8 0.2-1 0.5l-5.2 6h-3c-0.8 0-1.4 0.6-1.4 1.4v11.4h-10.5c-0.8 0-1.4 0.6-1.4 1.4 0 0.8 0.6 1.4 1.4 1.4h23.2v2.8h-5.4c-0.8 0-1.4 0.7-1.4 1.4 0 0.8 0.6 1.4 1.4 1.4h4.2v20.1c0 0.7 0.7 1.4 1.4 1.4 0.8 0 1.4-0.7 1.4-1.4v-16h14.9v23.9c-1.3-1.2-2.9-1.9-4.6-1.9-4.7 0-8.3 5.2-8.3 12 0 4.7 1.8 8.7 4.5 10.6q-0.9 0.2-1.6 0.7-0.6-1-1.5-1.7 0-0.4 0.1-0.9c0-2.3-1.5-4.4-3.5-5.3v-15.1c0-0.8-0.6-1.5-1.4-1.5-0.7 0-1.4 0.7-1.4 1.5v14.6c-2.8 0.2-5.2 2.4-5.4 5.3q-0.4-0.1-0.8-0.1c-3.6 0-6.4 2.9-6.4 6.5 0 1.3 0.4 2.5 1.1 3.6h-4.1v-6.4c4-0.9 7-5.8 7-11.8 0-4.5-1.6-8.3-4.1-10.3h1.9v-5.5h-2.8v4.7c-1.1-0.6-2.2-1-3.4-1q-0.4 0-0.8 0.1v-3.8h-2.8v4.9c-1.9 1.2-3.3 3.4-4.1 6.1v-2h-2.8v5.5h2.2q-0.1 0.6-0.1 1.3 0 1.6 0.3 3-0.6-0.1-1.3-0.1c-3.1 0-5.6 2.3-5.9 5.3q-0.4-0.1-0.8-0.1c-3 0-5.5 2.1-6.2 4.9q-0.1 0-0.2 0.1-0.5-1-1.3-1.7v-7.5l3.1-3.1c0.5-0.6 0.5-1.5 0-2-0.6-0.6-1.5-0.6-2 0l-1.1 1.1v-3.7c0-0.7-0.6-1.4-1.4-1.4-0.8 0-1.4 0.7-1.4 1.4v10.1c-3-0.6-5.3-3.1-5.7-6.2-0.4-3.9 2.4-7.4 6.3-7.8 3.8-0.5 7.4 2.3 7.8 6.2 0.2 1.9-0.3 3.7-1.5 5.2-0.4 0.6-0.3 1.5 0.3 2 0.6 0.5 1.5 0.4 1.9-0.2 1.7-2.1 2.4-4.7 2.1-7.3-0.4-3.7-2.8-6.7-6-8v-28.3h26.5c0.8 0 1.4-0.6 1.4-1.4 0-0.8-0.6-1.4-1.4-1.4h-27.7v-2.8h10.9c0.8 0 1.4-0.6 1.4-1.4 0-0.8-0.6-1.4-1.4-1.4h-3.6v-2.7c0-0.8-0.6-1.4-1.3-1.4l-26.9-2.9c-0.4 0-0.8 0.1-1.1 0.4-0.3 0.3-0.5 0.6-0.5 1v22.3l-2.9 4.1q-0.1 0.1-0.1 0.2-0.1 0.1-0.1 0.2-0.1 0.2-0.1 0.3 0 0.1 0 0.2v25.1c-0.6 1.5-1 3.2-1 4.9 0 3 1.1 5.6 2.8 7.1-2.3 1.1-3.8 3.4-3.8 6q0 0.2 0 0.3c-0.2 0.3-0.4 0.6-0.4 1 0 0.8 0.6 1.4 1.4 1.4h87c0.6 0 1.2-0.4 1.4-1q0.2-0.8 0.2-1.5c0-2.7-2.2-4.9-4.9-4.9q-0.5 0-1 0.1-0.7-1.2-1.7-2c3.9-1 6.8-5.8 6.8-11.8 0-2.1-0.3-4-1-5.7v-28.2h0.4zm-80.1-16.5l24.1 2.5v1.5h-5.9c-0.7 0-1.4 0.6-1.4 1.4v5.6c0 0.7 0.5 1.3 1.2 1.4v2.8h-5.9v-10.4c0-0.8-0.6-1.4-1.4-1.4-0.8 0-1.4 0.6-1.4 1.4v10.4h-3v-10.4c0-0.8-0.6-1.4-1.4-1.4-0.7 0-1.4 0.6-1.4 1.4v10.4h-1.8c-0.4 0-0.9 0.3-1.1 0.6l-0.6 0.9zm2.5 18.1h15.5v6.2h-20c0 0 4.5-6.2 4.5-6.2zm-5.8 9h21.3v2.6h-2.4v2.8h2.4v3.1h-2.4v2.8h2.4v1.6q-1.1-0.1-2.1 0c-1.6 0.2-2.9 0.7-4.1 1.4h-3.8v2.8h0.8c-1.3 1.9-1.9 4.3-1.6 6.8 0.5 4.5 4 8 8.4 8.6v0.6q-1-0.3-2.2-0.3c-1.3 0-2.5 0.3-3.6 1-0.9-1.7-2.6-2.8-4.5-3q0.2-1 0.2-2.2c0-4.5-2.6-9.6-6.3-9.6-0.9 0-1.7 0.3-2.5 0.8 0 0 0-19.8 0-19.8zm1.1 41.6h-3.1c0.1-1.8 1.4-3.3 3.1-3.7zm1.4-12.9c-0.8 0-1.4 0.7-1.4 1.4v3.7c-1.2-0.9-2.1-2.9-2.1-5.2 0-3.5 2-6.8 3.5-6.8 1.5 0 3.5 3.3 3.5 6.8 0 2.3-0.9 4.3-2.1 5.2v-3.7c0-0.7-0.6-1.4-1.4-1.4zm1.4 12.9v-4.7c1.6-0.5 2.9-1.7 3.8-3.4q0.2 0.1 0.4 0.1c1.5 0 2.7 1.1 2.9 2.7 0 0.5 0.4 1 0.9 1.2 0.6 0.2 1.2 0 1.5-0.4 0.9-1 2.1-1.5 3.3-1.5 1.9 0 3.6 1.2 4.2 3.1 0.1 0.4 0.4 0.7 0.8 0.8 0.4 0.2 0.9 0.2 1.2 0 1.8-1 3.8 0.3 3.9 2.1zm40.2 0h-14.5c-0.1-2.3-1.5-4.2-3.5-4.9 0.5-1.4 1.8-2.4 3.4-2.4q0.9 0 1.7 0.5c0.5 0.3 1.2 0.2 1.6-0.2 0.5-0.3 0.6-0.9 0.4-1.5q-0.2-0.5-0.2-1c0-1.7 1.4-3 3.1-3 1.6 0 3 1.3 3 3q0 0.4-0.1 0.7-1.3-0.1-2.5 0.2c-0.8 0.2-1.2 1-1 1.8 0.2 0.7 1 1.1 1.8 0.9 0.8-0.2 1.7-0.1 2.5 0.3 0.8 0.4 1.3 1.1 1.6 2 0.2 0.6 0.7 1 1.3 1q0.2 0 0.4-0.1c0.6-0.1 0.9-0.5 1-1 0 0 0 3.7 0 3.7zm0-4.2q0-0.1 0-0.2c-0.3-1-0.9-1.9-1.6-2.6q0.8 0.4 1.6 0.6zm1.4-16.1c-0.8 0-1.4 0.6-1.4 1.4v9.5c-2.4-1-4.2-4.6-4.2-8.8 0-5 2.6-9.2 5.6-9.2 3 0 5.6 4.2 5.6 9.2 0 4.2-1.8 7.8-4.2 8.8v-9.5c0-0.8-0.6-1.4-1.4-1.4zm16.8-60.8h6.7l3.1 3.6h-13zm2.9 16.4h-11.4v-10h23.7v14.2h-3.5v-3.4h-2.8v3.4h-4.6v-2.8c0-0.8-0.7-1.4-1.4-1.4zm-10.8 64.1c-1-0.6-1.7-1.8-1.7-3 0-2 1.6-3.7 3.6-3.7q0.9 0 1.8 0.5c0.5 0.3 1.1 0.2 1.6-0.1 0.4-0.4 0.6-1 0.4-1.6q-0.2-0.5-0.2-1c0-1.7 1.4-3 3.1-3 1.6 0 3 1.3 3 3q0 0 0 0.1-0.1-0.1-0.2-0.1c-2.3 0-4.3 1.6-5 3.7-3.2-0.2-5.9 2.1-6.4 5.2zm23.3-0.9c0.4 0.2 0.8 0.2 1.2 0 1.4-0.8 2.9 0.2 3.1 1.5h-24.9c0.2-2 2.2-3.6 4.4-2.8 0.5 0.2 1 0.1 1.4-0.2 0.3-0.2 0.6-0.7 0.5-1.2 0 0 0-0.1 0-0.1 0-1.3 1.1-2.4 2.4-2.4 1.2 0 2.2 1 2.3 2.2 0.1 0.6 0.5 1.1 1 1.2 0.5 0.2 1.1 0.1 1.5-0.4 0.7-0.8 1.7-1.2 2.8-1.2 1.6 0 3 1 3.5 2.6 0.1 0.4 0.4 0.7 0.8 0.8zm-0.6-7.9v-9.5c0-0.8-0.6-1.4-1.4-1.4-0.8 0-1.4 0.6-1.4 1.4v9.5c-2.4-1-4.2-4.6-4.2-8.8 0-5 2.6-9.2 5.6-9.2 3 0 5.5 4.2 5.5 9.2 0 4.2-1.7 7.8-4.1 8.8zm4.9-45.6h-16.6v-1.3c0.7-0.1 1.2-0.7 1.2-1.4h15.4z"/><path class="a" d="m48 23.2h6.4c1.5 0 2.8-0.8 3.4-2.1h4.3c2.1 0 3.8-1.7 3.8-3.8 0-2.1-1.7-3.8-3.8-3.8h-3.7c-0.4-2-2.3-3.5-4.4-3.5h-3.5c-2.5 0-4.5 2-4.5 4.5q0 0.7 0.2 1.4c-1.3 0.6-2.1 1.9-2.1 3.4 0 2.2 1.7 3.9 3.9 3.9zm0-4.9h0.4c0.6 0 1.1-0.4 1.3-0.9 0.2-0.6 0.1-1.2-0.3-1.6-0.4-0.3-0.6-0.8-0.6-1.2 0-1 0.8-1.8 1.7-1.8h3.5c0.9 0 1.7 0.8 1.7 1.7v0.3c-0.1 0.4 0.1 0.8 0.3 1.1 0.3 0.3 0.7 0.5 1.1 0.5h5c0.6 0 1 0.4 1 0.9 0 0.6-0.4 1-1 1h-5.3c-0.7 0-1.3 0.5-1.4 1.2 0 0.5-0.5 0.9-1 0.9h-6.4c-0.6 0-1.1-0.5-1.1-1.1 0-0.6 0.5-1 1.1-1z"/><path class="a" d="m71 72.2h2.8v5.5h-2.8z"/><path class="a" d="m34.3 25.3h4.9c1.9 0 3.5-1.5 3.5-3.5 0-1.9-1.6-3.5-3.5-3.5h-4.9c-2 0-3.5 1.6-3.5 3.5 0 2 1.5 3.5 3.5 3.5zm0-4.2h4.9c0.3 0 0.7 0.3 0.7 0.7 0 0.4-0.4 0.7-0.7 0.7h-4.9c-0.4 0-0.7-0.3-0.7-0.7 0-0.4 0.3-0.7 0.7-0.7z"/><path class="a" d="m83.9 47.9h2.9v17.1h-2.9z"/><path class="a" d="m16.3 21.5h4.1c1.4 0 2.7-0.8 3.4-1.9 2-0.4 3.6-2.3 3.6-4.5 0-2.5-2-4.5-4.5-4.5-2 0-3.7 1.3-4.3 3.1h-2.3c-2.2 0-3.9 1.8-3.9 3.9 0 2.1 1.7 3.9 3.9 3.9zm0-5h3.5c0.7 0 1.4-0.6 1.4-1.4 0-0.9 0.7-1.7 1.7-1.7 0.9 0 1.7 0.8 1.7 1.7 0 1-0.7 1.7-1.6 1.7q-0.1 0-0.2 0c-0.6 0-1.2 0.5-1.4 1.1-0.1 0.5-0.5 0.8-1 0.8h-4.1c-0.6 0-1.1-0.5-1.1-1.1 0-0.6 0.5-1.1 1.1-1.1z"/><path class="a" d="m71 45.2h2.8v5.4h-2.8z"/><path class="a" d="m79.4 25.6h2.8v4.4h-2.8z"/><path class="a" d="m57.1 54.2h2.8v5.4h-2.8z"/><path class="a" d="m72.5 25.6h2.8v4.4h-2.8z"/><path class="a" d="m57.1 45.2h2.8v5.4h-2.8z"/><path class="a" d="m86.4 25.6h2.8v4.4h-2.8z"/><path class="a" d="m64.1 45.2h2.8v5.4h-2.8z"/><path class="a" d="m64.1 54.2h2.8v5.4h-2.8z"/><path class="a" d="m43.2 63.2h2.8v5.5h-2.8z"/><path class="a" d="m71 54.2h2.8v5.4h-2.8z"/><path class="a" d="m43.2 54.2h2.8v5.4h-2.8z"/><path class="a" d="m43.2 45.2h2.8v5.4h-2.8z"/><path class="a" d="m50.2 54.2h2.8v5.4h-2.8z"/><path class="a" d="m50.2 45.2h2.8v5.4h-2.8z"/><path class="a" d="m50.2 63.2h2.8v5.5h-2.8z"/></svg>