<svg width="20" height="20" viewBox="0 0 20 20" fill="none" xmlns="http://www.w3.org/2000/svg">
<g clip-path="url(#clip0_2661_32952)">
<path d="M3.75 6.25C3.75 6.91304 4.01339 7.54893 4.48223 8.01777C4.95107 8.48661 5.58696 8.75 6.25 8.75C6.91304 8.75 7.54893 8.48661 8.01777 8.01777C8.48661 7.54893 8.75 6.91304 8.75 6.25C8.75 5.58696 8.48661 4.95107 8.01777 4.48223C7.54893 4.01339 6.91304 3.75 6.25 3.75C5.58696 3.75 4.95107 4.01339 4.48223 4.48223C4.01339 4.95107 3.75 5.58696 3.75 6.25Z" stroke="#8F8F8F" stroke-width="1.5" stroke-linecap="round" stroke-linejoin="round"/>
<path d="M11.25 13.75C11.25 14.413 11.5134 15.0489 11.9822 15.5178C12.4511 15.9866 13.087 16.25 13.75 16.25C14.413 16.25 15.0489 15.9866 15.5178 15.5178C15.9866 15.0489 16.25 14.413 16.25 13.75C16.25 13.087 15.9866 12.4511 15.5178 11.9822C15.0489 11.5134 14.413 11.25 13.75 11.25C13.087 11.25 12.4511 11.5134 11.9822 11.9822C11.5134 12.4511 11.25 13.087 11.25 13.75Z" stroke="#8F8F8F" stroke-width="1.5" stroke-linecap="round" stroke-linejoin="round"/>
<path d="M6.25 8.75L6.25 16.25" stroke="#8F8F8F" stroke-width="1.5" stroke-linecap="round" stroke-linejoin="round"/>
<path d="M13.75 5L13.75 11.25" stroke="#8F8F8F" stroke-width="1.5" stroke-linecap="round" stroke-linejoin="round"/>
<path d="M3.75 13.75H8.75" stroke="#8F8F8F" stroke-width="1.5" stroke-linecap="round" stroke-linejoin="round"/>
<path d="M11.25 6.25L13.75 3.75L16.25 6.25" stroke="#8F8F8F" stroke-width="1.5" stroke-linecap="round" stroke-linejoin="round"/>
</g>
<defs>
<clipPath id="clip0_2661_32952">
<rect width="20" height="20" fill="white"/>
</clipPath>
</defs>
</svg>
