<svg version="1.2" xmlns="http://www.w3.org/2000/svg" viewBox="0 0 110 110"><style>.a{fill:#8f8f8f}</style><path class="a" d="m70.6 7.8c-12.2 0-22.2 10-22.2 22.2 0 7.1 5.3 14.4 10.2 20.7 4.9 6.2 9.8 11.1 9.8 11.1 1.2 1.2 3.2 1.2 4.4 0 0 0 4.9-4.9 9.8-11.1 5-6.3 10.3-13.6 10.3-20.7 0-12.2-10-22.2-22.3-22.2zm0 6.3c8.9 0 16 7.1 16 15.9 0 3.4-4.2 10.9-8.9 16.8-3.5 4.5-5.6 6.6-7.1 8.1-1.5-1.5-3.5-3.5-7.1-8.1-4.6-5.9-8.9-13.4-8.9-16.8 0-8.8 7.1-15.9 16-15.9zm-0.1 8.5c-3.1 0.1-5.6 2.6-5.6 5.8 0 3.1 2.6 5.7 5.7 5.7 3.2 0 5.8-2.6 5.8-5.7 0-3.2-2.6-5.8-5.8-5.8 0 0-0.1 0-0.1 0zm-31.1 1.5q-0.2 0-0.3 0-0.1 0-0.2 0-0.4 0.1-0.8 0.2l-31.1 12.5c-1.2 0.5-2 1.6-2 2.9v61.3c0 1.1 0.5 2 1.4 2.6 0.8 0.6 1.9 0.7 2.9 0.3l30.1-12 30 12q0.1 0 0.1 0.1 0.3 0.1 0.7 0.1 0 0 0 0 0.2 0.1 0.4 0.1 0.7 0 1.3-0.3l31.1-12.5c1.2-0.4 2-1.6 2-2.9v-61.3c0-1-0.5-2-1.4-2.6-0.8-0.6-1.9-0.7-2.9-0.3l-3.7 1.5c-1.6 0.6-2.4 2.5-1.7 4.1 0.6 1.3 2 2 3.4 1.7v54.8l-25 10v-28.6c0-1.7-1.4-3.1-3.1-3.1-1.7 0-3.1 1.4-3.1 3.1v28.6l-25-10v-54.7c1.4 0.3 2.9-0.5 3.4-1.8 0.7-1.6-0.1-3.5-1.7-4.1l-3.5-1.4q-0.7-0.3-1.3-0.3zm-3.2 7.7v54.6l-24.9 10v-54.6z"/></svg>