<svg width="20" height="20" viewBox="0 0 20 20" fill="none" xmlns="http://www.w3.org/2000/svg">
<g clip-path="url(#clip0_1423_32983)">
<path d="M9.16675 10.0013C9.16675 10.2223 9.25455 10.4343 9.41083 10.5906C9.56711 10.7468 9.77907 10.8346 10.0001 10.8346C10.2211 10.8346 10.4331 10.7468 10.5893 10.5906C10.7456 10.4343 10.8334 10.2223 10.8334 10.0013C10.8334 9.78029 10.7456 9.56833 10.5893 9.41205C10.4331 9.25577 10.2211 9.16797 10.0001 9.16797C9.77907 9.16797 9.56711 9.25577 9.41083 9.41205C9.25455 9.56833 9.16675 9.78029 9.16675 10.0013Z" stroke="black" stroke-linecap="round" stroke-linejoin="round"/>
<path d="M9.16675 15.8333C9.16675 16.0543 9.25455 16.2663 9.41083 16.4226C9.56711 16.5789 9.77907 16.6667 10.0001 16.6667C10.2211 16.6667 10.4331 16.5789 10.5893 16.4226C10.7456 16.2663 10.8334 16.0543 10.8334 15.8333C10.8334 15.6123 10.7456 15.4004 10.5893 15.2441C10.4331 15.0878 10.2211 15 10.0001 15C9.77907 15 9.56711 15.0878 9.41083 15.2441C9.25455 15.4004 9.16675 15.6123 9.16675 15.8333Z" stroke="black" stroke-linecap="round" stroke-linejoin="round"/>
<path d="M9.16675 4.16536C9.16675 4.38638 9.25455 4.59834 9.41083 4.75462C9.56711 4.9109 9.77907 4.9987 10.0001 4.9987C10.2211 4.9987 10.4331 4.9109 10.5893 4.75462C10.7456 4.59834 10.8334 4.38638 10.8334 4.16536C10.8334 3.94435 10.7456 3.73239 10.5893 3.57611C10.4331 3.41983 10.2211 3.33203 10.0001 3.33203C9.77907 3.33203 9.56711 3.41983 9.41083 3.57611C9.25455 3.73239 9.16675 3.94435 9.16675 4.16536Z" stroke="black" stroke-linecap="round" stroke-linejoin="round"/>
</g>
<defs>
<clipPath id="clip0_1423_32983">
<rect width="20" height="20" fill="white"/>
</clipPath>
</defs>
</svg>
