<svg width="98" height="147" viewBox="0 0 98 147" fill="none" xmlns="http://www.w3.org/2000/svg">
<g opacity="0.12">
<path d="M98 138.833C98 143.341 94.3413 147 89.8333 147H8.16667C3.65867 147 0 143.341 0 138.833C0 134.325 3.65867 130.667 8.16667 130.667H89.8333C94.3413 130.667 98 134.325 98 138.833ZM98 8.16667C98 12.6747 94.3413 16.3333 89.8333 16.3333H8.16667C3.65867 16.3333 0 12.6747 0 8.16667C0 3.65867 3.65867 0 8.16667 0H89.8333C94.3413 0 98 3.65867 98 8.16667Z" fill="#EBD0A8"/>
<path d="M61.3 73.5C61.3 65.3084 74.6086 59.7082 81.8 48.9375C90 36.6562 90 8 90 8H8C8 8 8 36.6562 16.2 48.9375C23.3914 59.7082 36.7 65.3084 36.7 73.5C36.7 81.6916 23.3914 87.2918 16.2 98.0625C8 110.344 8 139 8 139H90C90 139 90 110.344 81.8 98.0625C74.6086 87.2918 61.3 81.6916 61.3 73.5Z" fill="#EDD8AB"/>
<path d="M60.6834 98.1304C56.625 98.1304 52.3269 94.0435 52.3269 89.9565C52.5625 82.9556 52.5625 78.325 52.5625 73.6087C52.5625 60.4487 64.8881 54.9681 72.4688 45H24.5313C32.1078 54.9681 44.4375 60.4487 44.4375 73.6087C44.4375 78.3291 44.4375 82.9637 44.6731 89.9565C44.6731 94.0435 40.375 98.1304 36.3125 98.1304C28.1875 98.1304 21.7078 105.422 20.0625 110.391C16 122.652 16 139 16 139H81C81 139 81 122.652 76.9375 110.391C75.2922 105.422 68.8084 98.1304 60.6834 98.1304Z" fill="#E7A340"/>
</g>
</svg>
