<svg version="1.2" xmlns="http://www.w3.org/2000/svg" viewBox="0 0 110 110"><style>.a{fill:#8f8f8f}</style><path class="a" d="m100.6 99.7c0 0.7-0.3 1.5-0.9 2-0.5 0.5-1.2 0.8-2 0.8h-85.4c-1.6 0-2.9-1.2-2.9-2.8 0-1.6 1.3-2.9 2.9-2.9h4.4v-51.4c0-1.5 1.3-2.8 2.9-2.8h20.5v-28.3c0-0.7 0.3-1.5 0.8-2 0.5-0.5 1.3-0.8 2-0.8h47.5c0.8 0 1.5 0.3 2 0.8 0.6 0.5 0.9 1.3 0.9 2v82.5h4.4c0.8 0 1.5 0.3 2 0.9 0.6 0.5 0.9 1.2 0.9 2zm-78.2-2.9h9.7v-17.4c0-1.6 1.2-2.9 2.8-2.9h16.4c1.5 0 2.8 1.3 2.8 2.9v17.4h9.3v-48.5h-41zm23.7-42.3h-6.1v5.7h6.1zm-0.3-11.9h20.5c0.7 0 1.4 0.3 2 0.9 0.5 0.5 0.8 1.2 0.8 2v51.3h18.5v-79.6h-41.8zm12.2 11.8h-6.1v5.7h6.1zm-23.8 10.2h-6.1v5.7h6.1zm23.8 0h-6.1v5.7h6.1zm23.6-1.4h-6.1v5.7h6.1zm0-31.1h-6.1v5.7h6.1zm0 20.6h-6.1v5.7h6.1zm0-10.2h-6.1v5.7h6.1zm-47.4 11.9h-6.1v5.7h6.1zm47.4 19h-6.1v5.7h6.1zm0-51.6h-6.1v5.7h6.1zm-11.9 0h-6.1v5.7h6.1zm-18 15.9h6.1v-5.7h-6.1zm18 0h-6.1v-5.7h6.1zm-18-10.2h6.1v-5.7h-6.1zm-3.3 54.6h-10.7v14.6h10.7zm-2.3-17.6h-6.1v5.7h6.1z"/></svg>