<svg width="20" height="20" viewBox="0 0 20 20" fill="none" xmlns="http://www.w3.org/2000/svg">
<path fill-rule="evenodd" clip-rule="evenodd" d="M3.45569 5.90893C2.5516 5.90893 1.81934 5.17667 1.81934 4.27258C1.81934 3.3685 2.5516 2.63623 3.45569 2.63623C4.35977 2.63623 5.09204 3.3685 5.09204 4.27258C5.09204 5.17667 4.35977 5.90893 3.45569 5.90893Z" stroke="#091C3F" stroke-width="1.2" stroke-linecap="round" stroke-linejoin="round"/>
<path d="M5.90905 13.2728V17.3637H2.63635V14.091L1 11.6365V9.36377C1 8.81148 1.44772 8.36377 2 8.36377H5.90905" stroke="#091C3F" stroke-width="1.2" stroke-linecap="round" stroke-linejoin="round"/>
<path fill-rule="evenodd" clip-rule="evenodd" d="M16.5441 5.90893C17.4482 5.90893 18.1804 5.17667 18.1804 4.27258C18.1804 3.3685 17.4482 2.63623 16.5441 2.63623C15.64 2.63623 14.9077 3.3685 14.9077 4.27258C14.9077 5.17667 15.64 5.90893 16.5441 5.90893Z" stroke="#091C3F" stroke-width="1.2" stroke-linecap="round" stroke-linejoin="round"/>
<path d="M14.0923 13.2728V17.3637H17.365V14.091L19.0013 11.6365V9.36377C19.0013 8.81148 18.5536 8.36377 18.0013 8.36377H14.0923" stroke="#091C3F" stroke-width="1.2" stroke-linecap="round" stroke-linejoin="round"/>
<path fill-rule="evenodd" clip-rule="evenodd" d="M10.0004 5.90905C8.64471 5.90905 7.5459 4.81024 7.5459 3.45453C7.5459 2.09881 8.64471 1 10.0004 1C11.3561 1 12.455 2.09881 12.455 3.45453C12.455 4.81024 11.3561 5.90905 10.0004 5.90905Z" stroke="#091C3F" stroke-width="1.2" stroke-linecap="round" stroke-linejoin="round"/>
<path fill-rule="evenodd" clip-rule="evenodd" d="M11.6345 19.0001H8.36175V15.7274L5.90723 13.2728V8.36377H14.089V13.2728L11.6345 15.7274V19.0001Z" stroke="#091C3F" stroke-width="1.2" stroke-linecap="round" stroke-linejoin="round"/>
</svg>
