<svg version="1.2" xmlns="http://www.w3.org/2000/svg" viewBox="0 0 429 331" width="429" height="331"><style>.a{fill:#6d6de8}.b{fill:#fff}.c{fill:#263238}.d{fill:#ffbf9d}.e{fill:#ff9a6c}.f{fill:#455a64}.g{fill:#e0e0e0}.h{fill:#fff4d5}.i{fill:none;stroke:#ffd869}.j{fill:#007fff}.k{fill:#ffe8d2}.l{fill:none;stroke:#ffca99}.m{fill:#333846}.n{fill:#d7ebff}.o{fill:#39f}.p{fill:#fdca40}.q{fill:#004c98}.r{fill:#ddffda}.s{fill:none;stroke:#94ff83}.t{fill:#06c}.u{fill:#d9ecff}.v{fill:none;stroke:#a3d1ff}.w{fill:#0055ac}.x{fill:#ffc247}.y{fill:#dbf3ff}.z{fill:none;stroke:#a9e3ff}.A{fill:#ed7176}.B{fill:#eae7ff}.C{fill:none;stroke:#cdc4fd}</style><path class="a" d="m253.2 173.7l-0.3 0.1-0.7 0.3q-0.3 0.2-0.6 0.4-0.3 0.2-0.6 0.4-0.3 0.2-0.6 0.4-0.3 0.2-0.6 0.4-0.5 0.4-0.9 0.9-0.4 0.4-0.8 0.8-0.3 0.5-0.7 1-0.3 0.4-0.6 1-0.4 0.6-0.7 1.3-0.3 0.7-0.5 1.5-0.3 0.7-0.4 1.5-0.1 0.8-0.2 1.5 0 1 0 1.9 0.1 1 0.4 1.9 0.2 0.9 0.6 1.8 0.3 0.9 0.8 1.7 0.6 0.9 1.3 1.7 0.7 0.8 1.6 1.5 0.8 0.7 1.7 1.3 0.9 0.6 1.9 1 1.1 0.5 2.3 0.8 1.2 0.2 2.4 0.2 1.2 0 2.4-0.2 1.2-0.3 2.3-0.8 0.6-0.3 1.1-0.6 0.5-0.4 1-0.9 0.4-0.5 0.8-1 0.3-0.6 0.6-1.2 0.2-0.6 0.4-1.3 0.1-0.6 0-1.3-0.1-0.7-0.3-1.3-0.2-0.7-0.6-1.2-0.4-0.6-0.9-1-0.5-0.4-1.1-0.7-0.6-0.4-1.3-0.5-0.6-0.2-1.3-0.3-0.6 0-1.3 0.1-0.6 0.1-1.2 0.3-0.7 0.2-1.2 0.5-0.6 0.3-1.1 0.7-0.9 0.8-1.7 1.7-0.7 1-1.2 2.1-0.5 1.1-0.8 2.3-0.2 1.2-0.2 2.4 0.1 1.1 0.3 2.2 0.2 1 0.6 2.1 0.4 1 0.9 1.9 0.5 1 1.2 1.8 0.3 0.4 0.7 0.8 0.3 0.3 0.7 0.6 0.4 0.4 0.7 0.7 0.4 0.3 0.9 0.5 0.3 0.3 0.7 0.5 0.4 0.2 0.9 0.4 0.4 0.2 0.8 0.3 0.4 0.2 0.8 0.3 0.8 0.2 1.6 0.4 0.7 0.1 1.5 0.2 0.8 0 1.5 0 0.8 0 1.6-0.1 0.6-0.1 1.1-0.2 0.6-0.1 1.2-0.3 0.5-0.1 1.1-0.3 0.5-0.2 1.1-0.5 0.3-0.1 0.6-0.3 0.4-0.1 0.7-0.3 0.3-0.2 0.6-0.4 0.3-0.2 0.6-0.4l0.7-0.4q0-0.1 0-0.1 0 0 0.1 0 0 0 0-0.1 0 0 0.1 0-0.5 0.3-0.9 0.5-0.4 0.3-0.8 0.5-0.5 0.2-0.9 0.4-0.4 0.3-0.9 0.5-0.5 0.2-1.1 0.4-0.5 0.1-1.1 0.3-0.5 0.1-1.1 0.2-0.6 0.1-1.1 0.2-0.8 0.1-1.6 0.1-0.7 0-1.5-0.1-0.7 0-1.5-0.2-0.7-0.1-1.4-0.3-0.5-0.2-0.9-0.3-0.4-0.2-0.8-0.4-0.4-0.2-0.8-0.4-0.4-0.2-0.7-0.4-0.4-0.3-0.8-0.6-0.4-0.3-0.7-0.6-0.4-0.3-0.7-0.6-0.3-0.4-0.6-0.8-0.7-0.8-1.2-1.7-0.5-0.9-0.9-1.9-0.3-1-0.5-2-0.2-1.1-0.2-2.1-0.1-1.2 0.1-2.3 0.3-1.1 0.8-2.2 0.4-1 1.1-1.9 0.8-1 1.6-1.7 0.5-0.4 1-0.6 0.6-0.3 1.1-0.5 0.6-0.2 1.2-0.3 0.6-0.1 1.2-0.1 0.6 0.1 1.2 0.2 0.6 0.2 1.2 0.5 0.5 0.3 1 0.7 0.4 0.4 0.8 0.9 0.4 0.5 0.6 1.1 0.2 0.5 0.2 1.1 0.1 0.7 0 1.3-0.1 0.6-0.4 1.1-0.2 0.6-0.5 1.1-0.3 0.5-0.7 0.9-0.5 0.5-0.9 0.8-0.5 0.4-1.1 0.7-1 0.4-2.2 0.7-1.1 0.2-2.3 0.2-1.1 0-2.3-0.2-1.1-0.3-2.2-0.7-1-0.5-1.9-1-0.8-0.5-1.7-1.2-0.8-0.7-1.4-1.5-0.7-0.8-1.3-1.7-0.5-0.8-0.9-1.6-0.3-0.8-0.6-1.7-0.2-0.9-0.3-1.8-0.1-1 0-1.9 0-0.7 0.1-1.5 0.2-0.7 0.4-1.5 0.2-0.7 0.5-1.4 0.3-0.7 0.6-1.3 0.3-0.6 0.6-1 0.4-0.5 0.7-1 0.4-0.4 0.8-0.8 0.4-0.4 0.8-0.8 0.4-0.4 0.7-0.6 0.4-0.3 0.9-0.6 0.4-0.3 0.8-0.5 0.4-0.3 0.9-0.5z"/><path class="b" d="m276.3 207.4q-0.2 0.2-0.4 0.6-0.1 0.3-0.3 0.6-0.1 0.3-0.3 0.6-0.1 0.3-0.2 0.7-0.3 0.8-0.6 1.5-0.3 0.8-0.6 1.6-0.2 0.8-0.4 1.6-0.3 0.9-0.5 1.7-0.2 0.8-0.4 1.6-0.1 0.8-0.3 1.7-0.2 0.8-0.3 1.6-0.1 0.8-0.2 1.7-0.1 0.3-0.1 0.7-0.1 0.3-0.1 0.7 0 0.3 0 0.7 0 0.3 0 0.7 0.1-0.4 0.2-0.7 0.1-0.3 0.1-0.7 0.1-0.3 0.2-0.7 0-0.3 0-0.7c0.3-1.7 0.8-4 1.4-6.5 0.7-2.5 1.4-4.8 1.9-6.4q0.2-0.3 0.3-0.7 0.1-0.3 0.2-0.6 0.1-0.3 0.2-0.7 0.1-0.3 0.2-0.6z"/><path class="b" d="m331.1 168.7q-0.4 0-0.8 0h-0.1z"/><path fill-rule="evenodd" class="a" d="m232 274.1v15.5h-85.2v-15.5z"/><path fill-rule="evenodd" class="c" d="m223.6 274.4c0.2 0 0.4 3.4 0.4 7.6 0 4.3-0.2 7.7-0.4 7.7-0.2 0-0.3-3.4-0.3-7.7 0-4.2 0.1-7.6 0.3-7.6z"/><path fill-rule="evenodd" class="c" d="m228.3 274.4c0.2 0 0.3 3.4 0.3 7.6 0 4.3-0.1 7.7-0.3 7.7-0.2 0-0.4-3.4-0.4-7.7 0-4.2 0.2-7.6 0.4-7.6z"/><path fill-rule="evenodd" class="c" d="m213.4 274.4c0.2 0 0.3 3.4 0.3 7.6 0 4.3-0.1 7.7-0.3 7.7-0.2 0-0.4-3.4-0.4-7.7 0-4.2 0.2-7.6 0.4-7.6z"/><path fill-rule="evenodd" class="c" d="m218.1 274.4c0.1 0 0.3 3.4 0.3 7.6 0 4.3-0.2 7.7-0.3 7.7-0.2 0-0.4-3.4-0.4-7.7 0-4.2 0.2-7.6 0.4-7.6z"/><path fill-rule="evenodd" class="c" d="m203.2 274.4c0.1 0 0.3 3.4 0.3 7.6 0 4.3-0.2 7.7-0.3 7.7-0.2 0-0.4-3.4-0.4-7.7 0-4.2 0.2-7.6 0.4-7.6z"/><path fill-rule="evenodd" class="c" d="m207.8 274.4c0.2 0 0.4 3.4 0.4 7.6 0 4.3-0.2 7.7-0.4 7.7-0.2 0-0.3-3.4-0.3-7.7 0-4.2 0.1-7.6 0.3-7.6z"/><path fill-rule="evenodd" class="c" d="m192.9 274.4c0.2 0 0.4 3.4 0.4 7.6 0 4.3-0.2 7.7-0.4 7.7-0.2 0-0.3-3.4-0.3-7.7 0-4.2 0.1-7.6 0.3-7.6z"/><path fill-rule="evenodd" class="c" d="m197.6 274.4c0.2 0 0.3 3.4 0.3 7.6 0 4.3-0.1 7.7-0.3 7.7-0.2 0-0.4-3.4-0.4-7.7 0-4.2 0.2-7.6 0.4-7.6z"/><path fill-rule="evenodd" class="c" d="m182.7 274.4c0.2 0 0.4 3.4 0.4 7.6 0 4.3-0.2 7.7-0.4 7.7-0.2 0-0.3-3.4-0.3-7.7 0-4.2 0.1-7.6 0.3-7.6z"/><path fill-rule="evenodd" class="c" d="m187.3 274.4c0.2 0 0.4 3.4 0.4 7.6 0 4.3-0.2 7.7-0.4 7.7-0.2 0-0.3-3.4-0.3-7.7 0-4.2 0.1-7.6 0.3-7.6z"/><path fill-rule="evenodd" class="c" d="m172.5 274.4c0.1 0 0.3 3.4 0.3 7.6 0 4.3-0.2 7.7-0.3 7.7-0.2 0-0.4-3.4-0.4-7.7 0-4.2 0.2-7.6 0.4-7.6z"/><path fill-rule="evenodd" class="c" d="m177.1 274.4c0.2 0 0.4 3.4 0.4 7.6 0 4.3-0.2 7.7-0.4 7.7-0.2 0-0.3-3.4-0.3-7.7 0-4.2 0.1-7.6 0.3-7.6z"/><path fill-rule="evenodd" class="c" d="m162.2 274.4c0.2 0 0.4 3.4 0.4 7.6 0 4.3-0.2 7.7-0.4 7.7-0.2 0-0.3-3.4-0.3-7.7 0-4.2 0.1-7.6 0.3-7.6z"/><path fill-rule="evenodd" class="c" d="m166.9 274.4c0.2 0 0.3 3.4 0.3 7.6 0 4.3-0.1 7.7-0.3 7.7-0.2 0-0.4-3.4-0.4-7.7 0-4.2 0.2-7.6 0.4-7.6z"/><path fill-rule="evenodd" class="c" d="m152 274.4c0.2 0 0.3 3.4 0.3 7.6 0 4.3-0.1 7.7-0.3 7.7-0.2 0-0.4-3.4-0.4-7.7 0-4.2 0.2-7.6 0.4-7.6z"/><path fill-rule="evenodd" class="c" d="m156.6 274.4c0.2 0 0.4 3.4 0.4 7.6 0 4.3-0.2 7.7-0.4 7.7-0.2 0-0.3-3.4-0.3-7.7 0-4.2 0.1-7.6 0.3-7.6z"/><path class="c" d="m146.8 274.1c0 0.2 19.1 0.4 42.8 0.4 23.6 0 42.8-0.2 42.8-0.4 0-0.2-19.2-0.3-42.8-0.3-23.7 0-42.8 0.1-42.8 0.3z"/><path fill-rule="evenodd" class="a" d="m237.5 289.9v15.4h-85.1v-15.4z"/><path fill-rule="evenodd" class="c" d="m229.2 290.1c0.2 0 0.4 3.4 0.4 7.6 0 4.3-0.2 7.7-0.4 7.7-0.2 0-0.4-3.4-0.4-7.7 0-4.2 0.2-7.6 0.4-7.6z"/><path fill-rule="evenodd" class="c" d="m233.9 290.1c0.2 0 0.3 3.4 0.3 7.6 0 4.3-0.1 7.7-0.3 7.7-0.2 0-0.4-3.4-0.4-7.7 0-4.2 0.2-7.6 0.4-7.6z"/><path fill-rule="evenodd" class="c" d="m219 290.1c0.2 0 0.3 3.4 0.3 7.6 0 4.3-0.1 7.7-0.3 7.7-0.2 0-0.4-3.4-0.4-7.7 0-4.2 0.2-7.6 0.4-7.6z"/><path fill-rule="evenodd" class="c" d="m223.6 290.1c0.2 0 0.4 3.4 0.4 7.6 0 4.3-0.2 7.7-0.4 7.7-0.2 0-0.3-3.4-0.3-7.7 0-4.2 0.1-7.6 0.3-7.6z"/><path fill-rule="evenodd" class="c" d="m208.7 290.1c0.2 0 0.4 3.4 0.4 7.6 0 4.3-0.2 7.7-0.4 7.7-0.2 0-0.3-3.4-0.3-7.7 0-4.2 0.1-7.6 0.3-7.6z"/><path fill-rule="evenodd" class="c" d="m213.4 290.1c0.2 0 0.3 3.4 0.3 7.6 0 4.3-0.1 7.7-0.3 7.7-0.2 0-0.4-3.4-0.4-7.7 0-4.2 0.2-7.6 0.4-7.6z"/><path fill-rule="evenodd" class="c" d="m198.5 290.1c0.2 0 0.3 3.4 0.3 7.6 0 4.3-0.1 7.7-0.3 7.7-0.2 0-0.4-3.4-0.4-7.7 0-4.2 0.2-7.6 0.4-7.6z"/><path fill-rule="evenodd" class="c" d="m203.2 290.1c0.1 0 0.3 3.4 0.3 7.6 0 4.3-0.2 7.7-0.3 7.7-0.2 0-0.4-3.4-0.4-7.7 0-4.2 0.2-7.6 0.4-7.6z"/><path fill-rule="evenodd" class="c" d="m188.3 290.1c0.2 0 0.3 3.4 0.3 7.6 0 4.3-0.1 7.7-0.3 7.7-0.2 0-0.4-3.4-0.4-7.7 0-4.2 0.2-7.6 0.4-7.6z"/><path fill-rule="evenodd" class="c" d="m192.9 290.1c0.2 0 0.4 3.4 0.4 7.6 0 4.3-0.2 7.7-0.4 7.7-0.2 0-0.3-3.4-0.3-7.7 0-4.2 0.1-7.6 0.3-7.6z"/><path fill-rule="evenodd" class="c" d="m178 290.1c0.2 0 0.4 3.4 0.4 7.6 0 4.3-0.2 7.7-0.4 7.7-0.2 0-0.3-3.4-0.3-7.7 0-4.2 0.1-7.6 0.3-7.6z"/><path fill-rule="evenodd" class="c" d="m182.7 290.1c0.2 0 0.4 3.4 0.4 7.6 0 4.3-0.2 7.7-0.4 7.7-0.2 0-0.3-3.4-0.3-7.7 0-4.2 0.1-7.6 0.3-7.6z"/><path fill-rule="evenodd" class="c" d="m167.8 290.1c0.2 0 0.3 3.4 0.3 7.6 0 4.3-0.1 7.7-0.3 7.7-0.2 0-0.4-3.4-0.4-7.7 0-4.2 0.2-7.6 0.4-7.6z"/><path fill-rule="evenodd" class="c" d="m172.5 290.1c0.1 0 0.3 3.4 0.3 7.6 0 4.3-0.2 7.7-0.3 7.7-0.2 0-0.4-3.4-0.4-7.7 0-4.2 0.2-7.6 0.4-7.6z"/><path fill-rule="evenodd" class="c" d="m157.6 290.1c0.1 0 0.3 3.4 0.3 7.6 0 4.3-0.2 7.7-0.3 7.7-0.2 0-0.4-3.4-0.4-7.7 0-4.2 0.2-7.6 0.4-7.6z"/><path fill-rule="evenodd" class="c" d="m162.2 290.1c0.2 0 0.4 3.4 0.4 7.6 0 4.3-0.2 7.7-0.4 7.7-0.2 0-0.3-3.4-0.3-7.7 0-4.2 0.1-7.6 0.3-7.6z"/><path class="c" d="m152.4 289.9c0 0.1 19.1 0.3 42.8 0.3 23.6 0 42.7-0.2 42.7-0.3 0-0.2-19.1-0.4-42.7-0.4-23.7 0-42.8 0.2-42.8 0.4z"/><path fill-rule="evenodd" class="a" d="m230.6 305.4v15.5h-85.2v-15.5z"/><path fill-rule="evenodd" class="c" d="m222.2 305.6c0.2 0 0.4 3.5 0.4 7.7 0 4.3-0.2 7.7-0.4 7.7-0.2 0-0.3-3.4-0.3-7.7 0-4.2 0.1-7.7 0.3-7.7z"/><path fill-rule="evenodd" class="c" d="m226.9 305.6c0.2 0 0.4 3.5 0.4 7.7 0 4.3-0.2 7.7-0.4 7.7-0.2 0-0.4-3.4-0.4-7.7 0-4.2 0.2-7.7 0.4-7.7z"/><path fill-rule="evenodd" class="c" d="m212 305.6c0.2 0 0.4 3.5 0.4 7.7 0 4.3-0.2 7.7-0.4 7.7-0.2 0-0.4-3.4-0.4-7.7 0-4.2 0.2-7.7 0.4-7.7z"/><path fill-rule="evenodd" class="c" d="m216.7 305.6c0.2 0 0.3 3.5 0.3 7.7 0 4.3-0.1 7.7-0.3 7.7-0.2 0-0.4-3.4-0.4-7.7 0-4.2 0.2-7.7 0.4-7.7z"/><path fill-rule="evenodd" class="c" d="m201.7 305.6c0.2 0 0.4 3.5 0.4 7.7 0 4.3-0.2 7.7-0.4 7.7-0.2 0-0.3-3.4-0.3-7.7 0-4.2 0.1-7.7 0.3-7.7z"/><path fill-rule="evenodd" class="c" d="m206.4 305.6c0.2 0 0.4 3.5 0.4 7.7 0 4.3-0.2 7.7-0.4 7.7-0.2 0-0.3-3.4-0.3-7.7 0-4.2 0.1-7.7 0.3-7.7z"/><path fill-rule="evenodd" class="c" d="m191.5 305.6c0.2 0 0.4 3.5 0.4 7.7 0 4.3-0.2 7.7-0.4 7.7-0.2 0-0.3-3.4-0.3-7.7 0-4.2 0.1-7.7 0.3-7.7z"/><path fill-rule="evenodd" class="c" d="m196.2 305.6c0.2 0 0.3 3.5 0.3 7.7 0 4.3-0.1 7.7-0.3 7.7-0.2 0-0.4-3.4-0.4-7.7 0-4.2 0.2-7.7 0.4-7.7z"/><path fill-rule="evenodd" class="c" d="m181.3 305.6c0.2 0 0.4 3.5 0.4 7.7 0 4.3-0.2 7.7-0.4 7.7-0.2 0-0.4-3.4-0.4-7.7 0-4.2 0.2-7.7 0.4-7.7z"/><path fill-rule="evenodd" class="c" d="m186 305.6c0.2 0 0.3 3.5 0.3 7.7 0 4.3-0.1 7.7-0.3 7.7-0.2 0-0.4-3.4-0.4-7.7 0-4.2 0.2-7.7 0.4-7.7z"/><path fill-rule="evenodd" class="c" d="m171.1 305.6c0.2 0 0.3 3.5 0.3 7.7 0 4.3-0.1 7.7-0.3 7.7-0.2 0-0.4-3.4-0.4-7.7 0-4.2 0.2-7.7 0.4-7.7z"/><path fill-rule="evenodd" class="c" d="m175.7 305.6c0.2 0 0.4 3.5 0.4 7.7 0 4.3-0.2 7.7-0.4 7.7-0.2 0-0.3-3.4-0.3-7.7 0-4.2 0.1-7.7 0.3-7.7z"/><path fill-rule="evenodd" class="c" d="m160.8 305.6c0.2 0 0.4 3.5 0.4 7.7 0 4.3-0.2 7.7-0.4 7.7-0.2 0-0.3-3.4-0.3-7.7 0-4.2 0.1-7.7 0.3-7.7z"/><path fill-rule="evenodd" class="c" d="m165.5 305.6c0.2 0 0.3 3.5 0.3 7.7 0 4.3-0.1 7.7-0.3 7.7-0.2 0-0.4-3.4-0.4-7.7 0-4.2 0.2-7.7 0.4-7.7z"/><path fill-rule="evenodd" class="c" d="m150.6 305.6c0.2 0 0.3 3.5 0.3 7.7 0 4.3-0.1 7.7-0.3 7.7-0.2 0-0.4-3.4-0.4-7.7 0-4.2 0.2-7.7 0.4-7.7z"/><path fill-rule="evenodd" class="c" d="m155.3 305.6c0.1 0 0.3 3.5 0.3 7.7 0 4.3-0.2 7.7-0.3 7.7-0.2 0-0.4-3.4-0.4-7.7 0-4.2 0.2-7.7 0.4-7.7z"/><path class="c" d="m145.4 305.4c0 0.2 19.2 0.4 42.9 0.4 23.7 0 42.9-0.2 42.9-0.4 0-0.2-19.2-0.3-42.9-0.3-23.7 0-42.9 0.1-42.9 0.3z"/><path fill-rule="evenodd" class="a" d="m237.3 320.8v15.4h-85.2v-15.4z"/><path fill-rule="evenodd" class="c" d="m228.9 321c0.2 0 0.4 3.4 0.4 7.7 0 4.2-0.2 7.7-0.4 7.7-0.2 0-0.3-3.5-0.3-7.7 0-4.3 0.1-7.7 0.3-7.7z"/><path fill-rule="evenodd" class="c" d="m233.6 321c0.2 0 0.3 3.4 0.3 7.7 0 4.2-0.1 7.7-0.3 7.7-0.2 0-0.4-3.5-0.4-7.7 0-4.3 0.2-7.7 0.4-7.7z"/><path fill-rule="evenodd" class="c" d="m218.7 321c0.2 0 0.4 3.4 0.4 7.7 0 4.2-0.2 7.7-0.4 7.7-0.2 0-0.3-3.5-0.3-7.7 0-4.3 0.1-7.7 0.3-7.7z"/><path fill-rule="evenodd" class="c" d="m223.3 321c0.2 0 0.4 3.4 0.4 7.7 0 4.2-0.2 7.7-0.4 7.7-0.2 0-0.3-3.5-0.3-7.7 0-4.3 0.1-7.7 0.3-7.7z"/><path fill-rule="evenodd" class="c" d="m208.5 321c0.1 0 0.3 3.4 0.3 7.7 0 4.2-0.2 7.7-0.3 7.7-0.2 0-0.4-3.5-0.4-7.7 0-4.3 0.2-7.7 0.4-7.7z"/><path fill-rule="evenodd" class="c" d="m213.1 321c0.2 0 0.4 3.4 0.4 7.7 0 4.2-0.2 7.7-0.4 7.7-0.2 0-0.3-3.5-0.3-7.7 0-4.3 0.1-7.7 0.3-7.7z"/><path fill-rule="evenodd" class="c" d="m198.2 321c0.2 0 0.4 3.4 0.4 7.7 0 4.2-0.2 7.7-0.4 7.7-0.2 0-0.3-3.5-0.3-7.7 0-4.3 0.1-7.7 0.3-7.7z"/><path fill-rule="evenodd" class="c" d="m202.9 321c0.2 0 0.3 3.4 0.3 7.7 0 4.2-0.1 7.7-0.3 7.7-0.2 0-0.4-3.5-0.4-7.7 0-4.3 0.2-7.7 0.4-7.7z"/><path fill-rule="evenodd" class="c" d="m188 321c0.2 0 0.3 3.4 0.3 7.7 0 4.2-0.1 7.7-0.3 7.7-0.2 0-0.4-3.5-0.4-7.7 0-4.3 0.2-7.7 0.4-7.7z"/><path fill-rule="evenodd" class="c" d="m192.6 321c0.2 0 0.4 3.4 0.4 7.7 0 4.2-0.2 7.7-0.4 7.7-0.2 0-0.3-3.5-0.3-7.7 0-4.3 0.1-7.7 0.3-7.7z"/><path fill-rule="evenodd" class="c" d="m177.7 321c0.2 0 0.4 3.4 0.4 7.7 0 4.2-0.2 7.7-0.4 7.7-0.2 0-0.3-3.5-0.3-7.7 0-4.3 0.1-7.7 0.3-7.7z"/><path fill-rule="evenodd" class="c" d="m182.4 321c0.2 0 0.4 3.4 0.4 7.7 0 4.2-0.2 7.7-0.4 7.7-0.2 0-0.4-3.5-0.4-7.7 0-4.3 0.2-7.7 0.4-7.7z"/><path fill-rule="evenodd" class="c" d="m167.5 321c0.2 0 0.4 3.4 0.4 7.7 0 4.2-0.2 7.7-0.4 7.7-0.2 0-0.4-3.5-0.4-7.7 0-4.3 0.2-7.7 0.4-7.7z"/><path fill-rule="evenodd" class="c" d="m172.2 321c0.2 0 0.3 3.4 0.3 7.7 0 4.2-0.1 7.7-0.3 7.7-0.2 0-0.4-3.5-0.4-7.7 0-4.3 0.2-7.7 0.4-7.7z"/><path fill-rule="evenodd" class="c" d="m157.3 321c0.2 0 0.3 3.4 0.3 7.7 0 4.2-0.1 7.7-0.3 7.7-0.2 0-0.4-3.5-0.4-7.7 0-4.3 0.2-7.7 0.4-7.7z"/><path fill-rule="evenodd" class="c" d="m161.9 321c0.2 0 0.4 3.4 0.4 7.7 0 4.2-0.2 7.7-0.4 7.7-0.2 0-0.3-3.5-0.3-7.7 0-4.3 0.1-7.7 0.3-7.7z"/><path class="c" d="m152.1 320.8c0 0.2 19.1 0.3 42.8 0.3 23.6 0 42.8-0.1 42.8-0.3 0-0.2-19.2-0.4-42.8-0.4-23.7 0-42.8 0.2-42.8 0.4z"/><path fill-rule="evenodd" class="a" d="m228.7 336.5v15.4h-85.2v-15.4z"/><path fill-rule="evenodd" class="c" d="m220.4 336.6c0.2 0 0.3 3.5 0.3 7.7 0 4.3-0.1 7.7-0.3 7.7-0.2 0-0.4-3.4-0.4-7.7 0-4.2 0.2-7.7 0.4-7.7z"/><path fill-rule="evenodd" class="c" d="m225 336.6c0.2 0 0.4 3.5 0.4 7.7 0 4.3-0.2 7.7-0.4 7.7-0.2 0-0.3-3.4-0.3-7.7 0-4.2 0.1-7.7 0.3-7.7z"/><path fill-rule="evenodd" class="c" d="m210.1 336.6c0.2 0 0.4 3.5 0.4 7.7 0 4.3-0.2 7.7-0.4 7.7-0.2 0-0.3-3.4-0.3-7.7 0-4.2 0.1-7.7 0.3-7.7z"/><path fill-rule="evenodd" class="c" d="m214.8 336.6c0.2 0 0.4 3.5 0.4 7.7 0 4.3-0.2 7.7-0.4 7.7-0.2 0-0.4-3.4-0.4-7.7 0-4.2 0.2-7.7 0.4-7.7z"/><path fill-rule="evenodd" class="c" d="m199.9 336.6c0.2 0 0.4 3.5 0.4 7.7 0 4.3-0.2 7.7-0.4 7.7-0.2 0-0.3-3.4-0.3-7.7 0-4.2 0.1-7.7 0.3-7.7z"/><path fill-rule="evenodd" class="c" d="m204.6 336.6c0.2 0 0.3 3.5 0.3 7.7 0 4.3-0.1 7.7-0.3 7.7-0.2 0-0.4-3.4-0.4-7.7 0-4.2 0.2-7.7 0.4-7.7z"/><path fill-rule="evenodd" class="c" d="m189.7 336.6c0.2 0 0.4 3.5 0.4 7.7 0 4.3-0.2 7.7-0.4 7.7-0.2 0-0.3-3.4-0.3-7.7 0-4.2 0.1-7.7 0.3-7.7z"/><path fill-rule="evenodd" class="c" d="m194.3 336.6c0.2 0 0.4 3.5 0.4 7.7 0 4.3-0.2 7.7-0.4 7.7-0.2 0-0.3-3.4-0.3-7.7 0-4.2 0.1-7.7 0.3-7.7z"/><path fill-rule="evenodd" class="c" d="m179.4 336.6c0.2 0 0.4 3.5 0.4 7.7 0 4.3-0.2 7.7-0.4 7.7-0.2 0-0.3-3.4-0.3-7.7 0-4.2 0.1-7.7 0.3-7.7z"/><path fill-rule="evenodd" class="c" d="m184.1 336.6c0.2 0 0.4 3.5 0.4 7.7 0 4.3-0.2 7.7-0.4 7.7-0.2 0-0.4-3.4-0.4-7.7 0-4.2 0.2-7.7 0.4-7.7z"/><path fill-rule="evenodd" class="c" d="m169.2 336.6c0.2 0 0.4 3.5 0.4 7.7 0 4.3-0.2 7.7-0.4 7.7-0.2 0-0.4-3.4-0.4-7.7 0-4.2 0.2-7.7 0.4-7.7z"/><path fill-rule="evenodd" class="c" d="m173.9 336.6c0.2 0 0.3 3.5 0.3 7.7 0 4.3-0.1 7.7-0.3 7.7-0.2 0-0.4-3.4-0.4-7.7 0-4.2 0.2-7.7 0.4-7.7z"/><path fill-rule="evenodd" class="c" d="m159 336.6c0.2 0 0.3 3.5 0.3 7.7 0 4.3-0.1 7.7-0.3 7.7-0.2 0-0.4-3.4-0.4-7.7 0-4.2 0.2-7.7 0.4-7.7z"/><path fill-rule="evenodd" class="c" d="m163.6 336.6c0.2 0 0.4 3.5 0.4 7.7 0 4.3-0.2 7.7-0.4 7.7-0.2 0-0.3-3.4-0.3-7.7 0-4.2 0.1-7.7 0.3-7.7z"/><path fill-rule="evenodd" class="c" d="m148.7 336.6c0.2 0 0.4 3.5 0.4 7.7 0 4.3-0.2 7.7-0.4 7.7-0.2 0-0.3-3.4-0.3-7.7 0-4.2 0.1-7.7 0.3-7.7z"/><path fill-rule="evenodd" class="c" d="m153.4 336.6c0.2 0 0.3 3.5 0.3 7.7 0 4.3-0.1 7.7-0.3 7.7-0.2 0-0.4-3.4-0.4-7.7 0-4.2 0.2-7.7 0.4-7.7z"/><path class="c" d="m143.5 336.5c0 0.2 19.2 0.3 42.8 0.3 23.7 0 42.8-0.1 42.8-0.3 0-0.2-19.1-0.4-42.8-0.4-23.6 0-42.8 0.2-42.8 0.4z"/><path fill-rule="evenodd" class="a" d="m234.1 352.1v15.5h-85.2v-15.5z"/><path fill-rule="evenodd" class="c" d="m225.7 352.3c0.2 0 0.4 3.5 0.4 7.7 0 4.3-0.2 7.7-0.4 7.7-0.2 0-0.3-3.4-0.3-7.7 0-4.2 0.1-7.7 0.3-7.7z"/><path fill-rule="evenodd" class="c" d="m230.4 352.3c0.2 0 0.3 3.5 0.3 7.7 0 4.3-0.1 7.7-0.3 7.7-0.2 0-0.4-3.4-0.4-7.7 0-4.2 0.2-7.7 0.4-7.7z"/><path fill-rule="evenodd" class="c" d="m215.5 352.3c0.2 0 0.3 3.5 0.3 7.7 0 4.3-0.1 7.7-0.3 7.7-0.2 0-0.4-3.4-0.4-7.7 0-4.2 0.2-7.7 0.4-7.7z"/><path fill-rule="evenodd" class="c" d="m220.2 352.3c0.1 0 0.3 3.5 0.3 7.7 0 4.3-0.2 7.7-0.3 7.7-0.2 0-0.4-3.4-0.4-7.7 0-4.2 0.2-7.7 0.4-7.7z"/><path fill-rule="evenodd" class="c" d="m205.3 352.3c0.1 0 0.3 3.5 0.3 7.7 0 4.3-0.2 7.7-0.3 7.7-0.2 0-0.4-3.4-0.4-7.7 0-4.2 0.2-7.7 0.4-7.7z"/><path fill-rule="evenodd" class="c" d="m209.9 352.3c0.2 0 0.4 3.5 0.4 7.7 0 4.3-0.2 7.7-0.4 7.7-0.2 0-0.3-3.4-0.3-7.7 0-4.2 0.1-7.7 0.3-7.7z"/><path fill-rule="evenodd" class="c" d="m195 352.3c0.2 0 0.4 3.5 0.4 7.7 0 4.3-0.2 7.7-0.4 7.7-0.2 0-0.3-3.4-0.3-7.7 0-4.2 0.1-7.7 0.3-7.7z"/><path fill-rule="evenodd" class="c" d="m199.7 352.3c0.2 0 0.4 3.5 0.4 7.7 0 4.3-0.2 7.7-0.4 7.7-0.2 0-0.3-3.4-0.3-7.7 0-4.2 0.1-7.7 0.3-7.7z"/><path fill-rule="evenodd" class="c" d="m184.8 352.3c0.2 0 0.3 3.5 0.3 7.7 0 4.3-0.1 7.7-0.3 7.7-0.2 0-0.4-3.4-0.4-7.7 0-4.2 0.2-7.7 0.4-7.7z"/><path fill-rule="evenodd" class="c" d="m189.4 352.3c0.2 0 0.4 3.5 0.4 7.7 0 4.3-0.2 7.7-0.4 7.7-0.2 0-0.3-3.4-0.3-7.7 0-4.2 0.1-7.7 0.3-7.7z"/><path fill-rule="evenodd" class="c" d="m174.5 352.3c0.2 0 0.4 3.5 0.4 7.7 0 4.3-0.2 7.7-0.4 7.7-0.2 0-0.3-3.4-0.3-7.7 0-4.2 0.1-7.7 0.3-7.7z"/><path fill-rule="evenodd" class="c" d="m179.2 352.3c0.2 0 0.4 3.5 0.4 7.7 0 4.3-0.2 7.7-0.4 7.7-0.2 0-0.4-3.4-0.4-7.7 0-4.2 0.2-7.7 0.4-7.7z"/><path fill-rule="evenodd" class="c" d="m164.3 352.3c0.2 0 0.4 3.5 0.4 7.7 0 4.3-0.2 7.7-0.4 7.7-0.2 0-0.3-3.4-0.3-7.7 0-4.2 0.1-7.7 0.3-7.7z"/><path fill-rule="evenodd" class="c" d="m169 352.3c0.2 0 0.3 3.5 0.3 7.7 0 4.3-0.1 7.7-0.3 7.7-0.2 0-0.4-3.4-0.4-7.7 0-4.2 0.2-7.7 0.4-7.7z"/><path fill-rule="evenodd" class="c" d="m154.1 352.3c0.2 0 0.3 3.5 0.3 7.7 0 4.3-0.1 7.7-0.3 7.7-0.2 0-0.4-3.4-0.4-7.7 0-4.2 0.2-7.7 0.4-7.7z"/><path fill-rule="evenodd" class="c" d="m158.7 352.3c0.2 0 0.4 3.5 0.4 7.7 0 4.3-0.2 7.7-0.4 7.7-0.2 0-0.3-3.4-0.3-7.7 0-4.2 0.1-7.7 0.3-7.7z"/><path class="c" d="m148.9 352.1c0 0.2 19.2 0.4 42.9 0.4 23.7 0 42.9-0.2 42.9-0.4 0-0.2-19.2-0.4-42.9-0.4-23.7 0-42.9 0.2-42.9 0.4z"/><path fill-rule="evenodd" class="a" d="m240.7 367.4v15.5h-85.1v-15.4z"/><path fill-rule="evenodd" class="c" d="m232.4 367.6c0.2 0 0.4 3.5 0.4 7.7 0 4.3-0.2 7.7-0.4 7.7-0.2 0-0.4-3.4-0.4-7.7 0-4.2 0.2-7.7 0.4-7.7z"/><path fill-rule="evenodd" class="c" d="m237.1 367.6c0.2 0 0.3 3.5 0.3 7.7 0 4.3-0.1 7.7-0.3 7.7-0.2 0-0.4-3.4-0.4-7.7 0-4.2 0.2-7.7 0.4-7.7z"/><path fill-rule="evenodd" class="c" d="m222.2 367.6c0.2 0 0.3 3.5 0.3 7.7 0 4.3-0.1 7.7-0.3 7.7-0.2 0-0.4-3.4-0.4-7.7 0-4.2 0.2-7.7 0.4-7.7z"/><path fill-rule="evenodd" class="c" d="m226.8 367.6c0.2 0 0.4 3.5 0.4 7.7 0 4.3-0.2 7.7-0.4 7.7-0.2 0-0.3-3.4-0.3-7.7 0-4.2 0.1-7.7 0.3-7.7z"/><path fill-rule="evenodd" class="c" d="m211.9 367.6c0.2 0 0.4 3.5 0.4 7.7 0 4.3-0.2 7.7-0.4 7.7-0.2 0-0.3-3.4-0.3-7.7 0-4.2 0.1-7.7 0.3-7.7z"/><path fill-rule="evenodd" class="c" d="m216.6 367.6c0.2 0 0.3 3.5 0.3 7.7 0 4.3-0.1 7.7-0.3 7.7-0.2 0-0.4-3.4-0.4-7.7 0-4.2 0.2-7.7 0.4-7.7z"/><path fill-rule="evenodd" class="c" d="m201.7 367.6c0.2 0 0.4 3.5 0.4 7.7 0 4.3-0.2 7.7-0.4 7.7-0.2 0-0.3-3.4-0.3-7.7 0-4.2 0.1-7.7 0.3-7.7z"/><path fill-rule="evenodd" class="c" d="m206.4 367.6c0.1 0 0.3 3.5 0.3 7.7 0 4.3-0.2 7.7-0.3 7.7-0.2 0-0.4-3.4-0.4-7.7 0-4.2 0.2-7.7 0.4-7.7z"/><path fill-rule="evenodd" class="c" d="m191.5 367.6c0.2 0 0.3 3.5 0.3 7.7 0 4.3-0.1 7.7-0.3 7.7-0.2 0-0.4-3.4-0.4-7.7 0-4.2 0.2-7.7 0.4-7.7z"/><path fill-rule="evenodd" class="c" d="m196.1 367.6c0.2 0 0.4 3.5 0.4 7.7 0 4.3-0.2 7.7-0.4 7.7-0.2 0-0.3-3.4-0.3-7.7 0-4.2 0.1-7.7 0.3-7.7z"/><path fill-rule="evenodd" class="c" d="m181.2 367.6c0.2 0 0.4 3.5 0.4 7.7 0 4.3-0.2 7.7-0.4 7.7-0.2 0-0.3-3.4-0.3-7.7 0-4.2 0.1-7.7 0.3-7.7z"/><path fill-rule="evenodd" class="c" d="m185.9 367.6c0.2 0 0.3 3.5 0.3 7.7 0 4.3-0.1 7.7-0.3 7.7-0.2 0-0.4-3.4-0.4-7.7 0-4.2 0.2-7.7 0.4-7.7z"/><path fill-rule="evenodd" class="c" d="m171 367.6c0.2 0 0.3 3.5 0.3 7.7 0 4.3-0.1 7.7-0.3 7.7-0.2 0-0.4-3.4-0.4-7.7 0-4.2 0.2-7.7 0.4-7.7z"/><path fill-rule="evenodd" class="c" d="m175.6 367.6c0.2 0 0.4 3.5 0.4 7.7 0 4.3-0.2 7.7-0.4 7.7-0.1 0-0.3-3.4-0.3-7.7 0-4.2 0.2-7.7 0.3-7.7z"/><path fill-rule="evenodd" class="c" d="m160.7 367.6c0.2 0 0.4 3.5 0.4 7.7 0 4.3-0.2 7.7-0.4 7.7-0.2 0-0.3-3.4-0.3-7.7 0-4.2 0.1-7.7 0.3-7.7z"/><path fill-rule="evenodd" class="c" d="m165.4 367.6c0.2 0 0.4 3.5 0.4 7.7 0 4.3-0.2 7.7-0.4 7.7-0.2 0-0.3-3.4-0.3-7.7 0-4.2 0.1-7.7 0.3-7.7z"/><path class="c" d="m155.6 367.4c0 0.3 19.1 0.4 42.7 0.4 23.7 0 42.8-0.2 42.8-0.3 0-0.2-19.1-0.4-42.8-0.4-23.6 0-42.7 0.2-42.7 0.4z"/><path  d="m230.6 305.4c-12.7 3.2-26.3 3.8-39.4 2.9-13-0.9-26.2-2.8-39.3-2.6z"/><path  d="m229.8 290c-12.7 3.1-26.3 3.7-39.3 2.9-13.1-0.9-26.3-2.8-39.4-2.7z"/><path  d="m225.7 320.9c-12.7 3.2-26.3 3.8-39.3 2.9-13.1-0.9-26.3-2.8-39.4-2.6z"/><path  d="m229 336.4c-12.7 3.1-26.2 3.7-39.3 2.8-13.1-0.8-26.3-2.8-39.4-2.6z"/><path  d="m228 351.8c-12.7 3.1-26.3 3.7-39.3 2.8-13.1-0.9-26.3-2.8-39.4-2.6z"/><path  d="m232.2 367.4c-12.7 3.2-26.3 3.8-39.4 2.9-13-0.9-26.2-2.8-39.3-2.6z"/><path fill-rule="evenodd" class="b" d="m230.4 276.2c0.2 0 0.4 1.9 0.4 4.3 0 2.3-0.2 4.2-0.4 4.2-0.2 0-0.3-1.9-0.3-4.2 0-2.4 0.1-4.3 0.3-4.3z"/><path fill-rule="evenodd" class="b" d="m235.8 292.1c0.2 0 0.3 2.1 0.3 4.6 0 2.5-0.1 4.5-0.3 4.5-0.2 0-0.4-2-0.4-4.5 0-2.5 0.2-4.6 0.4-4.6z"/><path fill-rule="evenodd" class="b" d="m228.1 309.1c0.2 0 0.4 1.8 0.4 4 0 2.3-0.2 4-0.4 4-0.2 0-0.3-1.7-0.3-4 0-2.2 0.1-4 0.3-4z"/><path fill-rule="evenodd" class="b" d="m236 324.6c0.2 0 0.3 1.6 0.3 3.6 0 2-0.1 3.6-0.3 3.6-0.2 0-0.4-1.6-0.4-3.6 0-2 0.2-3.6 0.4-3.6z"/><path class="b" d="m204.8 291.1c0 0.2 6.3 0.4 14 0.4 7.7 0 14-0.2 14-0.4 0-0.2-6.3-0.3-14-0.3-7.7 0-14 0.1-14 0.3z"/><path class="b" d="m195.7 276.2c0 0.2 6.4 0.4 14.2 0.4 7.8 0 14.1-0.2 14.1-0.4 0-0.2-6.3-0.3-14.1-0.3-7.8 0-14.2 0.2-14.2 0.3z"/><path class="b" d="m182.1 276.4c0 0.3 2 0.4 4.6 0.4 2.6 0 4.7-0.1 4.7-0.3 0-0.3-2.1-0.4-4.7-0.4-2.5 0-4.6 0.2-4.6 0.4z"/><path class="b" d="m227.5 351.4q0.1-1.5 0.2-3 0.1-1.5 0.1-2.9 0-1.5-0.1-3-0.1-1.5-0.2-3-0.1 1.5-0.2 3 0 1.5 0 3 0 1.4 0 2.9 0.1 1.5 0.2 3z"/><path class="b" d="m162.8 334.6c0 0.2 15.5 0.3 34.6 0.3 19.1 0 34.6-0.1 34.6-0.3 0-0.1-15.5-0.2-34.6-0.2-19.1 0-34.6 0.1-34.6 0.2z"/><path class="b" d="m176.6 365.9c0 0.1 12.3 0.2 27.4 0.2 15.1 0 27.3-0.1 27.3-0.2 0-0.2-12.2-0.3-27.3-0.3-15.1 0-27.4 0.1-27.4 0.3z"/><path class="b" d="m239.6 379.9q0.1-0.8 0.2-1.6 0-0.9 0-1.7 0-0.8 0-1.7-0.1-0.8-0.2-1.6-0.2 0.8-0.2 1.6-0.1 0.9-0.1 1.7 0 0.8 0.1 1.7 0 0.8 0.2 1.6z"/><path class="b" d="m179.3 381.3c0 0.1 12.7 0.2 28.3 0.2 15.7 0 28.4-0.1 28.4-0.2 0-0.2-12.7-0.3-28.4-0.3-15.6 0-28.3 0.1-28.3 0.3z"/><path class="c" d="m240.7 382.9q0 0 0 0 0-0.1 0-0.1 0-0.1 0-0.1 0 0 0-0.1 0-0.3 0-0.8 0-1.1 0.1-3.1c0-2.8 0-6.6 0.1-11.4v-0.2h-0.2-6.1l0.3 0.2c0-4.6 0-9.8 0-15.4v-0.3h-5.9l0.2 0.3c0-5.6 0-10.9 0-15.7l-0.2 0.2h8.2 0.2v-0.2c0-4.7 0-8.5-0.1-11.3q0-1.9 0-3.1v-0.8q0.1 0 0.1-0.1 0-0.1-0.1-0.1-0.1 0-0.1 0.1 0 0.1 0.1 0.1v0.8q0 1.2 0 3.1c0 2.8-0.1 6.6-0.1 11.3l0.2-0.2h-8.2-0.3v0.3c0 4.8 0 10.1 0 15.7v0.2h5.9l-0.2-0.2c0 5.5 0 10.8 0 15.4v0.2h0.1 6.1l-0.2-0.3c0 4.8 0.1 8.7 0.1 11.4q0 2 0 3.2 0 0.4 0 0.8 0 0 0 0 0 0.1 0 0.1 0 0 0 0.1 0 0 0 0z"/><path class="c" d="m189 68.1c-2.8-3.2-9.9-2.9-11.6-0.9q-1-0.5-2-0.5-1-0.1-2 0.2-1 0.3-1.8 0.9-0.9 0.7-1.4 1.6l-7.6 1.5q-0.4 0-0.9 0.1-0.5 0.2-1 0.3-0.4 0.2-0.9 0.4-0.4 0.3-0.8 0.6-0.4 0.2-0.7 0.7-0.2 0.4-0.3 0.9-0.1 0.5-0.1 0.9 0.1 0.5 0.4 1c-2.7 0.6-3.9 4.5-1.9 6.5q-0.4 0.4-0.6 1-0.2 0.5-0.2 1.1 0.1 0.6 0.4 1.1 0.2 0.6 0.7 0.9-0.8 1-1.5 1.9-0.7 1-1.4 2.1-0.6 1-1.2 2.1-0.5 1.1-1 2.2-0.2 0.5-0.3 1-0.2 0.5-0.3 1 0 0.5 0 1 0 0.5 0.2 1c0.4 1.3 2.1 2.2 3.2 1.5q-0.3 0.3-0.5 0.8-0.1 0.5-0.2 0.9 0 0.5 0.1 1 0.1 0.5 0.3 0.9c-1.2 0-1.7 2-0.8 2.9q0.4 0.3 0.8 0.5 0.4 0.3 0.9 0.4 0.4 0.1 0.9 0.2 0.5 0 1 0 0.4-0.1 0.9-0.1 0.5 0.1 1 0.1 0.4 0.1 0.9 0.3 0.4 0.2 0.8 0.4 0 0.1 0 0.2 0 0.1-0.1 0.2 0 0.1-0.1 0.2-0.1 0.1-0.2 0.2-0.8 0.6-1.4 1.4-0.5 0.9-0.7 1.9-0.2 1 0 2 0.2 1 0.8 1.8l0.4 0.6q0.4 0.4 0.8 0.8 0.4 0.4 0.9 0.8 0.4 0.3 0.9 0.6 0.5 0.3 1 0.5c2.9 1.6 4.6 1.4 7.8 1.9-0.9 2.1 4.2 6.8 10.3 2.4q4 1.2 8.1 2.2 4 1 8.2 1.6 4.1 0.7 8.2 1 4.2 0.4 8.4 0.5c1.7 0 3.9-0.2 4.7-1.8q0.5 0.2 1.1 0.1 0.5 0 1.1-0.1 0.5-0.2 1-0.5 0.5-0.3 0.9-0.7 0.3-0.4 0.7-0.8 0.3-0.5 0.6-0.9 0.4-0.5 0.6-1 0.3-0.5 0.5-1 1.2-0.3 2.2-0.9 1-0.6 1.7-1.6 0.8-0.9 1.3-2 0.4-1.1 0.5-2.3 0.8-0.6 1.5-1.3 0.6-0.8 1.1-1.6 0.5-0.9 0.8-1.8 0.3-1 0.4-1.9 1.1-0.4 1.9-1.2 0.9-0.8 1.4-1.8 0.5-1.1 0.5-2.3 0-1.1-0.5-2.2-0.2-1.4-0.5-2.7-0.3-1.4-0.7-2.7-0.5-1.3-1-2.6-0.5-1.3-1.2-2.5c2-0.4 2.9-3.1 2.1-5-0.8-1.9-2.6-3.2-4.3-4.4 1.5 0.5 2.8-1.4 2.5-3-0.3-1.5-1.6-2.6-3-3.4q-0.7-0.5-1.5-0.9-0.7-0.4-1.5-0.8-0.8-0.4-1.6-0.7-0.8-0.3-1.6-0.6c-0.6-2.7-4-5.8-6.4-7-10-5-17-6.4-30 2.7"/><path class="d" d="m179.1 83.9q0-0.8 0.3-1.5 0.2-0.8 0.7-1.3 0.5-0.6 1.1-1 0.7-0.4 1.5-0.5l21.5-6.1c6.9-0.9 11.8 7.5 12.4 14.5 0.7 7.7 1.3 17.1 0.5 23q-0.2 2.4-1.2 4.6-0.9 2.2-2.5 4-1.6 1.8-3.7 3-2.1 1.2-4.5 1.7c-1.5 0.3 0.2 8.4 0.2 8.4l-4.5 20.3c-3.3-0.5-19.8-21.2-19.8-21.2z"/><path class="c" d="m205.1 105.4q0.3-0.1 0.6-0.2 0.4-0.1 0.7-0.2 0.3 0 0.6-0.1 0.4 0 0.7 0c0.4-0.1 0.8-0.2 0.8-0.5q0.1-0.1 0-0.3 0-0.1 0-0.3-0.1-0.1-0.1-0.3-0.1-0.1-0.2-0.3c-0.4-1-0.8-2-1.3-3-1.8-4.4-3.1-8.1-3-8.1 0.2-0.1 1.8 3.4 3.6 7.8q0.7 1.6 1.3 3.1 0.1 0.2 0.1 0.4 0.1 0.2 0.1 0.4 0.1 0.2 0.1 0.4 0 0.2-0.1 0.4 0 0.1-0.1 0.2 0 0.1-0.1 0.2-0.1 0.1-0.2 0.1-0.1 0.1-0.2 0.1-0.1 0-0.2 0.1-0.1 0-0.2 0 0 0-0.1 0-0.1 0-0.2 0-0.3 0.1-0.7 0.1-0.3 0-0.6 0-0.3 0.1-0.6 0-0.4 0-0.7 0z"/><path class="e" d="m205.2 124.2c0 0-6.2 0.8-14.1-3.6 0 0 2.1 8.6 14.2 7.6z"/><path class="c" d="m199.9 87.4c-0.2 0.5-1.8 0.3-3.6 0.6-1.9 0.3-3.4 0.8-3.7 0.5-0.1-0.2 0.2-0.6 0.8-1q0.6-0.4 1.2-0.7 0.7-0.3 1.4-0.4 0.8-0.1 1.5 0 0.7 0.1 1.4 0.3c0.7 0.2 1 0.5 1 0.7z"/><path class="c" d="m214 87.4c-0.3 0.4-1.4 0-2.7 0.1-1.4 0-2.5 0.3-2.8-0.1-0.1-0.2 0-0.5 0.6-0.9q0.5-0.3 1-0.5 0.6-0.1 1.2-0.1 0.5 0 1.1 0.1 0.6 0.2 1 0.5c0.5 0.4 0.7 0.8 0.6 0.9z"/><path class="c" d="m221.7 93.6q0-0.7-0.1-1.3-0.1-0.7-0.4-1.3-0.2-0.7-0.6-1.3-0.3-0.6-0.7-1.1c-0.7-0.7-1.6-1.3-2.1-2.1-1.3-1.7-1.1-4.1-1.6-6.2q-0.3-1-0.8-1.9-0.5-1-1.2-1.7-0.7-0.8-1.5-1.4-0.9-0.6-1.9-1c-2.1-0.8-4.6-0.8-6.6-1.9-1.5-0.8-2.6-2.2-4.2-3-3-1.4-6.5 0.1-9.4 1.7-0.6 2.3 0.8 4.3 2.1 6.2q0.6 0.7 1.2 1.3 0.7 0.6 1.4 1 0.8 0.5 1.6 0.7 0.9 0.3 1.8 0.4c1.8 0.1 3.9-0.3 5.2 1 1.2 1.4 0.7 3.8 1.8 5.4 1.5 2.2 5.1 1.4 7.5 2.9 1.8 1.1 2.5 3.2 3.4 5.2 0.9 1.9 2.4 3.9 4.5 3.8q0.2-0.7 0.3-1.3 0.1-0.7 0.2-1.4 0-0.6 0.1-1.3 0-0.7 0-1.4z"/><path class="c" d="m195.1 75.4q-2-0.1-4 0-2 0.2-4 0.5-1.9 0.3-3.8 0.8-2 0.5-3.8 1.2-0.6 0.2-1.1 0.4-0.6 0.3-1.1 0.6-0.5 0.3-0.9 0.7-0.4 0.4-0.8 0.9-0.2 0.5-0.4 1-0.2 0.4-0.3 0.9-0.1 0.6-0.2 1.1 0 0.5 0 1c0 4.4 1.7 9.7 3.3 13.8l5.3 3.3c4.2-0.9 2.4-8.2 2.3-11.8q1.1-0.5 2-1.2 0.9-0.8 1.6-1.8 0.7-1 1.1-2.1 0.4-1.2 0.4-2.4 0.9-0.5 1.7-1.3 0.7-0.7 1.3-1.6 0.5-0.9 0.9-2 0.3-1 0.5-2z"/><path class="d" d="m183.3 100c-0.1-2.5-3.2-3-5.3-1.8-1.2 0.7-2.1 2.1-2 4.7 0.3 7 7.3 5.3 7.3 5.1 0-0.2 0.1-5 0-8z"/><path class="e" d="m181 105.5c0 0-0.1 0.1-0.3 0.2q-0.1 0-0.2 0-0.1 0.1-0.2 0.1-0.2 0-0.3-0.1-0.1 0-0.2 0-0.4-0.2-0.6-0.5-0.3-0.3-0.5-0.6-0.2-0.4-0.3-0.8-0.1-0.4-0.1-0.8 0-0.2 0-0.4 0-0.3 0-0.5 0-0.2 0.1-0.4 0.1-0.2 0.1-0.5 0.1-0.1 0.2-0.3 0-0.1 0.2-0.3 0.1-0.1 0.2-0.2 0.2-0.1 0.3-0.2 0.1 0 0.2 0 0.2 0 0.3 0.1 0.1 0 0.1 0.1 0.1 0.1 0.2 0.1c0.1 0.2 0 0.4 0.1 0.4 0 0 0.1-0.1 0-0.4q0-0.1 0-0.1 0-0.1-0.1-0.2 0 0 0-0.1-0.1 0-0.1 0-0.1-0.1-0.2-0.1-0.1-0.1-0.2-0.1-0.1 0-0.2 0 0 0-0.1 0-0.2 0.1-0.4 0.2-0.2 0.1-0.4 0.2-0.2 0.2-0.3 0.4-0.1 0.1-0.2 0.3-0.1 0.3-0.1 0.5-0.1 0.3-0.2 0.5 0 0.3 0 0.5 0 0.3 0 0.5c0.1 1.5 0.9 2.8 1.9 3q0.1 0.1 0.3 0.1 0.1 0 0.3 0 0.1-0.1 0.3-0.1 0.1-0.1 0.2-0.2c0.2-0.1 0.3-0.3 0.2-0.3z"/><path class="f" d="m180.2 108.4v0.1q0 0.1 0 0.1 0 0 0 0.1 0 0-0.1 0 0 0.1 0 0.1-0.1 0.1-0.1 0.2-0.1 0.1-0.2 0.2-0.1 0.1-0.3 0.2-0.1 0-0.2 0.1-0.2 0.1-0.4 0.2-0.2 0-0.5 0.1-0.2 0-0.4 0-0.2 0-0.5 0-0.1 0-0.2 0-0.2 0-0.3 0-0.2 0-0.3 0-0.2 0-0.3 0-0.2-0.1-0.3-0.1-0.2-0.1-0.3-0.1-0.2 0-0.3-0.1-0.2-0.1-0.3-0.1h0.1q-0.2 0.9-0.8 1.6-0.6 0.7-1.4 1-0.9 0.3-1.8 0.2-0.9-0.1-1.6-0.7h0.1q-0.1 0.1-0.2 0.2-0.1 0.1-0.2 0.2-0.1 0.1-0.3 0.1-0.1 0.1-0.3 0.1-0.1 0-0.2 0-0.2 0-0.3 0-0.2 0-0.3 0-0.2-0.1-0.3-0.1-0.1-0.1-0.3-0.2-0.1 0-0.2-0.1-0.1-0.1-0.2-0.2-0.1-0.2-0.2-0.3-0.1-0.1-0.1-0.3-0.1-0.1-0.1-0.2-0.1-0.2-0.1-0.3 0-0.2 0-0.3 0-0.4 0-0.7 0.1-0.3 0.2-0.6 0.1-0.3 0.2-0.6 0.2-0.2 0.4-0.5 0.2-0.2 0.4-0.5 0.2-0.2 0.5-0.4 0.2-0.3 0.4-0.5 0.3-0.2 0.6-0.4v0.2q-0.3-0.1-0.4-0.3-0.2-0.2-0.4-0.4-0.1-0.2-0.2-0.5-0.1-0.2-0.1-0.5-0.1-0.2-0.1-0.5 0-0.3 0-0.5 0.1-0.3 0.1-0.6 0.1-0.2 0.2-0.4 0.1-0.3 0.2-0.5 0.2-0.3 0.3-0.5 0.2-0.2 0.4-0.4 0.2-0.2 0.4-0.4 0.2-0.2 0.4-0.4 0.2-0.1 0.4-0.3 0.2-0.2 0.4-0.3 0.2-0.2 0.4-0.4v0.2q-0.1-0.2-0.3-0.5-0.1-0.2-0.2-0.5-0.1-0.2-0.1-0.5 0-0.3 0-0.6 0-0.3 0.1-0.5 0-0.3 0.1-0.6 0.2-0.2 0.3-0.5 0.1-0.2 0.3-0.4 0.4-0.4 0.8-0.8 0.4-0.3 0.8-0.6 0.5-0.3 0.9-0.5 0.5-0.3 1-0.5l-0.1 0.1c-0.1-0.7-0.1-1.5 0.1-2.2 0.2-0.7 0.5-1.4 1-2 0.5-0.5 1.2-0.9 1.9-1.2 0.7-0.3 1.4-0.3 2.2-0.2l-0.1 0.1q-0.1-0.9 0.1-1.8 0.2-0.8 0.8-1.5 0.6-0.7 1.4-1.1 0.8-0.4 1.7-0.5l-0.1 0.1q0-0.4 0.1-0.8 0.2-0.5 0.4-0.9 0.2-0.3 0.5-0.7 0.3-0.3 0.6-0.6 0.4-0.2 0.7-0.4 0.4-0.2 0.7-0.3 0.4-0.1 0.8-0.1 0.4 0 0.8 0.1h-0.1q0-0.2 0.1-0.4 0-0.3 0.1-0.5 0.1-0.2 0.2-0.4 0.1-0.3 0.2-0.5 0.1-0.1 0.2-0.3 0.2-0.2 0.3-0.3 0.1-0.2 0.3-0.4 0.1-0.1 0.3-0.2 0.3-0.3 0.5-0.4 0.3-0.2 0.6-0.3 0.3-0.2 0.7-0.2 0.3-0.1 0.6-0.1h0.3 0.2q0.1 0 0.2 0 0 0 0.1 0 0 0 0.1 0 0 0 0.1 0 0.1 0 0.2 0.1 0 0 0.1 0 0.1 0 0.2 0.1 0.1 0 0.2 0l0.3 0.2 0.2 0.1-0.2-0.1-0.4-0.2c-0.1 0-0.4-0.1-0.6-0.1q-0.1 0-0.1 0-0.1 0-0.1 0-0.1 0-0.2 0 0 0-0.1 0h-0.2-0.3q-0.3 0-0.6 0.1-0.3 0-0.6 0.2-0.3 0.1-0.6 0.3-0.3 0.2-0.5 0.4-0.2 0.1-0.3 0.3-0.2 0.1-0.3 0.3-0.1 0.1-0.3 0.3-0.1 0.2-0.2 0.3-0.1 0.2-0.2 0.4-0.1 0.2-0.2 0.5 0 0.2-0.1 0.4 0 0.2 0 0.5v-0.1h-0.1q-0.4-0.1-0.8 0-0.4 0-0.7 0.1-0.4 0.1-0.7 0.3-0.4 0.1-0.7 0.4-0.3 0.2-0.6 0.5-0.3 0.4-0.5 0.7-0.2 0.4-0.3 0.8-0.1 0.4-0.1 0.9v0.1h-0.1q-0.4 0-0.8 0.1-0.4 0.1-0.8 0.2-0.4 0.2-0.7 0.5-0.3 0.2-0.6 0.5-0.3 0.3-0.5 0.7-0.2 0.4-0.3 0.8-0.1 0.5-0.2 0.9 0 0.4 0.1 0.9v0.1h-0.1q-1.1-0.1-2.2 0.2-1 0.4-1.7 1.2-0.8 0.8-1.1 1.9-0.2 1.1 0 2.1v0.1h-0.1q-0.4 0.2-0.9 0.4-0.5 0.3-0.9 0.6-0.4 0.3-0.8 0.6-0.4 0.3-0.8 0.7-0.1 0.2-0.3 0.4-0.1 0.3-0.2 0.5-0.1 0.3-0.2 0.6 0 0.2 0 0.5-0.1 0.3 0 0.5 0 0.3 0.1 0.5 0 0.3 0.2 0.5 0.1 0.2 0.3 0.4v0.1q-0.5 0.3-0.9 0.7-0.4 0.3-0.8 0.7-0.3 0.3-0.7 0.8-0.3 0.4-0.5 0.8-0.1 0.3-0.2 0.5-0.1 0.3-0.1 0.5 0 0.3 0 0.5 0 0.3 0 0.5 0.1 0.2 0.2 0.5 0.1 0.2 0.2 0.4 0.1 0.2 0.3 0.4 0.1 0.1 0.3 0.3h0.2l-0.1 0.1q-0.3 0.2-0.5 0.4-0.3 0.2-0.5 0.4-0.3 0.3-0.5 0.5-0.2 0.2-0.4 0.5-0.2 0.2-0.3 0.5-0.2 0.2-0.3 0.5-0.1 0.3-0.1 0.6-0.1 0.3-0.1 0.6 0 0.2 0.1 0.5 0.1 0.3 0.2 0.5 0.2 0.3 0.4 0.4 0.2 0.2 0.5 0.3 0.2 0.2 0.5 0.2 0.2 0 0.5 0 0.2-0.1 0.4-0.2 0.3-0.2 0.4-0.4l0.1-0.1v0.1q0.4 0.3 0.9 0.5 0.4 0.1 0.9 0.2 0.4 0 0.9 0 0.5-0.1 0.9-0.3 0.3-0.2 0.6-0.4 0.4-0.3 0.6-0.6 0.2-0.3 0.4-0.7 0.2-0.3 0.2-0.7v-0.1h0.1q0.1 0.1 0.3 0.1 0.1 0.1 0.3 0.1 0.1 0.1 0.3 0.1 0.1 0.1 0.3 0.1 0.1 0 0.3 0 0.1 0.1 0.2 0.1 0.2 0 0.3 0 0.2 0 0.3 0 0.2 0 0.4 0 0.3 0 0.5-0.1 0.2 0 0.4-0.1 0.2 0 0.4-0.1 0.2 0 0.3-0.1 0.1-0.1 0.2-0.2 0.1-0.1 0.2-0.2 0.1-0.1 0.2-0.2c0.1-0.1 0.1-0.3 0.1-0.3z"/><path class="f" d="m153.5 100.5q0-0.1-0.1-0.1 0-0.1 0-0.1-0.1-0.1-0.1-0.2 0 0 0-0.1-0.1-0.1-0.2-0.3 0-0.2-0.1-0.4 0-0.1-0.1-0.3 0-0.2 0-0.4 0-0.3 0-0.6 0.1-0.2 0.1-0.5 0.1-0.3 0.2-0.6 0.2-0.2 0.3-0.5 0.2-0.3 0.5-0.6 0.3-0.2 0.6-0.4 0.4-0.2 0.7-0.4 0.4-0.1 0.8-0.2l-0.1 0.1q-0.1-0.7 0-1.4 0.1-0.7 0.4-1.3 0.2-0.7 0.7-1.2 0.4-0.6 1-1 0.3-0.1 0.5-0.2 0.2-0.1 0.5-0.3 0.2-0.1 0.5-0.2 0.2-0.1 0.5-0.1 0.1-0.1 0.2-0.2 0.1 0 0.3-0.1 0.1 0 0.2-0.1 0.1-0.1 0.2-0.2 0.1-0.1 0.2-0.2 0.1-0.1 0.2-0.2 0.1-0.1 0.1-0.2 0.1-0.1 0.2-0.2c0.3-0.7 0.4-1.5 0.8-2.2q0.3-0.6 0.8-1 0.5-0.4 1.1-0.7 0.5-0.3 1.2-0.4 0.6-0.1 1.2 0l-0.1 0.1c-0.1-0.8 0-1.7 0.3-2.5 0.2-0.8 0.7-1.6 1.3-2.2 0.6-0.6 1.4-1 2.2-1.3 0.8-0.3 1.7-0.4 2.5-0.3l-0.1 0.2c0-1 0.2-1.9 0.6-2.7 0.5-0.8 1.1-1.5 1.9-2 0.8-0.5 1.8-0.7 2.7-0.7 0.9 0.1 1.8 0.4 2.6 0.9h-0.1q0.3-0.2 0.6-0.5 0.3-0.2 0.6-0.4 0.3-0.1 0.6-0.3 0.3-0.1 0.7-0.3 0.3-0.1 0.6-0.2 0.3 0 0.6-0.1 0.4-0.1 0.7-0.1 0.3-0.1 0.6-0.1 0.5 0 1.1 0 0.5-0.1 1 0 0.5 0 1.1 0.1 0.5 0.1 1 0.3 0.3 0 0.6 0.1 0.4 0.2 0.7 0.3 0.3 0.1 0.6 0.3 0.3 0.1 0.5 0.3 0.1 0.1 0.2 0.1 0.1 0.1 0.1 0.1 0.1 0.1 0.2 0.1 0 0.1 0.1 0.1l0.2 0.2c0 0-0.3-0.2-0.8-0.5q-0.3-0.2-0.6-0.3-0.3-0.2-0.6-0.3-0.3-0.1-0.6-0.3-0.3-0.1-0.6-0.1-0.5-0.2-1.1-0.2-0.5-0.1-1-0.2-0.5 0-1 0-0.5 0-1.1 0.1-0.3 0-0.6 0-0.3 0.1-0.6 0.2-0.3 0-0.7 0.1-0.3 0.1-0.6 0.2-0.3 0.1-0.6 0.3-0.3 0.1-0.6 0.3-0.4 0.2-0.6 0.4-0.3 0.2-0.6 0.4v0.1c-0.8-0.6-1.7-0.9-2.6-0.9-0.9 0-1.8 0.2-2.6 0.6-0.7 0.5-1.4 1.2-1.8 2-0.4 0.8-0.6 1.7-0.5 2.6v0.1h-0.2q-0.6-0.1-1.2 0-0.6 0.1-1.2 0.3-0.6 0.2-1.2 0.5-0.5 0.4-1 0.8-0.4 0.5-0.7 1-0.3 0.5-0.5 1.1-0.2 0.6-0.3 1.2 0 0.6 0 1.2v0.1h-0.1q-0.6-0.1-1.2 0-0.6 0.1-1.2 0.4-0.5 0.3-1 0.7-0.4 0.4-0.7 0.9c-0.4 0.7-0.5 1.5-0.9 2.2q0 0.1-0.1 0.2-0.1 0.2-0.2 0.3-0.1 0.1-0.2 0.2-0.1 0.1-0.2 0.2-0.1 0.1-0.2 0.2-0.1 0.1-0.3 0.1-0.1 0.1-0.2 0.1-0.1 0.1-0.3 0.2-0.2 0-0.5 0.1-0.2 0.1-0.5 0.2-0.2 0.2-0.4 0.3-0.3 0.1-0.5 0.2-0.2 0.2-0.4 0.3-0.2 0.2-0.3 0.3-0.2 0.2-0.4 0.4-0.1 0.2-0.3 0.4-0.2 0.4-0.4 0.8-0.1 0.4-0.2 0.8-0.1 0.4-0.1 0.9 0 0.4 0.1 0.8h-0.1q-0.4 0-0.7 0.2-0.4 0.1-0.7 0.3-0.3 0.2-0.6 0.4-0.3 0.3-0.5 0.6-0.2 0.2-0.3 0.5-0.1 0.2-0.2 0.5-0.1 0.3-0.1 0.6-0.1 0.2 0 0.5 0 0.2 0 0.4 0 0.2 0 0.3 0.1 0.2 0.1 0.4 0.1 0.2 0.2 0.3 0.2 0.5 0.2 0.5z"/><path class="f" d="m220.8 103.5q0-0.1-0.1-0.2 0 0 0-0.1 0-0.1 0-0.2 0.1 0 0.1-0.1 0-0.1 0.1-0.2 0 0 0.1-0.1 0-0.1 0.1-0.1 0-0.1 0.1-0.2 0.1 0 0.2-0.1 0.1-0.1 0.2-0.1 0.1-0.1 0.3-0.1 0.1-0.1 0.2-0.1 0.1 0 0.3-0.1 0.1 0 0.3-0.1 0.1 0 0.2-0.1 0.2-0.1 0.3-0.1 0.1-0.1 0.3-0.3 0.1-0.1 0.2-0.2 0.1-0.2 0.2-0.3 0.1-0.2 0.1-0.4 0.1-0.1 0.1-0.3 0.1-0.2 0.1-0.4 0-0.2 0-0.5 0-0.2 0-0.4c0-0.5-0.1-1.2-0.1-1.8q0.1-0.5 0.2-1.1 0.1-0.5 0.2-1 0.1-0.5 0.3-1 0.1-0.6 0.3-1.1 0.1-0.2 0.1-0.5 0.1-0.3 0.1-0.6 0-0.3 0-0.6 0-0.3 0-0.6-0.1-0.3-0.2-0.6-0.1-0.2-0.2-0.5-0.2-0.3-0.4-0.5-0.2-0.2-0.5-0.4-0.3-0.1-0.6-0.2-0.3-0.2-0.6-0.3-0.3-0.1-0.6-0.2-0.3-0.1-0.6-0.2-0.2 0-0.4-0.1-0.1 0-0.3-0.1-0.2-0.1-0.3-0.2-0.2-0.1-0.3-0.2-0.1-0.1-0.3-0.2-0.1-0.1-0.2-0.3-0.1-0.1-0.2-0.3-0.1-0.1-0.2-0.3-0.1-0.3-0.2-0.7-0.1-0.3-0.2-0.7-0.1-0.3-0.2-0.7 0-0.3-0.1-0.7 0-0.2-0.1-0.3 0-0.2-0.1-0.4 0-0.2-0.1-0.3-0.1-0.2-0.2-0.3 0-0.2-0.1-0.3-0.2-0.2-0.3-0.3-0.1-0.1-0.3-0.2-0.1-0.1-0.3-0.2-0.2 0-0.4-0.1-0.3 0-0.5-0.1-0.3 0-0.5 0-0.2-0.1-0.5-0.1-0.1 0-0.3 0-0.1 0-0.2-0.1-0.1 0-0.3 0-0.1-0.1-0.2-0.1-0.1-0.1-0.2-0.2-0.1 0-0.2-0.1-0.1-0.1-0.2-0.2-0.1-0.1-0.2-0.2-0.1-0.2-0.2-0.4-0.1-0.3-0.2-0.5-0.1-0.2-0.1-0.4-0.1-0.3-0.2-0.5 0-0.2-0.1-0.4-0.1-0.3-0.2-0.5-0.1-0.2-0.2-0.3-0.2-0.2-0.3-0.4-0.3-0.3-0.6-0.6-0.4-0.3-0.8-0.5-0.4-0.2-0.8-0.3-0.4-0.1-0.8-0.1-0.4 0-0.8 0-0.4 0.1-0.8 0.2-0.4 0.1-0.8 0.3-0.3 0.2-0.6 0.5l-0.1 0.1-0.1-0.2q-0.3-0.6-0.7-1.2-0.4-0.6-0.9-1-0.6-0.5-1.2-0.9-0.6-0.3-1.3-0.5-0.3-0.1-0.6-0.2-0.3 0-0.6-0.1-0.3 0-0.5 0-0.3 0-0.6 0-0.3 0-0.5 0.1-0.3 0-0.5 0.1-0.3 0.1-0.5 0.1-0.3 0.1-0.5 0.2-0.3 0.2-0.6 0.4-0.3 0.2-0.6 0.4-0.2 0.2-0.5 0.5-0.2 0.3-0.4 0.6 0 0.1-0.1 0.1 0 0.1-0.1 0.2 0 0.1-0.1 0.2 0 0.1 0 0.1l-0.1 0.2v0.1q0 0 0 0 0-0.1 0-0.1 0 0 0 0 0 0 0 0l0.1-0.2q0-0.1 0-0.1 0.1-0.1 0.1-0.2 0.1-0.1 0.1-0.2 0.1-0.1 0.1-0.2 0.2-0.3 0.4-0.5 0.2-0.3 0.5-0.6 0.3-0.2 0.6-0.4 0.3-0.2 0.6-0.4 0.2-0.1 0.5-0.2 0.2-0.1 0.5-0.1 0.2-0.1 0.5-0.1 0.2-0.1 0.5-0.1 0.3 0 0.6 0 0.3 0 0.6 0 0.3 0 0.6 0.1 0.3 0 0.6 0.1 0.7 0.2 1.3 0.6 0.7 0.4 1.2 0.8 0.6 0.5 1 1.1 0.4 0.6 0.7 1.3h-0.1q0.3-0.3 0.7-0.5 0.4-0.2 0.8-0.4 0.4-0.1 0.8-0.2 0.4 0 0.8 0 0.5 0 0.9 0.1 0.5 0.1 0.9 0.3 0.4 0.2 0.8 0.5 0.3 0.3 0.6 0.7 0.2 0.1 0.3 0.3 0.1 0.2 0.3 0.4 0.1 0.3 0.2 0.5 0.1 0.2 0.1 0.4 0.1 0.3 0.1 0.5 0.1 0.2 0.2 0.4 0.1 0.2 0.2 0.5 0.1 0.2 0.2 0.4 0.1 0.2 0.3 0.3 0.2 0.2 0.4 0.3 0.2 0.1 0.4 0.2 0.3 0 0.5 0 0.3 0 0.5 0.1 0.3 0 0.5 0 0.3 0.1 0.5 0.1 0.3 0.1 0.5 0.1 0.2 0.1 0.3 0.2 0.2 0.1 0.3 0.2 0.2 0.2 0.3 0.3 0.1 0.2 0.2 0.3 0.1 0.2 0.2 0.4 0.1 0.1 0.1 0.3 0.1 0.2 0.1 0.4 0.1 0.2 0.1 0.3 0.1 0.4 0.1 0.7 0.1 0.4 0.2 0.7 0.1 0.4 0.2 0.7 0.1 0.4 0.2 0.7 0.1 0.1 0.1 0.3 0.1 0.1 0.2 0.3 0.1 0.1 0.2 0.2 0.2 0.1 0.3 0.2 0.1 0.1 0.3 0.2 0.1 0.1 0.3 0.2 0.1 0 0.3 0.1 0.1 0.1 0.3 0.1 0.3 0.1 0.6 0.2 0.3 0.1 0.7 0.2 0.3 0.1 0.6 0.2 0.3 0.2 0.6 0.3 0.1 0.1 0.2 0.2 0.2 0.1 0.3 0.2 0.1 0.2 0.2 0.3 0.1 0.1 0.2 0.3 0.1 0.1 0.1 0.2 0.1 0.2 0.1 0.3 0.1 0.2 0.1 0.3 0.1 0.2 0.1 0.4 0 0.3 0 0.6 0.1 0.3 0 0.6 0 0.3 0 0.6-0.1 0.2-0.1 0.5-0.2 0.5-0.4 1-0.1 0.6-0.3 1.1-0.1 0.5-0.2 1-0.1 0.5-0.1 1c0 0.7 0 1.3 0 1.9q0 0.2 0 0.4 0 0.2 0 0.4 0 0.2-0.1 0.4 0 0.3-0.1 0.4-0.1 0.2-0.1 0.4-0.1 0.2-0.2 0.3-0.1 0.1-0.3 0.3-0.1 0.1-0.3 0.2-0.1 0.1-0.2 0.1-0.2 0.1-0.3 0.2-0.2 0-0.3 0.1-0.2 0-0.3 0-0.1 0.1-0.2 0.1-0.1 0.1-0.3 0.1-0.1 0-0.2 0.1-0.1 0.1-0.2 0.1 0 0.1-0.1 0.2-0.1 0-0.1 0.1-0.1 0.1-0.1 0.1 0 0.1-0.1 0.2 0 0-0.1 0.1 0 0.1 0 0.2 0 0 0 0.1 0 0.1 0 0.2z"/><path class="f" d="m234.6 92.8c0 0 0 0 0-0.1l-0.2-0.4q-0.3-0.6-0.7-1.6c-0.3-0.6-0.7-1.5-1.2-2.4q-0.2-0.4-0.4-0.7-0.3-0.4-0.5-0.7-0.3-0.3-0.7-0.6-0.3-0.3-0.7-0.5c-0.6-0.3-1.2-0.6-1.9-0.9q-0.1 0-0.2-0.1-0.2-0.1-0.3-0.1-0.1-0.1-0.2-0.2-0.1-0.1-0.3-0.2-0.1 0-0.2-0.1-0.1-0.2-0.2-0.3-0.1-0.1-0.1-0.2-0.1-0.1-0.2-0.3c-0.3-0.7-0.3-1.5-0.5-2.3q-0.1-0.1-0.1-0.3-0.1-0.1-0.2-0.2-0.1-0.2-0.2-0.3-0.1-0.1-0.2-0.2-0.1-0.1-0.3-0.2-0.1 0-0.2-0.1-0.2-0.1-0.3-0.1-0.2-0.1-0.3-0.1-0.2-0.1-0.3-0.1-0.2-0.1-0.4-0.2-0.1 0-0.3-0.1-0.1-0.1-0.3-0.1-0.1-0.1-0.3-0.2-0.1-0.1-0.2-0.3-0.2-0.1-0.3-0.2-0.1-0.2-0.2-0.3-0.1-0.4-0.2-0.7-0.1-0.3-0.1-0.7-0.1-0.3-0.1-0.7-0.1-0.3-0.1-0.7 0-0.2-0.1-0.3 0-0.2-0.1-0.4 0-0.1-0.1-0.3-0.1-0.1-0.2-0.3-0.1-0.1-0.2-0.2-0.1-0.2-0.2-0.3-0.2-0.1-0.3-0.1-0.2-0.1-0.4-0.1c-0.9-0.2-1.9 0.1-3-0.1q-0.2 0-0.3-0.1-0.2-0.1-0.4-0.2-0.2-0.1-0.3-0.2-0.2-0.1-0.3-0.3-0.1-0.1-0.2-0.2-0.2-0.2-0.3-0.3-0.1-0.2-0.2-0.4-0.1-0.1-0.2-0.3c-0.2-0.4-0.4-0.8-0.7-1.2q-0.1-0.1-0.2-0.3-0.1-0.1-0.3-0.2-0.1-0.1-0.2-0.2-0.2-0.1-0.3-0.2-0.3-0.1-0.7-0.2-0.3 0-0.6 0-0.4 0-0.7 0-0.3 0.1-0.7 0.2-0.3 0.1-0.6 0.1-0.4 0.1-0.7 0.1-0.3 0.1-0.7 0-0.3 0-0.6 0-0.4-0.1-0.7-0.2-0.3-0.1-0.5-0.3-0.3-0.1-0.6-0.3-0.3-0.1-0.6-0.3-0.2-0.2-0.4-0.4-0.3-0.1-0.5-0.3-0.3-0.1-0.5-0.2-0.3-0.2-0.6-0.3-0.5-0.2-1-0.3-0.5-0.1-1-0.1-0.6 0-1.1 0-0.5 0.1-1 0.2-0.5 0.1-0.9 0.2-0.4 0.2-0.8 0.4-0.4 0.2-0.7 0.4-0.4 0.3-0.7 0.5-0.3 0.3-0.5 0.5-0.3 0.2-0.5 0.5-0.2 0.2-0.4 0.5-0.2 0.3-0.4 0.5-0.1 0.2-0.2 0.4-0.1 0.2-0.2 0.4-0.1 0.2-0.2 0.4-0.1 0.1-0.1 0.3-0.2 0.3-0.2 0.4c-0.1 0.2-0.1 0.2-0.1 0.2l0.1-0.2 0.1-0.4q0.1-0.2 0.2-0.4 0-0.2 0.1-0.4 0.1-0.1 0.2-0.3 0.1-0.2 0.2-0.4 0.2-0.3 0.4-0.5 0.2-0.3 0.4-0.6 0.2-0.2 0.5-0.5 0.2-0.2 0.5-0.4 0.3-0.3 0.7-0.5 0.4-0.3 0.8-0.5 0.4-0.2 0.8-0.3 0.4-0.2 0.8-0.3 0.6-0.1 1.1-0.2 0.5 0 1.1 0 0.5 0 1.1 0.1 0.5 0.1 1 0.3 0.3 0.1 0.5 0.2 0.3 0.2 0.6 0.3 0.2 0.2 0.5 0.3 0.2 0.2 0.5 0.4 0.3 0.2 0.5 0.3 0.3 0.2 0.6 0.3 0.3 0.1 0.6 0.2 0.2 0.2 0.5 0.2 0.4 0.1 0.7 0.1 0.3 0 0.7 0 0.3 0 0.6-0.1 0.3-0.1 0.6-0.2 0.2 0 0.4 0 0.1-0.1 0.3-0.1 0.2 0 0.4 0 0.1-0.1 0.3-0.1 0.2 0 0.4 0 0.2 0 0.3 0.1 0.2 0 0.4 0 0.2 0.1 0.3 0.2 0.2 0.1 0.3 0.2 0.2 0.1 0.3 0.2 0.2 0.1 0.3 0.3 0.1 0.1 0.2 0.3 0.1 0.1 0.2 0.3 0.1 0.1 0.2 0.3 0.1 0.2 0.2 0.3 0.1 0.2 0.2 0.3 0.1 0.2 0.2 0.3 0.1 0.2 0.2 0.3 0.1 0.2 0.2 0.3 0.1 0.2 0.2 0.3 0.1 0.1 0.3 0.3 0.1 0.1 0.3 0.1 0.1 0.1 0.3 0.2 0.2 0.1 0.3 0.1c1 0.2 2-0.1 3 0.1q0.2 0 0.4 0.1 0.2 0.1 0.3 0.2 0.2 0.1 0.3 0.2 0.2 0.2 0.3 0.3 0.1 0.2 0.2 0.3 0 0.2 0.1 0.4 0.1 0.2 0.1 0.3 0 0.2 0.1 0.4 0 0.3 0 0.7 0.1 0.3 0.1 0.7 0.1 0.3 0.2 0.6 0.1 0.4 0.2 0.7 0.1 0.1 0.2 0.3 0 0.1 0.2 0.2 0.1 0.1 0.2 0.2 0.1 0.1 0.3 0.2 0.1 0.1 0.2 0.2 0.2 0 0.3 0.1 0.2 0 0.3 0.1 0.2 0.1 0.4 0.1 0.1 0 0.3 0.1 0.1 0.1 0.3 0.1 0.1 0.1 0.3 0.2 0.1 0.1 0.2 0.2 0.2 0.1 0.3 0.2 0.1 0.1 0.2 0.3 0.1 0.1 0.1 0.2 0.1 0.2 0.2 0.3c0.2 0.8 0.2 1.7 0.5 2.4q0.1 0.2 0.3 0.4 0.2 0.2 0.4 0.4 0.2 0.2 0.4 0.3 0.2 0.2 0.5 0.3c0.6 0.3 1.3 0.5 1.8 0.8q0.4 0.3 0.8 0.6 0.3 0.3 0.6 0.6 0.3 0.3 0.6 0.7 0.2 0.4 0.4 0.8c0.5 0.9 0.8 1.7 1.1 2.4q0.5 1 0.7 1.6 0.1 0.2 0.1 0.4z"/><path class="f" d="m227.3 85.3h0.1q0 0 0.1 0 0 0 0.1 0 0 0.1 0.1 0.1 0 0 0.1 0 0.1 0.1 0.2 0.3 0.2 0.1 0.3 0.3 0.1 0.1 0.1 0.3 0 0.2 0 0.4 0 0.1 0 0.2 0 0.2 0 0.3 0 0.1-0.1 0.2 0 0.1 0 0.3-0.1 0.1-0.1 0.3 0 0.1-0.1 0.3 0 0.1 0 0.3 0 0.1 0 0.3 0 0.2 0 0.3 0.1 0.2 0.1 0.4 0.1 0.1 0.2 0.3 0 0.1 0.1 0.3c0.3 0.4 0.7 0.8 0.9 1.4q0.1 0.1 0.2 0.4 0.1 0.2 0.1 0.4 0 0.3 0 0.5 0 0.2-0.1 0.4c-0.3 0.6-0.7 1.1-0.9 1.7q-0.1 0.3-0.1 0.5 0 0.3 0 0.5 0 0.3 0.1 0.5 0 0.2 0.1 0.5c0.3 0.6 0.7 1.2 0.9 2q0.1 0.1 0.1 0.2 0.1 0.2 0.1 0.3 0 0.2 0 0.3 0 0.2 0 0.3 0 0.2 0 0.3 0 0.2 0 0.3-0.1 0.2-0.1 0.3-0.1 0.1-0.1 0.3-0.2 0.2-0.4 0.5-0.1 0.3-0.3 0.5-0.2 0.3-0.3 0.5-0.2 0.2-0.4 0.5-0.2 0.2-0.4 0.5-0.1 0.2-0.2 0.5-0.1 0.3-0.2 0.6 0 0.3 0 0.6 0.1 0.3 0.2 0.6 0 0.3 0.1 0.6 0.1 0.3 0.3 0.6 0.1 0.3 0.2 0.6 0.1 0.1 0.1 0.3 0.1 0.2 0.1 0.3 0 0.2 0 0.3 0.1 0.2 0.1 0.4-0.1 0.1-0.1 0.3 0 0.2 0 0.3-0.1 0.2-0.2 0.3 0 0.2-0.1 0.3-0.2 0.3-0.3 0.6-0.2 0.2-0.4 0.5-0.2 0.2-0.4 0.5-0.2 0.2-0.4 0.4-0.3 0.3-0.4 0.5-0.2 0.2-0.4 0.5-0.1 0.2-0.3 0.5-0.1 0.3-0.2 0.5-0.1 0.3-0.2 0.6-0.1 0.3-0.2 0.5 0 0.3-0.2 0.6-0.1 0.3-0.2 0.5 0 0.1-0.1 0.3-0.1 0.1-0.2 0.2-0.1 0.1-0.2 0.2-0.1 0.1-0.2 0.2-0.1 0.1-0.2 0.1-0.2 0.1-0.3 0.2-0.1 0-0.2 0.1-0.2 0-0.3 0.1-0.1 0-0.3 0-0.1 0.1-0.2 0.1-0.1 0.1-0.3 0.1-0.1 0-0.2 0.1-0.1 0.1-0.2 0.1-0.1 0.1-0.2 0.1-0.1 0.1-0.2 0.2-0.1 0.1-0.2 0.1-0.2 0.2-0.4 0.4-0.1 0.2-0.3 0.3-0.1 0.2-0.2 0.4-0.2 0.2-0.3 0.4c-0.3 0.5-0.6 1-1 1.5q-0.2 0.3-0.5 0.6-0.3 0.3-0.6 0.5-0.3 0.2-0.7 0.4-0.3 0.2-0.7 0.3-0.3 0.1-0.5 0.1-0.3 0.1-0.6 0.1-0.3 0-0.6 0-0.3 0-0.6 0-0.2-0.1-0.3-0.1-0.2-0.1-0.4-0.1-0.2-0.1-0.3-0.1-0.2-0.1-0.4-0.2-0.4-0.2-0.4-0.2 0.2 0.1 0.4 0.2 0.2 0.1 0.5 0.1 0.2 0.1 0.4 0.2 0.3 0 0.5 0.1 0.3 0 0.6 0 0.3 0 0.6 0 0.2 0 0.5-0.1 0.3-0.1 0.6-0.1 0.3-0.2 0.7-0.3 0.3-0.2 0.6-0.4 0.3-0.2 0.6-0.5 0.3-0.3 0.5-0.6c0.3-0.4 0.6-1 1-1.5q0.1-0.2 0.2-0.4 0.2-0.2 0.3-0.4 0.2-0.2 0.3-0.3 0.2-0.2 0.4-0.4 0.1-0.1 0.2-0.2 0.1 0 0.2-0.1 0.1-0.1 0.2-0.2 0.1 0 0.2-0.1 0.2 0 0.3-0.1 0.1 0 0.2-0.1 0.2 0 0.3 0 0.1-0.1 0.2-0.1 0.2 0 0.3-0.1 0.1 0 0.3-0.1 0.1 0 0.2-0.1 0.1-0.1 0.2-0.2 0.1 0 0.2-0.1 0.1-0.1 0.2-0.2 0.1-0.1 0.2-0.2 0-0.2 0.1-0.3 0.1-0.2 0.2-0.5 0.1-0.3 0.2-0.5 0.1-0.3 0.2-0.6 0.1-0.3 0.1-0.5 0.2-0.3 0.3-0.6 0.1-0.2 0.3-0.5 0.2-0.2 0.3-0.5 0.2-0.2 0.4-0.4 0.3-0.2 0.5-0.5 0.2-0.2 0.4-0.4 0.2-0.3 0.3-0.5 0.2-0.3 0.4-0.5 0-0.2 0.1-0.3 0.1-0.2 0.1-0.3 0-0.2 0.1-0.3 0-0.2 0-0.3 0-0.2 0-0.3 0-0.2-0.1-0.3 0-0.2 0-0.3-0.1-0.2-0.1-0.3-0.2-0.3-0.3-0.6-0.1-0.3-0.2-0.6-0.1-0.3-0.2-0.7-0.1-0.3-0.2-0.6 0-0.1 0-0.3 0-0.2 0.1-0.3 0-0.2 0-0.4 0.1-0.1 0.1-0.3 0.1-0.1 0.2-0.2 0-0.2 0.1-0.3 0.1-0.2 0.2-0.3 0.1-0.1 0.2-0.2 0.2-0.3 0.3-0.5 0.2-0.2 0.4-0.5 0.2-0.2 0.3-0.5 0.2-0.2 0.3-0.5 0.1-0.1 0.1-0.2 0.1-0.2 0.1-0.3 0.1-0.2 0.1-0.3 0-0.1 0-0.3 0-0.1 0-0.2 0-0.2-0.1-0.3 0-0.1 0-0.3-0.1-0.1-0.1-0.2c-0.2-0.7-0.6-1.4-0.9-2q-0.1-0.3-0.2-0.5 0-0.3-0.1-0.6 0-0.2 0-0.5 0.1-0.3 0.2-0.5c0.2-0.6 0.7-1.1 0.9-1.7q0.1-0.2 0.1-0.4 0-0.2 0-0.4 0-0.3-0.1-0.5 0-0.2-0.2-0.3c-0.2-0.5-0.5-1-0.8-1.4q-0.1-0.2-0.2-0.3-0.1-0.2-0.1-0.4-0.1-0.1-0.1-0.3-0.1-0.2-0.1-0.4 0-0.1 0-0.3 0-0.2 0.1-0.3 0-0.2 0-0.3 0.1-0.2 0.1-0.3 0.1-0.2 0.1-0.3 0-0.1 0.1-0.2 0-0.1 0-0.3 0-0.1 0-0.2 0-0.2 0-0.4-0.1-0.2-0.1-0.3-0.1-0.2-0.2-0.3-0.2-0.1-0.3-0.2-0.1-0.1-0.1-0.1-0.1-0.1-0.1-0.1-0.1 0-0.2-0.1-0.1 0-0.1 0z"/><path class="c" d="m153.7 100.2q-0.1 0-0.1 0-0.1 0-0.2 0 0 0-0.1 0-0.1 0-0.1 0-0.2-0.1-0.4-0.1-0.2-0.1-0.4-0.2-0.2-0.1-0.4-0.2-0.1-0.1-0.3-0.2-0.3-0.2-0.5-0.4-0.2-0.3-0.4-0.5-0.2-0.3-0.3-0.6-0.2-0.3-0.3-0.6-0.1-0.4-0.1-0.9 0-0.4 0.1-0.8 0.1-0.4 0.2-0.9 0.2-0.4 0.5-0.7 0.1-0.2 0.3-0.4 0.2-0.2 0.3-0.4 0.2-0.1 0.4-0.3 0.2-0.2 0.4-0.3 0.2-0.2 0.4-0.4 0.2-0.2 0.4-0.4 0.1-0.2 0.3-0.4 0.1-0.3 0.2-0.5 0.1-0.3 0.2-0.6 0-0.2 0-0.5 0-0.3-0.1-0.6-0.1-0.3-0.2-0.5c-0.2-0.8-0.6-1.5-0.9-2.4q-0.4-1.4-0.2-2.8 0.2-1.5 1-2.7 0.7-1.3 1.9-2.1 1.2-0.8 2.7-1.1l-0.1 0.2q-0.1-0.2-0.2-0.4-0.1-0.2-0.2-0.4-0.1-0.2-0.1-0.4-0.1-0.2-0.1-0.4 0-0.2 0-0.4 0-0.2 0-0.4 0-0.2 0.1-0.4 0-0.2 0-0.5 0.1-0.2 0.2-0.4 0.1-0.2 0.1-0.3 0.1-0.2 0.2-0.4 0.2-0.2 0.3-0.4 0.1-0.2 0.2-0.3 0.2-0.2 0.3-0.3 0.2-0.2 0.3-0.3 0.2-0.2 0.4-0.3 0.5-0.4 1.1-0.7 0.5-0.2 1.1-0.5 0.6-0.2 1.2-0.4 0.6-0.1 1.2-0.2 0.6-0.1 1.2-0.2 0.6 0 1.2 0 0.6-0.1 1.2 0 0.6 0 1.2 0.1l-0.1 0.1q0-0.7 0.2-1.4 0.2-0.6 0.6-1.2 0.4-0.6 0.9-1 0.5-0.4 1.2-0.7 0.3-0.2 0.6-0.3 0.3 0 0.6-0.1 0.3-0.1 0.6-0.1 0.3 0 0.6 0 0.3 0.1 0.6 0.1 0.3 0.1 0.6 0.2 0.3 0.1 0.6 0.2 0.3 0.1 0.5 0.2 0.2 0 0.3 0.1 0.1 0 0.3 0 0.1 0.1 0.3 0.1 0.1 0 0.2 0 0.2 0.1 0.3 0.1 0.1 0 0.3-0.1 0.1 0 0.2 0 0.2 0 0.3 0 0.2-0.1 0.5-0.2 0.2-0.1 0.5-0.2 0.2-0.1 0.4-0.3 0.2-0.1 0.5-0.2 0.2-0.2 0.4-0.3 0.2-0.1 0.4-0.2 0.3-0.1 0.5-0.2 0.2 0 0.5-0.1 0.5-0.2 1.2-0.2 0.6 0 1.2 0 0.6 0.1 1.1 0.3 0.6 0.2 1.1 0.5 0.3 0.2 0.5 0.3 0.3 0.2 0.5 0.4 0.2 0.2 0.4 0.4 0.2 0.2 0.3 0.4 0.1 0.2 0.2 0.3 0.1 0.2 0.2 0.3 0.1 0.2 0.2 0.3 0.1 0.2 0.2 0.3 0 0.1 0 0.2 0 0 0.1 0.1 0 0 0 0.1 0 0.1 0 0.1c0 0 0-0.1-0.2-0.4q0-0.2-0.1-0.3-0.1-0.2-0.2-0.4-0.1-0.1-0.2-0.2-0.1-0.2-0.2-0.3-0.2-0.2-0.4-0.5-0.2-0.2-0.4-0.3-0.2-0.2-0.4-0.4-0.3-0.2-0.5-0.3-0.5-0.3-1.1-0.5-0.6-0.2-1.1-0.2-0.6-0.1-1.2-0.1-0.6 0.1-1.2 0.2-0.2 0.1-0.5 0.2-0.2 0.1-0.4 0.2-0.2 0.1-0.4 0.2-0.3 0.1-0.5 0.2-0.2 0.2-0.4 0.3-0.3 0.1-0.5 0.2-0.2 0.1-0.5 0.2-0.2 0.1-0.5 0.2-0.1 0.1-0.2 0.1-0.2 0-0.3 0-0.2 0-0.3 0-0.2 0-0.3 0-0.1 0-0.3 0-0.1-0.1-0.3-0.1-0.1 0-0.2-0.1-0.2 0-0.3-0.1-0.3-0.1-0.6-0.2-0.2-0.1-0.5-0.1-0.3-0.1-0.6-0.2-0.3 0-0.6-0.1-0.3 0-0.6 0-0.3 0-0.6 0.1-0.3 0-0.6 0.1-0.3 0.1-0.6 0.2-0.5 0.3-1 0.8-0.5 0.4-0.9 0.9-0.4 0.6-0.6 1.2-0.2 0.6-0.2 1.3v0.1h-0.2q-0.6-0.1-1.2-0.1-0.5 0-1.1 0-0.6 0-1.2 0.1-0.6 0-1.2 0.1-0.6 0.1-1.2 0.3-0.6 0.1-1.1 0.3-0.6 0.3-1.2 0.5-0.5 0.3-1 0.7-0.2 0.1-0.3 0.2-0.2 0.2-0.4 0.3-0.1 0.2-0.2 0.3-0.2 0.2-0.3 0.4-0.1 0.1-0.2 0.3-0.1 0.2-0.2 0.4-0.1 0.1-0.2 0.3 0 0.2-0.1 0.4 0 0.2-0.1 0.4 0 0.2 0 0.4 0 0.2 0 0.4 0 0.2 0 0.4 0 0.2 0.1 0.4 0 0.2 0.1 0.4 0 0.2 0.1 0.3 0.1 0.2 0.2 0.4l0.1 0.1h-0.1q-1.4 0.3-2.6 1.1-1.2 0.8-1.9 2-0.7 1.2-0.9 2.6-0.2 1.4 0.2 2.7c0.2 0.9 0.6 1.6 0.9 2.4q0.1 0.3 0.1 0.6 0.1 0.3 0.1 0.6 0 0.3 0 0.6-0.1 0.3-0.2 0.5-0.1 0.3-0.2 0.5-0.2 0.3-0.4 0.5-0.1 0.2-0.3 0.4-0.2 0.2-0.5 0.3-0.2 0.2-0.3 0.4-0.2 0.1-0.4 0.3-0.2 0.2-0.4 0.4-0.1 0.1-0.3 0.3-0.2 0.4-0.4 0.8-0.2 0.4-0.3 0.8 0 0.4 0 0.8 0 0.4 0.1 0.8 0.1 0.3 0.2 0.6 0.1 0.3 0.3 0.6 0.2 0.3 0.4 0.5 0.2 0.2 0.5 0.4 0.1 0.1 0.3 0.2 0.2 0.1 0.4 0.2 0.1 0.1 0.3 0.2 0.2 0 0.4 0.1c0.4 0.1 0.6 0.1 0.6 0.1z"/><path class="c" d="m229.8 80.5q0 0 0 0 0 0 0 0 0-0.1 0-0.1 0 0 0 0 0-0.2 0-0.4c0-0.4 0-0.9-0.1-1.5 0-0.7-0.1-1.5-0.3-2.4q-0.1-0.4-0.2-0.8 0-0.4-0.2-0.8-0.1-0.4-0.2-0.7-0.1-0.4-0.3-0.8-0.2-0.4-0.4-0.8-0.2-0.5-0.5-0.8-0.3-0.4-0.6-0.8-0.3-0.4-0.7-0.7-0.2-0.2-0.4-0.3-0.2-0.2-0.4-0.3-0.2-0.2-0.5-0.3-0.2-0.1-0.5-0.2-0.2-0.1-0.5-0.2-0.3-0.1-0.5-0.2-0.3-0.1-0.6-0.2-0.3 0-0.5-0.1-0.3-0.1-0.6-0.2-0.3-0.1-0.6-0.2-0.3-0.1-0.5-0.3-0.3-0.1-0.5-0.3-0.3-0.2-0.5-0.4-0.3-0.2-0.5-0.4-0.2-0.3-0.4-0.5-0.2-0.3-0.4-0.5c-0.6-0.7-1-1.4-1.7-2q-0.2-0.3-0.4-0.5-0.3-0.2-0.5-0.4-0.3-0.2-0.6-0.4-0.2-0.2-0.5-0.3-0.6-0.3-1.3-0.5-0.6-0.2-1.2-0.3-0.7-0.2-1.3-0.3-0.7 0-1.3-0.1-0.6 0-1.2 0-0.6 0-1.3 0-0.6 0-1.2 0.1-0.6 0-1.2 0.1-1 0.1-2.1 0.2-1 0.2-2 0.5-1 0.2-2 0.6-1 0.3-1.9 0.8-0.6 0.3-1.3 0.6-0.6 0.3-1.1 0.7-0.6 0.4-1.2 0.8-0.5 0.5-1 0.9-0.4 0.4-0.7 0.7l-0.4 0.4-0.3 0.3-0.1 0.1c0 0 0 0 0.1-0.1 0.1-0.1 0.1-0.2 0.3-0.3l0.4-0.5q0.2-0.3 0.6-0.6 0.5-0.5 1.1-0.9 0.5-0.5 1.1-0.9 0.6-0.4 1.2-0.7 0.6-0.4 1.2-0.7 1-0.4 2-0.8 0.9-0.3 1.9-0.6 1.1-0.3 2.1-0.4 1-0.2 2-0.3 0.6-0.1 1.3-0.1 0.6-0.1 1.2-0.1 0.6 0 1.2 0 0.6 0 1.3 0 0.6 0 1.3 0.1 0.6 0.1 1.3 0.3 0.6 0.1 1.3 0.3 0.6 0.2 1.2 0.5 0.3 0.2 0.6 0.3 0.3 0.2 0.6 0.4 0.2 0.2 0.5 0.5 0.2 0.2 0.5 0.5c0.6 0.6 1.1 1.3 1.6 2q0.2 0.2 0.4 0.4 0.2 0.3 0.4 0.5 0.2 0.2 0.5 0.4 0.2 0.2 0.4 0.4 0.3 0.2 0.5 0.4 0.3 0.1 0.6 0.2 0.2 0.2 0.5 0.3 0.3 0.1 0.6 0.1 0.3 0.1 0.5 0.2 0.3 0.1 0.6 0.1 0.3 0.1 0.5 0.2 0.3 0.1 0.6 0.2 0.2 0.1 0.5 0.3 0.2 0.1 0.4 0.2 0.3 0.2 0.5 0.4 0.2 0.1 0.4 0.3 0.4 0.3 0.7 0.7 0.3 0.4 0.6 0.8 0.3 0.4 0.5 0.8 0.2 0.4 0.4 0.9 0.2 0.4 0.3 0.7 0.1 0.4 0.2 0.8 0.1 0.4 0.2 0.8 0.1 0.4 0.2 0.8c0.1 0.9 0.2 1.7 0.2 2.4q0.1 1 0.1 1.5v0.4q0 0.1 0 0.1z"/><path class="g" d="m176.1 107.2q-0.2 0.1-0.3 0.1-0.2 0.1-0.3 0.2-0.1 0-0.3 0.1-0.1 0.1-0.2 0.2-0.3 0.3-0.6 0.6-0.3 0.3-0.5 0.6-0.2 0.4-0.4 0.8-0.2 0.4-0.3 0.8 0 0.3-0.1 0.6 0 0.2 0 0.5 0 0.3 0 0.6 0.1 0.3 0.1 0.6 0.2 0.7 0.6 1.3 0.3 0.6 0.8 1.1 0.5 0.6 1.1 1 0.5 0.3 1.2 0.6 0.4 0.1 0.8 0.2 0.4 0.1 0.8 0.1 0.4 0 0.8 0 0.4-0.1 0.8-0.2 0.3-0.1 0.7-0.2 0.4-0.2 0.7-0.4 0.4-0.2 0.7-0.4 0.3-0.3 0.6-0.6 0.2-0.3 0.4-0.6 0.2-0.3 0.4-0.6 0.2-0.3 0.3-0.7 0.1-0.3 0.2-0.7 0.1-0.6 0.1-1.2 0-0.7-0.2-1.3-0.2-0.6-0.5-1.1-0.3-0.6-0.7-1-0.2-0.2-0.4-0.4-0.2-0.1-0.4-0.3-0.2-0.1-0.4-0.2-0.2-0.1-0.4-0.2-0.2-0.1-0.3-0.1-0.2-0.1-0.4-0.1-0.2-0.1-0.3-0.1-0.2-0.1-0.4-0.1-0.1 0-0.2 0-0.1 0-0.2 0-0.2 0-0.3 0-0.1 0-0.2 0 0 0-0.1 0 0 0 0 0-0.1 0.1-0.1 0.1-0.1 0-0.1 0 0.2 0 0.3 0 0.2 0 0.3 0 0.2 0 0.3 0 0.2 0 0.3 0 0.2 0 0.3 0.1 0.2 0 0.4 0.1 0.2 0 0.3 0.1 0.2 0.1 0.3 0.1 0.2 0.1 0.4 0.2 0.3 0.2 0.4 0.3 0.2 0.1 0.4 0.3 0.2 0.1 0.3 0.3 0.4 0.4 0.7 1 0.3 0.5 0.5 1.1 0.1 0.6 0.1 1.2 0.1 0.6-0.1 1.2 0 0.3-0.1 0.6-0.1 0.4-0.3 0.7-0.2 0.3-0.4 0.6-0.2 0.3-0.4 0.5-0.3 0.3-0.6 0.5-0.3 0.3-0.6 0.5-0.3 0.2-0.7 0.3-0.3 0.2-0.7 0.2-0.4 0.1-0.8 0.2-0.3 0-0.7 0-0.4 0-0.8-0.1-0.4 0-0.7-0.2-0.3-0.1-0.7-0.2-0.3-0.2-0.6-0.4-0.3-0.2-0.5-0.4-0.3-0.3-0.5-0.5-0.2-0.3-0.4-0.5-0.2-0.3-0.4-0.6-0.1-0.2-0.2-0.5-0.2-0.3-0.3-0.7 0-0.2 0-0.5-0.1-0.3-0.1-0.6 0-0.2 0.1-0.5 0-0.3 0-0.6 0.1-0.4 0.3-0.8 0.1-0.3 0.3-0.7 0.2-0.3 0.5-0.6 0.3-0.3 0.6-0.6 0.1-0.1 0.2-0.2 0.1-0.1 0.3-0.2 0.1-0.1 0.2-0.1 0.1-0.1 0.3-0.2z"/><path class="c" d="m199 97.5q0.1 0.3 0 0.6-0.1 0.3-0.3 0.5-0.2 0.2-0.5 0.3-0.3 0.2-0.6 0.2-0.3 0-0.6-0.1-0.2-0.1-0.5-0.3-0.2-0.1-0.3-0.4-0.2-0.3-0.2-0.6 0-0.3 0.1-0.5 0.1-0.3 0.3-0.5 0.2-0.3 0.5-0.4 0.2-0.1 0.5-0.1 0.3-0.1 0.6 0 0.3 0.1 0.5 0.3 0.2 0.2 0.4 0.4 0.1 0.3 0.1 0.6z"/><path class="c" d="m213.5 97.5q0 0.3-0.1 0.6-0.1 0.3-0.3 0.5-0.2 0.2-0.4 0.3-0.3 0.2-0.6 0.2-0.3 0-0.6-0.1-0.3-0.1-0.5-0.3-0.2-0.1-0.3-0.4-0.2-0.3-0.2-0.6 0-0.3 0.1-0.5 0.1-0.3 0.3-0.5 0.2-0.3 0.5-0.4 0.2-0.1 0.5-0.1 0.3-0.1 0.6 0 0.3 0.1 0.5 0.3 0.2 0.2 0.4 0.4 0.1 0.3 0.1 0.6z"/><path class="c" d="m214.8 93.1c-0.2 0.2-1.6-0.7-3.4-0.6-1.7 0.2-3 1.4-3.2 1.1-0.2-0.2 0.1-0.6 0.6-1.1q0.3-0.2 0.6-0.4 0.3-0.2 0.6-0.4 0.3-0.1 0.6-0.2 0.4-0.1 0.7-0.2 0.4 0 0.8 0 0.3 0.1 0.7 0.2 0.3 0.1 0.6 0.2 0.3 0.2 0.6 0.4c0.6 0.4 0.9 0.9 0.8 1z"/><path class="c" d="m199.3 93.9c-0.2 0.2-1.5-0.9-3.4-0.9-2 0-3.4 1-3.6 0.8-0.2-0.3 0.2-0.6 0.8-1q0.3-0.2 0.6-0.4 0.3-0.2 0.7-0.3 0.4-0.1 0.7-0.2 0.4 0 0.8 0 0.4 0 0.7 0.1 0.4 0 0.8 0.1 0.3 0.2 0.6 0.4 0.4 0.1 0.7 0.4c0.5 0.4 0.7 0.9 0.6 1z"/><path class="e" d="m198.3 108.5q0.1-0.6 0.5-1.1 0.4-0.5 1-0.7 0.5-0.3 1.1-0.2 0.6 0.1 1.2 0.4 0.3 0.3 0.6 0.6 0.2 0.3 0.4 0.7 0.1 0.4 0.2 0.9 0 0.4 0 0.8-0.2 0.3-0.4 0.5-0.3 0.2-0.5 0.3-0.3 0.2-0.6 0.3-0.3 0.1-0.6 0.1-0.1 0-0.1 0-0.1 0-0.1 0-0.1 0-0.1 0-0.1 0-0.1 0-0.2 0-0.5 0-0.2-0.1-0.5-0.2-0.2-0.1-0.4-0.2-0.2-0.1-0.4-0.3-0.2-0.2-0.3-0.4-0.1-0.2-0.2-0.5-0.1-0.2-0.2-0.5 0-0.2 0-0.5z"/><path class="c" d="m199.3 105.7c0.2 0 0.1 1.6 1.5 2.9 1.3 1.2 3.1 1.2 3.1 1.4 0 0.2-0.4 0.3-1.1 0.3q-0.4 0-0.8-0.1-0.3-0.1-0.7-0.2-0.3-0.2-0.6-0.4-0.3-0.2-0.6-0.4-0.2-0.2-0.4-0.5-0.2-0.3-0.4-0.6-0.1-0.3-0.2-0.7-0.1-0.3-0.1-0.7c-0.1-0.6 0.1-1.1 0.3-1z"/><path fill-rule="evenodd" class="d" d="m254.1 343.7l-10.2 24.6-18.3-7.6 10.3-30.4 18.2 13.4z"/><path class="f" d="m246 366.6l-6 12.7c0 0 17.4 16.6 16 20.5l-40-17.2 9.7-25.4z"/><path class="g" d="m228.3 372.3q-0.3-0.1-0.6 0-0.3 0.1-0.6 0.3-0.2 0.2-0.4 0.4-0.2 0.3-0.3 0.6 0 0.4 0 0.7 0.1 0.3 0.3 0.6 0.2 0.2 0.5 0.4 0.2 0.2 0.6 0.3 0.3 0 0.6-0.1 0.4-0.1 0.6-0.3 0.3-0.2 0.5-0.5 0.2-0.3 0.3-0.6 0-0.4-0.1-0.7-0.1-0.3-0.4-0.6-0.2-0.2-0.5-0.4-0.3-0.1-0.7-0.2"/><path class="b" d="m216 382.6l1.5-3.2 37.8 17.7c0 0 1.4 1.5 0.7 2.7z"/><path class="c" d="m240.7 379.4c-0.1 0.2-1.1-0.2-2.3 0.1-1.2 0.2-2.1 0.8-2.3 0.6-0.1-0.1 0.7-1.1 2.2-1.4 1.5-0.2 2.5 0.5 2.4 0.7z"/><path class="c" d="m244.2 382.9c0 0.2-1 0.2-2.1 0.7-1 0.6-1.6 1.4-1.8 1.3-0.1-0.1 0.2-1.3 1.5-1.9 1.2-0.7 2.4-0.3 2.4-0.1z"/><path class="c" d="m244.4 389c-0.2 0 0-1.1 0.9-2 0.9-0.9 2-0.9 2.1-0.7 0 0.2-0.8 0.5-1.6 1.3-0.8 0.7-1.2 1.4-1.4 1.4z"/><path class="c" d="m242.4 374.5c-0.2 0.2-1-0.5-2.1-0.9-1.1-0.4-2.1-0.4-2.2-0.6 0-0.2 1.1-0.6 2.5-0.1 1.3 0.5 1.9 1.5 1.8 1.6z"/><path class="c" d="m255.5 356.8l24.7-76.8c0 0-1.2-12.5-3.7-16.4-2.5-3.9-73.5-24.1-73.5-24.1 0 0-18-3.6-29.7 1.2-11.8 4.8-23.6 10.6-22.1 18.9q0.1 0.5 0.2 1 0.1 0.4 0.3 0.9 0.1 0.5 0.3 0.9 0.1 0.5 0.3 0.9c1.1 2.9 2.6 5.6 4.6 8 1.9 2.5 4.2 4.6 6.8 6.3 2.5 1.7 5.3 3 8.3 3.9 3 0.9 6.1 1.3 9.1 1.2l9.3 0.7 47.7 7q0.7 0.2 1.4 0.6 0.6 0.4 1.1 1 0.4 0.7 0.5 1.4 0.1 0.8 0 1.5l-13.2 51.5c0 0 17 7.5 27.6 10.4z"/><path fill-rule="evenodd" class="d" d="m277.9 303.5l1.8 26.6-19.8 1.3-4.2-31.8 22.2 3.9z"/><path class="f" d="m279.5 326.5l1.5 15.2c0 0 22.9 7.2 23.4 11.3l-43.5 2.3-2.5-27.1z"/><path class="c" d="m280.8 333.1q0-0.1 0-0.2 0-0.1 0-0.2 0-0.1 0-0.2 0-0.1 0-0.1-0.1-0.3-0.2-0.6-0.1-0.2-0.2-0.5-0.2-0.2-0.3-0.5-0.2-0.2-0.3-0.4-0.1-0.1-0.2-0.1 0-0.1-0.1-0.2-0.1-0.1-0.1-0.1-0.1-0.1-0.2-0.1-0.1-0.1-0.2-0.2-0.1 0-0.3 0-0.1-0.1-0.2-0.1-0.2 0.1-0.3 0.1-0.1 0-0.1 0.1-0.1 0-0.1 0.1-0.1 0-0.1 0.1-0.1 0-0.1 0.1 0 0.1 0 0.1 0 0.1 0 0.2 0 0 0 0.1 0 0.1 0 0.1 0.1 0.1 0.1 0.2 0.1 0.1 0.1 0.2 0.1 0.1 0.2 0.2 0 0.1 0.1 0.2c0.3 0.5 0.6 1 1.1 1.6q0.1 0.1 0.3 0.2 0.1 0.1 0.2 0.1 0.2 0.1 0.4 0.1 0.1 0 0.3 0 0.1 0 0.3-0.1 0.1 0 0.3-0.1 0.1 0 0.2-0.1 0.2-0.1 0.3-0.2 0.2-0.2 0.4-0.3 0.2-0.2 0.4-0.4 0.2-0.1 0.4-0.3 0.2-0.2 0.4-0.4 0.3-0.4 0.6-0.8 0.1-0.1 0.2-0.2 0-0.1 0.1-0.2 0-0.2 0.1-0.3 0-0.1 0.1-0.2 0-0.2 0-0.3 0-0.2-0.1-0.3-0.1-0.1-0.2-0.2-0.1-0.1-0.3-0.2-0.1 0-0.2 0-0.2 0-0.3 0.1-0.1 0-0.3 0.1-0.1 0-0.2 0.1-0.1 0.1-0.3 0.3-0.1 0.1-0.2 0.3-0.2 0.1-0.3 0.3-0.1 0.1-0.2 0.3-0.2 0.2-0.3 0.4-0.2 0.3-0.3 0.5-0.1 0.2-0.2 0.5-0.1 0.2-0.2 0.5-0.1 0.1-0.1 0.2 0 0.1 0 0.2-0.1 0.1-0.1 0.2 0 0.1 0 0.2 0.2-0.4 0.3-0.7 0.2-0.3 0.4-0.6 0.2-0.3 0.4-0.6 0.2-0.3 0.4-0.6 0.1-0.2 0.2-0.3 0.1-0.1 0.3-0.3 0.1-0.1 0.2-0.2 0.1-0.1 0.3-0.2 0-0.1 0.1-0.1 0.1-0.1 0.2-0.1 0 0 0.1 0 0.1 0 0.2 0 0.1 0 0.1 0.1 0.1 0 0.1 0.1 0 0.1 0 0.1 0 0.1 0 0.2 0 0.1-0.1 0.2 0 0.1 0 0.1-0.1 0.1-0.2 0.2 0 0.1-0.1 0.2-0.1 0.1-0.1 0.2-0.1 0.1-0.2 0.2 0 0.1-0.1 0.2-0.1 0-0.2 0.1-0.2 0.2-0.3 0.4-0.2 0.2-0.4 0.4-0.2 0.1-0.4 0.3-0.2 0.1-0.4 0.3-0.1 0.1-0.2 0.1-0.1 0.1-0.2 0.1-0.1 0.1-0.2 0.1-0.1 0.1-0.3 0.1-0.1 0-0.2 0-0.1 0-0.2 0-0.1-0.1-0.1-0.1-0.1-0.1-0.2-0.2c-0.4-0.4-0.7-1-1.1-1.5q-0.1-0.1-0.1-0.1-0.1-0.1-0.1-0.2-0.1-0.1-0.1-0.2-0.1-0.1-0.2-0.2-0.1-0.3 0.2-0.4c0.3-0.2 0.8 0.2 1 0.6q0.3 0.2 0.5 0.5 0.2 0.3 0.4 0.6 0.1 0.3 0.3 0.7 0.1 0.3 0.2 0.6z"/><path class="g" d="m267.4 340.5q-0.3 0.1-0.5 0.3-0.3 0.3-0.4 0.5-0.2 0.3-0.2 0.7-0.1 0.3 0 0.6 0.1 0.3 0.3 0.6 0.2 0.2 0.5 0.4 0.3 0.1 0.6 0.2 0.3 0 0.7-0.1 0.3-0.1 0.5-0.3 0.3-0.2 0.5-0.5 0.1-0.4 0.2-0.7 0-0.3-0.1-0.7-0.1-0.3-0.3-0.5-0.3-0.3-0.6-0.4-0.3-0.1-0.7-0.1-0.3 0-0.6 0.1"/><path class="b" d="m260.9 355.3l-0.1-3.6 41.7-0.8c0 0 2 0.8 1.9 2.1z"/><path class="c" d="m281.7 341.4c0 0.3-1.1 0.4-2.1 1.2-1 0.7-1.5 1.6-1.7 1.5-0.2-0.1 0-1.3 1.3-2.1 1.3-0.9 2.5-0.7 2.5-0.5z"/><path class="c" d="m286.3 343.1c0.1 0.2-0.8 0.6-1.5 1.6-0.7 0.9-0.8 1.8-1 1.8-0.2 0.1-0.4-1.2 0.4-2.3 0.9-1.1 2.1-1.3 2.1-1.1z"/><path class="c" d="m289.2 348.4c-0.2 0.1-0.6-1-0.1-2.2 0.5-1.1 1.5-1.7 1.6-1.5 0.1 0.2-0.5 0.8-0.9 1.8-0.4 1-0.4 1.9-0.6 1.9z"/><path class="c" d="m281 336.3c-0.1 0.2-1.1 0-2.3 0.1-1.2 0.1-2.1 0.6-2.2 0.4-0.1-0.1 0.8-1 2.2-1.1 1.4-0.1 2.4 0.5 2.3 0.6z"/><path class="c" d="m263.2 230.1c0 0 11.9-1.5 13.7 11.3 1.9 12.9 10.6 72.4 10.6 72.4l-32.6 4-6.8-61.3-45.1-17c0 0 52.2-10.8 60.2-9.4z"/><path class="c" d="m213.6 214.7c0 0 8 19.9 6.7 22.2-1.2 2.3-19.4 12.4-19.4 12.4l-45.7 19.7q-1.3-2.1-2.3-4.4-1-2.3-1.7-4.7-0.7-2.4-1.1-4.9-0.4-2.5-0.4-5c-0.5-11.6 14.8-33.3 14.8-33.3z"/><path class="f" d="m200.8 238.6c0 0 0 0 0.2 0.1l0.7 0.3 2.6 1 9.8 3.8 33.9 13-0.2-0.2c0.7 6 1.4 12.6 2.2 19.3 1.8 15.9 3.4 30.4 4.7 42v0.2h0.2l20.2-2.6 5.5-0.8 1.5-0.2q0 0 0.1 0 0.1 0 0.1 0 0.1 0 0.2-0.1 0 0 0.1 0-0.1 0-0.1 0-0.1 0-0.2 0 0 0-0.1 0-0.1 0-0.1 0l-1.5 0.2-5.5 0.6-20.2 2.4 0.2 0.2c-1.3-11.5-2.9-26.1-4.6-41.9-0.8-6.8-1.5-13.3-2.2-19.4v-0.1l-0.1-0.1-34-12.8-9.9-3.6q-1.7-0.7-2.7-1l-0.6-0.3q-0.1 0-0.1 0 0 0 0 0-0.1 0-0.1 0 0 0 0 0z"/><path class="f" d="m164 242.1q0.1 0 0.3 0 0.2-0.1 0.3-0.1 0.2-0.1 0.3-0.1 0.2-0.1 0.3-0.1l3.5-1.3q1.4-0.6 2.9-1.1 1.4-0.5 2.8-0.9 1.5-0.4 2.9-0.8 1.5-0.4 3-0.7 1.4-0.3 2.9-0.5 1.5-0.2 3.1-0.2 1.5 0 3 0 1.5 0.1 3 0.4 0.6 0.1 1.2 0.2 0.6 0.1 1.2 0.3 0.6 0.1 1.2 0.3 0.6 0.2 1.2 0.4-0.1-0.1-0.3-0.2-0.1-0.1-0.3-0.2-0.1 0-0.3-0.1-0.2-0.1-0.3-0.1-0.4-0.2-0.9-0.3-0.4-0.2-0.9-0.3-0.4-0.1-0.9-0.2-0.4-0.1-0.9-0.2-1.5-0.3-3-0.4-1.5-0.1-3-0.1-1.6 0-3.1 0.2-1.5 0.2-3 0.5-1.5 0.3-3 0.7-1.4 0.4-2.9 0.8-1.4 0.5-2.9 1-1.4 0.5-2.8 1.1c-1.5 0.6-2.6 1.1-3.4 1.4q-0.2 0.1-0.3 0.2-0.2 0-0.3 0.1-0.2 0.1-0.3 0.2-0.2 0.1-0.3 0.1z"/><path class="f" d="m170.1 231.2q0.5 0 1-0.1 0.5 0 1 0 0.5-0.1 1-0.1 0.5 0 1 0c1.2 0 2.7 0.2 4.4 0.3 1.7 0.1 3.5 0.3 5.4 0.6q1.2 0.1 2.4 0.4 1.2 0.2 2.3 0.6 1.2 0.4 2.3 0.9 1.1 0.5 2.2 1.1 0.4 0.3 0.8 0.5 0.5 0.3 0.9 0.6 0.4 0.3 0.8 0.6 0.4 0.4 0.8 0.7-0.1-0.1-0.2-0.2-0.1-0.2-0.2-0.3-0.1-0.1-0.1-0.2-0.1-0.1-0.3-0.1-0.2-0.3-0.5-0.6-0.3-0.2-0.6-0.5-0.3-0.2-0.6-0.4-0.3-0.2-0.6-0.4-1.1-0.7-2.2-1.2-1.1-0.5-2.3-0.9-1.2-0.4-2.4-0.7-1.2-0.3-2.5-0.4c-1.9-0.3-3.7-0.4-5.4-0.5-1.6-0.1-3.1-0.2-4.4-0.2q-0.4 0-0.8 0-0.3 0-0.7 0-0.4 0.1-0.8 0.1-0.3 0.1-0.7 0.1-0.1 0.1-0.3 0.1-0.1 0-0.2 0-0.2 0.1-0.3 0.1-0.1 0.1-0.2 0.1z"/><path class="c" d="m243.4 372q0.1-0.1 0.2-0.2 0-0.1 0-0.2 0.1-0.1 0.1-0.2 0-0.1 0.1-0.2 0-0.3 0.1-0.6 0-0.3 0-0.6 0-0.3 0-0.6 0-0.3-0.1-0.6 0-0.1 0-0.2 0-0.1 0-0.2-0.1-0.1-0.1-0.2 0-0.1-0.1-0.2 0-0.1-0.1-0.2-0.1-0.1-0.2-0.2-0.1-0.1-0.2-0.1-0.2-0.1-0.3-0.1-0.1 0-0.1 0-0.1 0-0.2 0.1-0.1 0-0.1 0.1-0.1 0-0.2 0.1 0 0 0 0.1-0.1 0-0.1 0.1 0 0.1-0.1 0.2 0 0 0 0.1 0 0.1 0 0.3 0 0.1 0 0.2 0 0.1 0.1 0.3 0 0.1 0 0.2c0.1 0.7 0.1 1.3 0.2 2.1q0.1 0.1 0.1 0.3 0.1 0.1 0.2 0.3 0.1 0.1 0.3 0.2 0.1 0.1 0.3 0.1 0.1 0 0.3 0.1 0.1 0 0.3 0 0.2 0 0.3 0 0.2-0.1 0.3-0.1 0.3 0 0.6-0.1 0.2-0.1 0.5-0.2 0.3-0.1 0.5-0.2 0.3-0.1 0.5-0.2 0.2-0.1 0.3-0.1 0.1-0.1 0.2-0.2 0.1 0 0.3-0.1 0.1-0.1 0.2-0.1 0.1-0.1 0.2-0.2 0.1 0 0.2-0.1 0.1-0.1 0.2-0.2 0.1-0.1 0.2-0.2 0.1-0.1 0.2-0.3 0-0.1 0-0.3 0-0.2 0-0.3-0.1-0.2-0.2-0.3-0.1-0.1-0.2-0.1-0.1-0.1-0.3-0.1-0.1-0.1-0.3-0.1-0.1 0.1-0.2 0.1-0.2 0.1-0.4 0.1-0.2 0.1-0.4 0.2-0.2 0.1-0.4 0.2-0.2 0.1-0.3 0.2-0.3 0.2-0.5 0.3-0.3 0.2-0.5 0.4-0.2 0.2-0.5 0.4-0.2 0.2-0.4 0.4c-0.4 0.4-0.5 0.7-0.5 0.7q0.3-0.3 0.6-0.5 0.3-0.3 0.6-0.5 0.3-0.2 0.7-0.5 0.3-0.2 0.6-0.4 0.2-0.1 0.4-0.2 0.2 0 0.3-0.1 0.2-0.1 0.4-0.2 0.2 0 0.4-0.1c0.2 0 0.5 0 0.6 0.1q0 0.1 0.1 0.2 0 0 0 0.1 0 0.1 0 0.2-0.1 0-0.1 0.1-0.1 0.1-0.2 0.2 0 0-0.1 0.1-0.1 0.1-0.2 0.1-0.1 0.1-0.2 0.1-0.1 0.1-0.2 0.2-0.1 0-0.3 0.1-0.1 0.1-0.2 0.1-0.1 0.1-0.2 0.1-0.3 0.1-0.5 0.2-0.2 0.1-0.5 0.2-0.2 0.1-0.5 0.2-0.3 0-0.5 0.1-0.1 0-0.3 0-0.1 0.1-0.2 0.1-0.1 0-0.3-0.1-0.1 0-0.2 0-0.1 0-0.2-0.1-0.1 0-0.2-0.1 0-0.1-0.1-0.2 0-0.1 0-0.2c-0.1-0.6-0.2-1.4-0.3-2q0-0.1 0-0.2 0-0.1 0-0.2-0.1-0.1-0.1-0.2 0-0.2 0-0.3c0-0.2 0.2-0.4 0.3-0.4 0.5 0 0.6 0.6 0.7 1q0.1 0.4 0.1 0.8 0 0.4 0 0.8 0 0.4 0 0.8-0.1 0.4-0.2 0.8z"/><path class="f" d="m210.7 134.3c0 0 12.1 3.3 14.4 12.4 3.6 14.5 14.5 57 14.5 57l11.6 9.4-7.4 12.2c0 0-12.9-4.2-18.3-11.1-5.4-7-10.8-32.8-10.8-32.8z"/><path class="f" d="m162.9 146.2c0 0-0.2-7.5 0.6-8.4l15.2-5.3 11 3.3c2.6 1.1 7.5 8.5 10.3 8.1 3.2-0.4 3.7-8.6 5-11l5.7 1.5c0 0 9.7 25.6 9.8 32.8 0.1 7.3-3.7 17-3.1 32.2 0.4 8 1.1 15.1-3.8 15.3l-49.1 2c0 0-11.2-2.6-12-9.3-0.8-6.6 10.4-61.2 10.4-61.2z"/><path class="f" d="m141 197l7.7-24.3c0 0 4.6-30.9 15.3-35.2 4.6-1.8 14.7-1.5 17.8 4.7 3 6.2-0.8 10.8-1.5 13.9-0.7 3.1-11.1 24.7-11.1 24.7q-0.8 1.5-1.5 3-0.6 1.5-1.3 3-0.6 1.6-1.2 3.1-0.6 1.5-1.2 3.1l41.6 22-5.2 13.7-52-18.9q-1.3-0.5-2.5-1.2-1.2-0.8-2.1-1.8-1-1-1.7-2.2-0.7-1.2-1.1-2.5-0.2-0.6-0.2-1.3-0.1-0.6-0.1-1.2-0.1-0.7 0-1.3 0.1-0.7 0.3-1.3z"/><path class="d" d="m237.7 223.6l-10.7-4.6-20.5-0.8-1.7-1.1-4.4 11.6c0 0 5.4 2.4 8.2 2.5l17.2-1.3 9 0.6z"/><path class="g" d="m295 180.8l-58.9 2.9c-2 0.1-3.7 1.1-4 3l-4.6 43.2-30.4 1.3c-0.5 0-0.9 0.2-1.2 0.6-0.3 0.3-0.5 0.8-0.5 1.2 0 0.5 0.2 1 0.6 1.3 0.3 0.3 0.8 0.5 1.3 0.4l29.8-1.2 5.7-0.2 61.5-2.6 4.7-45.6q0.1-0.9-0.2-1.7-0.2-0.8-0.8-1.4-0.6-0.6-1.4-0.9-0.7-0.4-1.6-0.3z"/><path class="c" d="m295 180.8q0.1-0.1 0.2-0.1 0.2 0 0.3 0.1 0.1 0 0.2 0 0.1 0 0.2 0 0.6 0.1 1.2 0.4 0.5 0.3 0.9 0.7 0.4 0.5 0.7 1 0.3 0.6 0.4 1.2 0 0.3 0 0.6 0 0.3 0 0.6 0 0.3-0.1 0.6 0 0.3-0.1 0.6-0.2 2.6-0.6 6c-0.9 9.1-2.2 22.1-3.9 38.2v0.1h-0.1l-94.1 4-2.5 0.1q-0.2 0.1-0.4 0.1-0.2-0.1-0.3-0.1-0.2 0-0.4 0-0.1-0.1-0.3-0.2-0.2 0-0.3-0.1-0.2-0.2-0.3-0.3-0.1-0.1-0.2-0.3-0.1-0.1-0.2-0.3-0.1-0.3-0.1-0.7-0.1-0.3 0-0.7 0.2-0.3 0.4-0.6 0.2-0.3 0.5-0.5 0.2 0 0.3-0.1 0.2-0.1 0.4-0.1 0.1 0 0.3-0.1 0.2 0 0.3 0h1.3l9.8-0.4 18.9-0.8-0.2 0.2c1.7-15.5 3.3-29.9 4.7-42.9q0-0.3 0.1-0.6 0-0.3 0.2-0.6 0.1-0.3 0.3-0.6 0.2-0.3 0.4-0.5 0.2-0.2 0.5-0.4 0.2-0.1 0.5-0.3 0.3-0.1 0.6-0.2 0.3-0.1 0.6-0.2 0.3 0 0.6 0 0.3-0.1 0.6-0.1 0.3 0 0.6 0 0.3-0.1 0.6-0.1l2.3-0.1 8.9-0.4 15.7-0.7 22.5-1.1 6-0.3h1.5 0.6-0.6l-1.5 0.1-6 0.4-22.5 1.2-15.7 0.8-8.9 0.4-2.3 0.1q-0.3 0-0.6 0-0.3 0.1-0.6 0.1-0.3 0-0.6 0-0.2 0.1-0.5 0.1-0.3 0.1-0.6 0.2-0.3 0-0.5 0.2-0.3 0.1-0.5 0.3-0.2 0.1-0.4 0.3-0.2 0.2-0.4 0.4-0.2 0.3-0.3 0.5-0.1 0.3-0.1 0.6-0.1 0.2-0.1 0.5c-1.4 13-2.9 27.4-4.6 42.9v0.2h-0.2l-18.9 0.8-9.9 0.4-1.2 0.1q-0.2 0-0.3 0-0.1 0-0.3 0-0.1 0-0.2 0.1-0.2 0-0.3 0.1-0.2 0.1-0.4 0.4-0.2 0.2-0.3 0.4-0.1 0.3 0 0.6 0 0.2 0.1 0.5 0 0.1 0.1 0.2 0.1 0.2 0.2 0.3 0.1 0.1 0.2 0.1 0.1 0.1 0.2 0.2 0.1 0 0.3 0.1 0.1 0 0.2 0 0.2 0.1 0.3 0.1 0.2 0 0.3-0.1l2.5-0.1 94.2-3.8-0.2 0.1c1.7-16 3.1-29.1 4-38.1q0.4-3.4 0.7-6 0-0.3 0.1-0.6 0-0.3 0-0.6 0-0.3 0-0.6 0-0.3 0-0.6 0-0.3-0.1-0.5 0-0.3-0.1-0.5-0.1-0.2-0.3-0.4-0.1-0.3-0.2-0.4-0.2-0.3-0.5-0.5-0.2-0.3-0.5-0.5-0.3-0.1-0.6-0.3-0.3-0.1-0.7-0.2-0.1 0-0.2 0-0.1 0-0.2 0-0.1 0-0.3 0-0.1 0-0.2 0z"/><path class="b" d="m262.9 206.5c0.1 1.5 1.1 2.8 2.5 3.3 1.4 0.5 2.9 0.1 3.9-1 1.1-1.1 1.3-2.7 0.7-4-0.6-1.4-2-2.2-3.5-2.2q-0.7 0.1-1.4 0.4-0.7 0.3-1.2 0.8-0.5 0.6-0.7 1.3-0.3 0.7-0.3 1.4z"/><path class="c" d="m230 233c0.1 0 1.5-11 3.2-24.6 1.7-13.6 3-24.6 2.9-24.7-0.2 0-1.6 11-3.2 24.7-1.7 13.6-3 24.5-2.9 24.6z"/><path class="c" d="m152.6 211.4l0.3 0.1 0.6 0.2 2.6 1 9.9 3.7 34.3 12.6h0.2l0.1-0.2 5.2-13.7 0.1-0.2-0.2-0.1-8.2-4.4-33.4-17.6 0.1 0.3 10.2-24.9q1.8-4.5 2.8-7 0.4-1.2 0.7-1.8l0.2-0.5c0-0.1 0-0.2 0-0.2q0 0-0.1 0.1 0 0 0 0 0 0 0 0 0 0.1 0 0.1-0.1 0.2-0.2 0.4c-0.2 0.5-0.5 1-0.8 1.9-0.7 1.6-1.7 4-2.9 6.9l-10.3 24.8-0.1 0.2 0.2 0.1 33.3 17.7 8.2 4.3-0.1-0.3-5.2 13.7 0.3-0.1-34.3-12.4-9.9-3.5-2.6-1-0.7-0.2q-0.1 0-0.1 0 0 0-0.1 0 0 0 0 0 0 0-0.1 0z"/><path fill-rule="evenodd" class="f" d="m180.3 126.7l15.7 7.2 4 9 0.6-9.2 4.8-3.8 2.5 3.6-4.6 13.1-7.2 0.3-17.3-13.9-0.6-0.3 2.1-6z"/><path class="c" d="m207.9 133.5q-0.2 0.4-0.4 0.7-0.1 0.3-0.3 0.7-0.1 0.3-0.3 0.7-0.1 0.3-0.3 0.7c-0.7 1.7-1.6 4.1-2.8 6.6l-0.1 0.2h0.4c-1.1-2.5-1.8-5-2.4-6.7q-0.1-0.3-0.2-0.7-0.2-0.3-0.3-0.7-0.1-0.3-0.2-0.7-0.2-0.3-0.3-0.6 0 0.3 0.1 0.7 0.1 0.4 0.2 0.7 0 0.4 0.1 0.7 0.1 0.4 0.3 0.7 0.2 0.9 0.5 1.8 0.2 0.8 0.5 1.7 0.3 0.8 0.6 1.7 0.4 0.8 0.7 1.6l0.2 0.5 0.2-0.5 0.1-0.1c1.3-2.7 2.1-5 2.8-6.8q0.1-0.4 0.3-0.7 0.1-0.4 0.2-0.7 0.1-0.4 0.2-0.7 0.1-0.4 0.2-0.8z"/><path class="c" d="m178.2 132.7q0.1 0.1 0.2 0.2 0.1 0.1 0.3 0.2 0.1 0.1 0.2 0.2 0.1 0 0.3 0.1l2.7 2c2.3 1.6 5.5 3.8 9 6.3l4.2 2.8 0.3 0.3v-0.4c0.2-3.1 0.4-5.7 0.5-7.6 0-0.8 0-1.5 0.1-2.1q0-0.1 0-0.2 0-0.1 0-0.2 0-0.1 0-0.2 0-0.1 0-0.2-0.1 0.1-0.1 0.2 0 0.1 0 0.2 0 0.1-0.1 0.2 0 0.1 0 0.2-0.1 0.8-0.2 2.1c-0.2 1.9-0.4 4.5-0.6 7.5l0.3-0.2-4.1-2.8c-3.6-2.5-6.8-4.7-9.2-6.2l-2.8-1.8q-0.1-0.1-0.2-0.2-0.1-0.1-0.3-0.2-0.1 0-0.2-0.1-0.2-0.1-0.3-0.1z"/><path class="c" d="m216.7 212.7q0 0 0.1-0.1 0 0 0-0.1 0.1 0 0.1-0.1 0 0 0-0.1 0.1-0.2 0.1-0.3 0.1-0.2 0.1-0.3 0.1-0.2 0.1-0.4 0.1-0.1 0.1-0.3 0.1-0.6 0.2-1.2 0.1-0.7 0.1-1.3 0.1-0.6 0.1-1.2 0-0.7 0-1.3c0.1-2.1 0-4.7-0.1-7.6-0.1-2.9-0.2-6.2-0.4-9.6v0.1q0.7-0.8 1.3-1.6 0.7-0.8 1.2-1.7 0.6-0.9 1.1-1.9 0.4-0.9 0.8-1.9 0.3-0.8 0.5-1.6 0.3-0.8 0.4-1.6 0.2-0.8 0.3-1.6 0.2-0.8 0.2-1.6 0-0.8 0-1.6 0-0.8 0-1.5-0.1-0.8-0.2-1.5 0-0.8-0.2-1.6-0.2-1.2-0.5-2.5-0.3-1.2-0.6-2.5-0.4-1.2-0.7-2.5-0.4-1.2-0.8-2.5-0.3-0.8-0.5-1.6-0.2-0.9-0.4-1.7-0.3-0.8-0.4-1.7-0.2-0.8-0.4-1.7c-0.3-1.6-0.4-2.5-0.4-2.5q0 0.1 0 0.2 0 0 0 0.1 0 0.1 0 0.2 0 0.1 0 0.2 0 0.6 0.2 1.9 0.1 0.8 0.3 1.7 0.2 0.8 0.4 1.7 0.2 0.8 0.4 1.7 0.2 0.8 0.4 1.6 0.4 1.3 0.8 2.5 0.3 1.2 0.6 2.5 0.3 1.2 0.6 2.5 0.3 1.3 0.5 2.5 0.2 0.8 0.3 1.5 0 0.8 0.1 1.5 0 0.8 0 1.5 0 0.8 0 1.5-0.1 0.8-0.2 1.6-0.1 0.8-0.3 1.6-0.1 0.8-0.4 1.6-0.2 0.8-0.5 1.5-0.4 1-0.8 1.9-0.5 0.9-1 1.8-0.6 0.9-1.2 1.7-0.6 0.9-1.3 1.6l-0.1 0.1v0.1c0.2 3.5 0.3 6.7 0.5 9.6 0.1 2.9 0.2 5.5 0.2 7.6q0 0.6 0 1.3 0 0.6-0.1 1.2 0 0.7-0.1 1.3 0 0.6-0.1 1.2 0 0.2-0.1 0.4 0 0.3-0.1 0.5 0 0.2-0.1 0.4 0 0.2-0.1 0.4z"/><path class="c" d="m202.5 212.5q0-0.1 0-0.2 0 0 0-0.1 0-0.1 0-0.2 0-0.1 0-0.2c0-0.5 0.1-1.2 0.2-2 0.1-1.7 0.2-4.3 0.3-7.5 0.2-6.3 0.2-15-0.2-24.6-0.4-9.7-1.2-18.4-1.9-24.6-0.4-3.2-0.7-5.7-0.9-7.5q-0.2-1.2-0.3-2-0.1 0-0.1-0.1 0-0.1 0-0.2 0-0.1 0-0.2-0.1-0.1-0.1-0.1 0 0 0 0.1 0 0.1 0 0.2 0 0.1 0 0.2 0 0.1 0 0.2c0 0.5 0.1 1.1 0.2 2 0.2 1.8 0.5 4.3 0.8 7.4 0.6 6.3 1.3 15 1.7 24.6 0.5 9.6 0.5 18.3 0.4 24.6 0 3.1-0.1 5.6-0.1 7.5q0 1.2 0 2 0 0.1 0 0.2 0 0 0 0.1 0 0.1 0 0.2 0 0.1 0 0.2z"/><path class="c" d="m164.8 138c0 0.1 1.3-0.1 3.3 0.2q2 0.3 3.8 1.1 1.8 0.9 3.3 2.2 1.5 1.3 2.6 2.9 1.1 1.7 1.7 3.6c0.7 1.9 0.7 3.2 0.8 3.2q0-0.1 0-0.2 0-0.1 0-0.2 0-0.1 0-0.3 0-0.1 0-0.2 0-0.3-0.1-0.6 0-0.3-0.1-0.6 0-0.3-0.1-0.6-0.1-0.3-0.1-0.6-0.6-2-1.7-3.7-1.1-1.8-2.7-3.1-1.5-1.3-3.4-2.2-1.9-0.8-4-1-0.3 0-0.6 0-0.3-0.1-0.6-0.1-0.3 0-0.6 0.1-0.3 0-0.6 0-0.1 0-0.2 0-0.1 0-0.3 0-0.1 0-0.2 0-0.1 0.1-0.2 0.1z"/><path class="c" d="m155.7 196.7q0.5-0.4 0.9-0.7 0.5-0.4 1-0.7 0.5-0.3 1-0.6 0.5-0.3 1-0.5 0.6-0.2 1.2-0.4 0.5-0.2 1.1-0.3 0.6-0.1 1.2-0.2 0.5-0.1 1.1-0.1-0.1-0.1-0.3-0.2-0.2 0-0.4 0-0.1-0.1-0.3-0.1-0.2 0-0.4 0.1-0.4 0-0.8 0-0.5 0.1-0.9 0.1-0.4 0.1-0.8 0.3-0.5 0.1-0.9 0.3-0.4 0.1-0.7 0.3-0.4 0.2-0.8 0.5-0.3 0.2-0.7 0.5-0.3 0.2-0.6 0.5c-0.6 0.7-0.9 1.2-0.9 1.2z"/><path class="c" d="m174.6 186.4q0.1 0 0.1 0.1 0.1 0 0.2 0.1 0.1 0 0.2 0 0.1 0.1 0.1 0.1 0.3 0.1 0.5 0.2 0.3 0.1 0.5 0.2 0.3 0.1 0.5 0.2 0.3 0 0.5 0.1 1.7 0.5 3.4 0.7 1.7 0.2 3.4 0.1 1.8 0 3.4-0.4 1.7-0.3 3.3-0.9 0.3-0.1 0.5-0.2 0.3-0.1 0.5-0.2 0.2-0.1 0.5-0.3 0.2-0.1 0.4-0.2 0.7-0.4 0.7-0.4c-0.1 0-1 0.4-2.7 0.9q-1.6 0.6-3.2 0.9-1.7 0.3-3.4 0.3-1.7 0.1-3.3-0.1-1.7-0.1-3.4-0.5c-1.7-0.4-2.7-0.8-2.7-0.7z"/><path fill-rule="evenodd" class="h" d="m44 100h58c11 0 20 9 20 20 0 11-9 20-20 20h-58c-11 0-20-9-20-20 0-11 9-20 20-20z"/><path fill-rule="evenodd" class="i" d="m44 100.5h58c10.8 0 19.5 8.7 19.5 19.5 0 10.8-8.7 19.5-19.5 19.5h-58c-10.8 0-19.5-8.7-19.5-19.5 0-10.8 8.7-19.5 19.5-19.5z"/><path class="j" d="m47.5 112c-3.2 0-4.5 2.3-4.5 2.3 0 0-1.3-2.3-4.5-2.3-2.6 0-4.8 2.3-4.8 4.9 0 5 6 9.2 8.4 10.6q0.9 0.4 1.8 0c2.4-1.4 8.4-5.6 8.4-10.6 0-2.6-2.2-4.9-4.8-4.9z"/><path fill-rule="evenodd" class="j" d="m43 127.7q0.5 0 0.9-0.2c2.4-1.4 8.4-5.6 8.4-10.6 0-2.6-2.2-4.9-4.8-4.9-3.2 0-4.5 2.3-4.5 2.3z"/><path class="b" d="m45.7 120.1q0 0.3-0.3 0.5-0.2 0.2-0.5 0.2h-1v1.1q0 0.3-0.3 0.5-0.2 0.3-0.5 0.3h-0.2q-0.3 0-0.5-0.3-0.3-0.2-0.3-0.5v-1.1h-1q-0.3 0-0.5-0.2-0.3-0.2-0.3-0.5v-0.2q0-0.3 0.3-0.5 0.2-0.2 0.5-0.2h1v-1.1q0-0.3 0.3-0.5 0.2-0.3 0.5-0.3h0.2q0.3 0 0.5 0.3 0.3 0.2 0.3 0.5v1.1h1q0.3 0 0.5 0.2 0.3 0.2 0.3 0.5z"/><path fill-rule="evenodd" class="k" d="m104 20h58c11 0 20 9 20 20 0 11-9 20-20 20h-58c-11 0-20-9-20-20 0-11 9-20 20-20z"/><path fill-rule="evenodd" class="l" d="m104 20.5h58c10.8 0 19.5 8.7 19.5 19.5 0 10.8-8.7 19.5-19.5 19.5h-58c-10.8 0-19.5-8.7-19.5-19.5 0-10.8 8.7-19.5 19.5-19.5z"/><path class="j" d="m111.5 36.3h-16.5l1.5-3.7q0.2-0.6 0.7-1 0.6-0.3 1.2-0.4h9.6q0.7 0 1.2 0.4 0.5 0.4 0.8 1z"/><path class="m" d="m95.5 46.7h-1q-0.2 0-0.3-0.1-0.2-0.1-0.3-0.2-0.1-0.1-0.2-0.3-0.1-0.1-0.1-0.3v-6.2q0-0.2 0.1-0.4 0.1-0.1 0.2-0.3 0.1-0.1 0.3-0.2 0.1 0 0.3 0h1q0.4 0 0.6 0.2 0.3 0.3 0.3 0.7v6.2q-0.1 0.4-0.3 0.6-0.3 0.3-0.6 0.3z"/><path class="m" d="m111.9 46.7h-0.9q-0.2 0-0.4-0.1-0.1-0.1-0.3-0.2-0.1-0.1-0.2-0.3 0-0.1 0-0.3v-6.2q0-0.4 0.2-0.7 0.3-0.2 0.7-0.2h0.9q0.2 0 0.4 0 0.1 0.1 0.3 0.2 0.1 0.2 0.2 0.3 0 0.2 0 0.4v6.2q0 0.2-0.1 0.3 0 0.2-0.1 0.3-0.2 0.1-0.3 0.2-0.2 0.1-0.4 0.1z"/><path class="n" d="m96.4 36.2l1.2-3.1q0.1-0.4 0.4-0.6 0.4-0.2 0.8-0.2h8.9q0.4 0 0.7 0.2 0.3 0.2 0.5 0.6l1.1 3.1z"/><path class="j" d="m110.3 44.5h-14.1c-0.7 0-1.3-0.3-1.8-0.7-0.5-0.5-0.7-1.1-0.7-1.8v-3.5c0-0.6 0.2-1.3 0.7-1.7 0.5-0.5 1.1-0.8 1.8-0.8h14.1c0.7 0 1.3 0.3 1.8 0.8 0.5 0.4 0.7 1.1 0.7 1.7v3.5c0 0.7-0.3 1.3-0.7 1.8-0.5 0.4-1.2 0.7-1.8 0.7z"/><path class="o" d="m112.8 38.4v1.2q-9.6 0.8-19.2 0.1v-1.3c0-0.6 0.3-1.2 0.7-1.7 0.5-0.4 1.1-0.7 1.7-0.7h14.4c0.6 0 1.2 0.3 1.7 0.7 0.4 0.5 0.7 1.1 0.7 1.7z"/><path class="p" d="m95.8 39.3q0.5 0 0.8-0.2 0.4-0.3 0.5-0.7 0.2-0.3 0.1-0.8-0.1-0.4-0.4-0.7-0.3-0.3-0.7-0.4-0.4 0-0.8 0.1-0.4 0.2-0.6 0.5-0.3 0.4-0.3 0.8c0 0.4 0.2 0.7 0.5 1 0.2 0.3 0.6 0.4 0.9 0.4z"/><path class="p" d="m110.6 39.3q0.4 0 0.8-0.2 0.3-0.3 0.5-0.7 0.2-0.3 0.1-0.8-0.1-0.4-0.4-0.7-0.3-0.3-0.7-0.4-0.4 0-0.8 0.1-0.4 0.2-0.6 0.5-0.3 0.4-0.3 0.8 0 0.3 0.1 0.6 0.1 0.2 0.3 0.4 0.2 0.2 0.5 0.3 0.2 0.1 0.5 0.1z"/><path class="q" d="m108.3 42.2h-10.2c-0.3 0-0.6-0.1-0.8-0.3-0.3-0.3-0.4-0.6-0.4-0.9 0-0.6 0.2-1.2 0.6-1.6 0.5-0.4 1-0.6 1.6-0.6h8.2c0.6 0 1.2 0.2 1.6 0.6 0.4 0.4 0.7 1 0.7 1.6 0 0.3-0.2 0.6-0.4 0.9q-0.3 0.3-0.9 0.3z"/><path fill-rule="evenodd" class="r" d="m270 89h87c11 0 20 9 20 20 0 11-9 20-20 20h-87c-11 0-20-9-20-20 0-11 9-20 20-20z"/><path fill-rule="evenodd" class="s" d="m270 89.5h87c10.8 0 19.5 8.7 19.5 19.5 0 10.8-8.7 19.5-19.5 19.5h-87c-10.8 0-19.5-8.7-19.5-19.5 0-10.8 8.7-19.5 19.5-19.5z"/><path class="j" d="m268.4 120.8c1.6-0.1 3.1-0.4 4.6-1.1q2.3-0.9 3.9-2.7c1.2-1.2 2-2.5 2.6-4 0.6-1.5 0.9-3.1 0.9-4.7 0-1.6-0.3-3.2-0.9-4.7-0.6-1.5-1.4-2.9-2.6-4.1-1.1-1.1-2.4-2.1-3.9-2.7-1.5-0.7-3-1-4.6-1-1.7 0-3.2 0.3-4.7 1-1.5 0.6-2.8 1.6-3.9 2.7-1.2 1.2-2 2.6-2.6 4.1-0.6 1.5-0.9 3.1-0.8 4.7-0.1 1.6 0.2 3.2 0.8 4.7 0.6 1.5 1.4 2.8 2.6 4q1.7 1.8 3.9 2.7c1.5 0.7 3 1 4.7 1.1z"/><path class="t" d="m270 95.8q-0.4 0-0.8 0c3.1 0.3 5.9 1.7 8 4 2.1 2.3 3.2 5.4 3.1 8.5 0.1 3.1-1.1 6.1-3.1 8.4-2.1 2.3-4.9 3.7-8 4 0.3 0 0.6 0.1 0.8 0.1 1.6-0.1 3.2-0.4 4.7-1.1q2.2-0.9 3.9-2.7c1.1-1.2 2-2.5 2.6-4 0.6-1.5 0.9-3.1 0.8-4.7 0.1-1.6-0.2-3.2-0.8-4.7-0.6-1.6-1.5-2.9-2.6-4.1-1.1-1.1-2.4-2.1-3.9-2.7-1.5-0.7-3.1-1-4.7-1z"/><path class="b" d="m271.9 104.2v1.3h0.9c0.3 0 0.6 0.3 0.6 0.7 0 0.3-0.3 0.6-0.6 0.6h-1q0 0.6-0.3 1.1-0.3 0.6-0.8 1c-0.9 0.5-1.9 0.7-3 0.7v1q0 1.6 1.3 1.6 0.3 0 0.6-0.1 0.2-0.1 0.4-0.3 0-0.1 0.1-0.2c0.2-0.5 0.7-1 1.2-1 0.6 0 1 0.4 0.9 0.9q-0.2 0.8-0.8 1.4-0.4 0.5-1 0.7-0.6 0.2-1.3 0.2-0.7 0-1.3-0.2-0.7-0.2-1.2-0.7c-0.6-0.7-0.9-1.7-0.9-2.6v-2.1q1.3 0 2.5-0.1 0.6-0.1 1.2-0.4c0.2-0.3 0.4-0.6 0.4-0.9h-3.8c-0.3 0-0.6-0.3-0.6-0.6 0-0.4 0.3-0.7 0.6-0.7h3.9v-1.3h-3.8c-0.4 0-0.7-0.3-0.7-0.7 0-0.4 0.3-0.7 0.7-0.7h6.6c0.4 0 0.7 0.3 0.7 0.7 0 0.4-0.3 0.7-0.7 0.7z"/><path fill-rule="evenodd" class="u" d="m328 182h57c11 0 20 9 20 20 0 11-9 20-20 20h-57c-11 0-20-9-20-20 0-11 9-20 20-20z"/><path fill-rule="evenodd" class="v" d="m328 182.5h57c10.8 0 19.5 8.7 19.5 19.5 0 10.8-8.7 19.5-19.5 19.5h-57c-10.8 0-19.5-8.7-19.5-19.5 0-10.8 8.7-19.5 19.5-19.5z"/><path class="w" d="m320.7 198.5l4.6 3.4 2.9-2.9-5.8-2.5c-0.5-0.2-1-0.1-1.4 0.3l-0.4 0.4c-0.4 0.4-0.3 1 0.1 1.3z"/><path class="w" d="m330.6 208.4l-3.4-4.6 2.8-2.9 2.6 5.8c0.2 0.5 0.1 1-0.3 1.3l-0.5 0.5c-0.3 0.4-0.9 0.3-1.2-0.1z"/><path class="w" d="m318.6 206.9l2.2 1 1.9-2.9h-3.7c-0.3 0-0.6 0.1-0.7 0.3-0.6 0.5-0.4 1.3 0.3 1.6z"/><path class="w" d="m322 210.4l-0.9-2.3 2.9-1.8v3.7q0 0.4-0.3 0.7c-0.5 0.5-1.4 0.3-1.7-0.3z"/><path class="j" d="m322.7 204.8l4.9-6.1 4.9-4.8c0.2-0.3 0.6-0.5 0.9-0.6 0.6-0.1 1.5-0.1 1.9 0.3 0.5 0.5 0.4 1.3 0.3 1.9-0.1 0.4-0.3 0.7-0.6 1l-4.8 4.8-6.1 5-2.9 2.2c-0.2 0.2-0.5 0.2-0.7 0-0.2-0.2-0.3-0.6-0.1-0.8z"/><path class="x" d="m334 196.4c-0.1 0.1-0.2 0.1-0.3 0.1-0.2 0-0.2-0.2-0.2-0.3 0 0 0.1-0.4-0.1-0.7-0.3-0.2-0.6-0.1-0.6-0.1-0.2 0.1-0.3 0-0.4-0.2 0-0.1 0.1-0.3 0.3-0.3 0-0.1 0.7-0.3 1.2 0.2 0.4 0.4 0.2 1.1 0.2 1.1 0 0.1-0.1 0.2-0.1 0.2z"/><path fill-rule="evenodd" class="x" d="m319.6 209.3c-0.2-0.2-0.2-0.6 0-0.8l2.3-2.3c0.2-0.3 0.6-0.3 0.8 0 0.3 0.2 0.3 0.6 0 0.8l-2.2 2.3c-0.3 0.3-0.7 0.3-0.9 0z"/><path fill-rule="evenodd" class="y" d="m241 22h73c11 0 20 9 20 20 0 11-9 20-20 20h-73c-11 0-20-9-20-20 0-11 9-20 20-20z"/><path fill-rule="evenodd" class="z" d="m241 22.5h73c10.8 0 19.5 8.7 19.5 19.5 0 10.8-8.7 19.5-19.5 19.5h-73c-10.8 0-19.5-8.7-19.5-19.5 0-10.8 8.7-19.5 19.5-19.5z"/><path class="p" d="m239.3 36c-4.3 0.1-9 1.5-11.4 4.5 1.8 0 3.5 0.5 5 1.5 2.1-0.6 4.4-0.5 6.4 0.3 2-0.8 4.2-0.9 6.3-0.3 1.5-1 3.3-1.5 5.1-1.5-2.5-3-7.1-4.4-11.4-4.5z"/><path fill-rule="evenodd" class="m" d="m239.5 37.7c0.3 0 0.5 0.2 0.5 0.5v11.1q0 0.3 0.3 0.6 0.2 0.2 0.6 0.2 0.3 0 0.6-0.2 0.2-0.3 0.2-0.6c0-0.3 0.3-0.5 0.5-0.5 0.3 0 0.5 0.2 0.5 0.5 0 0.4-0.2 0.9-0.5 1.2-0.4 0.4-0.8 0.6-1.3 0.6-0.5 0-1-0.2-1.3-0.6-0.3-0.3-0.5-0.8-0.5-1.2v-11.1c0-0.3 0.2-0.5 0.4-0.5z"/><path class="A" d="m239.3 33.1c-5.5 0-10.4 3.1-11.4 7.4q1-0.5 2.1-0.7c1.4-0.2 4 0 4.7 0.4 0.9-0.8 2.6-1.4 4.6-1.4 2 0 3.7 0.6 4.6 1.4 0.7-0.4 3.3-0.6 4.6-0.4q1.2 0.2 2.2 0.7c-1-4.3-5.9-7.4-11.4-7.4z"/><path class="o" d="m239.3 33.1c-5.5 0-10.4 3.1-11.4 7.4q1-0.5 2.1-0.7c1.4-0.2 4 0 4.7 0.4 0.9-0.8 2.6-1.4 4.6-1.4 2 0 3.7 0.6 4.6 1.4 0.7-0.4 3.3-0.6 4.6-0.4q1.2 0.2 2.2 0.7c-1-4.3-5.9-7.4-11.4-7.4z"/><path class="t" d="m239.3 33.1v5.7c2 0 3.7 0.6 4.6 1.4 0.7-0.4 3.3-0.6 4.6-0.4q1.2 0.2 2.2 0.7c-1-4.3-5.9-7.4-11.4-7.4z"/><path class="j" d="m242.6 36c-0.8-1.3-2-2.3-3.3-2.9-1.4 0.6-2.5 1.6-3.3 2.9-0.8 1.3-1.2 2.7-1.3 4.2 0.8-0.8 2.6-1.4 4.6-1.4 2 0 3.7 0.6 4.6 1.4-0.1-1.5-0.6-2.9-1.3-4.2z"/><path fill-rule="evenodd" class="B" d="m54 172h102c11 0 20 9 20 20 0 11-9 20-20 20h-102c-11 0-20-9-20-20 0-11 9-20 20-20z"/><path fill-rule="evenodd" class="C" d="m54 172.5h102c10.8 0 19.5 8.7 19.5 19.5 0 10.8-8.7 19.5-19.5 19.5h-102c-10.8 0-19.5-8.7-19.5-19.5 0-10.8 8.7-19.5 19.5-19.5z"/><path class="t" d="m57.8 196.8c0 2.9-3.3 3.5-7.3 3.5-4.1 0-7.4-0.6-7.4-3.5 0-2.9 3.3-5.2 7.4-5.2 4 0 7.3 2.3 7.3 5.2z"/><path class="p" d="m50.5 190.4c1.8 0 3.2-1.5 3.2-3.2 0-1.8-1.4-3.3-3.2-3.3-1.8 0-3.2 1.5-3.2 3.3 0 1.7 1.4 3.2 3.2 3.2z"/><path class="q" d="m55.7 193.1c-2.9 0.5-5 2.3-5 4.5 0 1.4 0.8 2.2 2.1 2.6 2.9-0.2 5-1.1 5-3.4q0-1.1-0.6-2.1-0.5-1-1.5-1.6z"/><path class="j" d="m62.9 197.5c0 2.3-2.6 2.8-5.8 2.8-3.2 0-5.7-0.5-5.7-2.8 0-2.2 2.5-4.1 5.7-4.1 3.2 0 5.8 1.9 5.8 4.1z"/><path class="p" d="m57.1 192.5c1.4 0 2.6-1.1 2.6-2.5 0-1.4-1.2-2.5-2.6-2.5-1.4 0-2.5 1.1-2.5 2.5 0 1.4 1.1 2.5 2.5 2.5z"/><path class="m" d="m69.6 115.7v8.3h-1.4v-3.6h-3.9v3.6h-1.4v-8.3h1.4v3.5h3.9v-3.5zm3.2 1.1v2.4h2.8v1.1h-2.8v2.6h3.2v1.1h-4.6v-8.4h4.6v1.2zm10 5.5h-3.5l-0.6 1.7h-1.5l3-8.4h1.6l3 8.4h-1.4zm-0.4-1.1l-1.4-3.9-1.4 3.9zm5.1 1.7h2.9v1.1h-4.2v-8.3h1.3zm9.4-7.3v1.1h-2.2v7.3h-1.4v-7.3h-2.2v-1.1zm8 0v8.4h-1.4v-3.7h-3.9v3.7h-1.3v-8.4h1.3v3.6h3.9v-3.6z"/><path class="m" d="m77.8 187.7v1.1h-3.5v2.4h2.7v1.2h-2.7v3.6h-1.4v-8.3zm6.3 6.6h-3.5l-0.6 1.7h-1.4l3-8.4h1.5l3 8.4h-1.4zm-0.4-1.1l-1.3-3.9-1.4 3.9zm12.5-5.5v8.3h-1.4v-5.7l-2.5 5.7h-1l-2.5-5.7v5.7h-1.4v-8.3h1.5l2.9 6.5 2.9-6.5zm3.2 0v8.3h-1.4v-8.3zm3.2 7.2h2.8v1.1h-4.2v-8.3h1.4zm10.1-7.3l-2.7 5.3v3.1h-1.4v-3.1l-2.8-5.3h1.6l1.9 4.1 1.9-4.1zm10.9 0v8.4h-1.4v-3.7h-3.9v3.7h-1.4v-8.4h1.4v3.6h3.9v-3.6zm3.2 1.1v2.5h2.9v1.1h-2.9v2.6h3.2v1.1h-4.6v-8.4h4.6v1.1zm10 5.6h-3.5l-0.6 1.7h-1.4l3-8.4h1.5l3 8.4h-1.4zm-0.4-1.1l-1.4-3.9-1.3 3.9zm5.1 1.7h2.8v1.1h-4.2v-8.4h1.4zm9.3-7.2v1.1h-2.2v7.2h-1.4v-7.2h-2.2v-1.1zm8 0v8.3h-1.3v-3.6h-3.9v3.6h-1.4v-8.3h1.4v3.6h3.9v-3.6z"/><path class="m" d="m131.7 35.7v8.3h-1.4v-5.7l-2.5 5.7h-1l-2.5-5.7v5.7h-1.4v-8.3h1.5l2.9 6.5 2.9-6.5zm5.6 8.4q-1.1 0-2.1-0.6-1-0.5-1.6-1.5-0.5-1-0.5-2.2 0-1.2 0.5-2.2 0.6-1 1.6-1.5 1-0.5 2.1-0.5 1.2 0 2.2 0.5 1 0.5 1.5 1.5 0.6 1 0.6 2.2 0 1.2-0.6 2.2-0.5 1-1.5 1.5-1 0.6-2.2 0.6zm0-1.2q0.9 0 1.5-0.4 0.6-0.4 1-1.1 0.4-0.7 0.4-1.6 0-0.9-0.4-1.6-0.4-0.7-1-1.1-0.6-0.3-1.5-0.3-0.8 0-1.5 0.3-0.6 0.4-1 1.1-0.3 0.7-0.3 1.6 0 0.9 0.3 1.6 0.4 0.7 1 1.1 0.7 0.4 1.5 0.4zm11-7.2v1.1h-2.2v7.2h-1.4v-7.2h-2.2v-1.1zm5.2 8.4q-1.2 0-2.2-0.6-0.9-0.5-1.5-1.5-0.6-1-0.6-2.2 0-1.2 0.6-2.2 0.6-1 1.5-1.5 1-0.5 2.2-0.5 1.2 0 2.1 0.5 1 0.5 1.6 1.5 0.5 1 0.5 2.2 0 1.2-0.5 2.2-0.6 1-1.6 1.5-0.9 0.6-2.1 0.6zm0-1.2q0.8 0 1.5-0.4 0.6-0.4 1-1.1 0.3-0.7 0.3-1.6 0-0.9-0.3-1.6-0.4-0.7-1-1.1-0.7-0.3-1.5-0.3-0.8 0-1.5 0.3-0.6 0.4-1 1.1-0.4 0.7-0.4 1.6 0 0.9 0.4 1.6 0.4 0.7 1 1.1 0.7 0.4 1.5 0.4zm9.9 1.1l-1.9-3.3h-1v3.3h-1.4v-8.3h2.9q0.9 0 1.6 0.3 0.7 0.3 1 0.9 0.3 0.6 0.3 1.3 0 0.8-0.5 1.4-0.4 0.7-1.4 0.9l2.1 3.5zm-3-4.4h1.5q0.8 0 1.2-0.4 0.4-0.4 0.4-1 0-0.7-0.4-1.1-0.4-0.3-1.2-0.3h-1.5z"/><path class="m" d="m265.3 37.7v1.1h-2.2v7.2h-1.4v-7.2h-2.2v-1.1zm2.7 1.1v2.4h2.9v1.1h-2.9v2.6h3.3v1.1h-4.6v-8.4h4.6v1.2zm9.2 7.2l-1.9-3.3h-1v3.3h-1.4v-8.3h2.9q0.9 0 1.6 0.3 0.7 0.3 1 0.9 0.3 0.6 0.3 1.3 0 0.8-0.5 1.4-0.4 0.7-1.4 0.9l2.1 3.5zm-3-4.4h1.5q0.8 0 1.2-0.4 0.3-0.4 0.3-1 0-0.7-0.3-1.1-0.4-0.3-1.2-0.3h-1.5zm15-3.9v8.3h-1.4v-5.7l-2.5 5.7h-1l-2.5-5.7v5.7h-1.4v-8.3h1.5l2.9 6.5 2.9-6.5zm6.3-3l-3.3 13.4h-1.3l3.2-13.4zm3.1 10.2h2.8v1.1h-4.2v-8.3h1.4zm5.3-7.3v8.4h-1.3v-8.4zm6.7 0v1.1h-3.6v2.5h2.8v1.1h-2.8v3.7h-1.3v-8.4zm2.6 1.1v2.5h2.9v1.1h-2.9v2.6h3.2v1.1h-4.6v-8.4h4.6v1.1z"/><path class="m" d="m290.3 104.7v8.3h-1.4v-8.3zm8.6 8.3h-1.3l-4.1-6.2v6.2h-1.4v-8.4h1.4l4.1 6.3v-6.3h1.3zm9-8.3l-3.1 8.3h-1.6l-3.1-8.3h1.4l2.5 6.9 2.5-6.9zm2.5 1.1v2.5h2.9v1.1h-2.9v2.5h3.2v1.1h-4.6v-8.3h4.6v1.1zm7.7 7.3q-0.8 0-1.5-0.3-0.7-0.3-1.1-0.8-0.3-0.5-0.3-1.3h1.4q0.1 0.6 0.4 0.9 0.4 0.4 1.1 0.4 0.7 0 1.1-0.4 0.4-0.3 0.4-0.8 0-0.5-0.2-0.7-0.3-0.3-0.6-0.4-0.4-0.2-1.1-0.3-0.8-0.3-1.3-0.5-0.5-0.2-0.9-0.7-0.3-0.4-0.3-1.2 0-0.7 0.3-1.3 0.4-0.5 1.1-0.8 0.6-0.3 1.5-0.3 1.2 0 1.9 0.6 0.8 0.6 0.9 1.7h-1.5q0-0.5-0.4-0.8-0.4-0.3-1.1-0.3-0.6 0-0.9 0.3-0.4 0.3-0.4 0.8 0 0.4 0.2 0.7 0.3 0.2 0.6 0.3 0.4 0.2 1 0.4 0.8 0.2 1.3 0.4 0.6 0.2 0.9 0.7 0.4 0.5 0.4 1.3 0 0.6-0.3 1.2-0.4 0.5-1 0.9-0.7 0.3-1.6 0.3zm9.9-8.4v1.1h-2.2v7.2h-1.4v-7.2h-2.2v-1.1zm10.1 0v8.3h-1.3v-5.7l-2.6 5.7h-0.9l-2.6-5.7v5.7h-1.3v-8.3h1.4l3 6.5 2.9-6.5zm3.2 1.1v2.5h2.8v1.1h-2.8v2.5h3.2v1.1h-4.6v-8.3h4.6v1.1zm11.8 7.2h-1.4l-4.1-6.2v6.2h-1.4v-8.3h1.4l4.1 6.2v-6.2h1.4zm7.2-8.3v1.1h-2.3v7.2h-1.3v-7.2h-2.3v-1.1z"/><path class="m" d="m352.3 197.7v1.1h-2.2v7.2h-1.4v-7.2h-2.2v-1.1zm5.7 8.3l-1.9-3.3h-1.1v3.3h-1.3v-8.3h2.8q1 0 1.7 0.3 0.6 0.3 0.9 0.9 0.4 0.6 0.4 1.3 0 0.8-0.5 1.4-0.5 0.7-1.4 0.9l2 3.5zm-2.9-4.4h1.5q0.7 0 1.1-0.4 0.4-0.4 0.4-1 0-0.7-0.4-1.1-0.4-0.3-1.1-0.3h-1.5zm11.2 2.7h-3.5l-0.6 1.7h-1.4l3-8.3h1.5l3 8.3h-1.4zm-0.4-1.1l-1.3-3.9-1.4 3.9zm10.9-5.5l-3.1 8.3h-1.6l-3.2-8.3h1.5l2.5 6.9 2.5-6.9zm2.5 1.1v2.4h2.9v1.1h-2.9v2.6h3.2v1.1h-4.6v-8.3h4.6v1.1zm6.3 6.1h2.8v1.1h-4.2v-8.3h1.4z"/></svg>