<svg id="Layer_1" data-name="Layer 1" xmlns="http://www.w3.org/2000/svg" width="750" height="234.43" viewBox="0 0 750 234.43"><defs><style>.cls-1{fill:#c5221a;}</style></defs><title>future-generali-india-life-insurance-logo</title><polygon class="cls-1" points="20.68 233.53 15.04 233.53 15.04 192.75 3.56 192.75 3.56 187.75 32.23 187.75 32.23 192.75 20.68 192.75 20.68 233.53"/><path class="cls-1" d="M42.34,468.42c0,10.58,1,19.17,8.84,19.17s8.87-8.59,8.87-19.17-1-19.18-8.87-19.18-8.84,8.61-8.84,19.18m23.6,0c0,11.54-2.13,23.8-14.76,23.8S36.44,480,36.44,468.42s2.12-23.78,14.74-23.78,14.76,12.24,14.76,23.78" transform="translate(0 -257.78)"/><polygon class="cls-1" points="87.28 233.53 81.63 233.53 81.63 192.75 70.16 192.75 70.16 187.75 98.82 187.75 98.82 192.75 87.28 192.75 87.28 233.53"/><path class="cls-1" d="M106.38,474.13h12.3L112.86,452h-.13Zm2.75-28.59h7.57L129,491.31h-5.9l-3.26-12.57h-14.6l-3.42,12.57H95.93Z" transform="translate(0 -257.78)"/><polygon class="cls-1" points="132.84 187.75 138.49 187.75 138.49 228.53 157.09 228.53 157.09 233.53 132.84 233.53 132.84 187.75"/><rect class="cls-1" x="177.96" y="187.75" width="5.64" height="45.77"/><polygon class="cls-1" points="191.67 187.75 198.99 187.75 214.12 225.97 214.25 225.97 214.25 187.75 219.9 187.75 219.9 233.53 212.13 233.53 197.46 196.47 197.32 196.47 197.32 233.53 191.67 233.53 191.67 187.75"/><path class="cls-1" d="M247.38,457.4c0-4.81-1.72-8.16-7.11-8.16-4.75,0-7.56,2.58-7.56,7.45,0,12.89,21.59,5.2,21.59,21.93,0,10.59-7.75,13.59-14.22,13.59-10.71,0-13.86-5.51-13.86-15.25h5.64c0,5.12.33,10.63,8.6,10.63a7.71,7.71,0,0,0,8-8.07c0-13-21.61-5.45-21.61-22.25,0-4.24,1.79-12.63,13.4-12.63,8.71,0,12.69,4.35,12.81,12.76h-5.64" transform="translate(0 -257.78)"/><path class="cls-1" d="M260.12,445.54h5.66v32.18c0,6.74,2.16,9.87,7.77,9.87,6,0,7.81-3.46,7.81-9.87V445.54H287v32.18c0,8.79-4.48,14.49-13.45,14.49-9.18,0-13.43-5.07-13.43-14.49V445.54" transform="translate(0 -257.78)"/><path class="cls-1" d="M300.19,466.31h5.58c3.34,0,9.43,0,9.43-8.85,0-4.49-3-7.31-8.27-7.31h-6.74v16.16m-5.65-20.77h14.82c7.19,0,11.74,4.23,11.74,11.47,0,5-1.74,10.27-7.06,11.54v.13c4,.45,6.22,3.72,6.48,7.63l.38,7.82c.26,5.07,1.1,6.35,2.44,7.18h-6.79c-1-1-1.42-4.36-1.55-6.6l-.37-7.12c-.45-6.29-3.92-6.66-6.81-6.66h-7.63v20.38h-5.65Z" transform="translate(0 -257.78)"/><path class="cls-1" d="M334.67,474.13H347L341.16,452H341Zm2.77-28.59H345l12.31,45.77h-5.9l-3.26-12.57H333.52l-3.4,12.57h-5.9Z" transform="translate(0 -257.78)"/><polygon class="cls-1" points="361.15 187.75 368.45 187.75 383.58 225.97 383.71 225.97 383.71 187.75 389.36 187.75 389.36 233.53 381.6 233.53 366.92 196.47 366.78 196.47 366.78 233.53 361.15 233.53 361.15 187.75"/><path class="cls-1" d="M425.44,475.61c-.52,8.65-3.91,16.6-13.91,16.6-13,0-14.75-12.25-14.75-23.79s2.12-23.78,14.75-23.78c9.37,0,13.26,5.26,13.52,14.23h-5.89c-.13-5.19-1.8-9.63-7.63-9.63-7.83,0-8.85,8.61-8.85,19.18s1,19.17,8.85,19.17c6.86,0,7.81-6.4,8-12h5.89" transform="translate(0 -257.78)"/><polygon class="cls-1" points="431.32 187.75 454.98 187.75 454.98 192.75 436.97 192.75 436.97 207.12 453.96 207.12 453.96 212.12 436.97 212.12 436.97 228.53 455.76 228.53 455.76 233.53 431.32 233.53 431.32 187.75"/><path class="cls-1" d="M497.09,457.4c0-4.81-1.73-8.16-7.11-8.16-4.76,0-7.57,2.58-7.57,7.45,0,12.89,21.6,5.2,21.6,21.93,0,10.59-7.76,13.59-14.23,13.59-10.71,0-13.84-5.51-13.84-15.25h5.64c0,5.12.32,10.63,8.59,10.63a7.71,7.71,0,0,0,7.95-8.07c0-13-21.61-5.45-21.61-22.25,0-4.24,1.8-12.63,13.4-12.63,8.71,0,12.7,4.35,12.82,12.76h-5.64" transform="translate(0 -257.78)"/><path class="cls-1" d="M515.61,468.42c0,10.58,1,19.17,8.86,19.17s8.83-8.59,8.83-19.17-1-19.18-8.83-19.18-8.86,8.61-8.86,19.18m23.59,0c0,11.54-2.11,23.8-14.73,23.8s-14.75-12.26-14.75-23.8,2.1-23.78,14.75-23.78,14.73,12.24,14.73,23.78" transform="translate(0 -257.78)"/><polygon class="cls-1" points="546.63 187.75 552.27 187.75 552.27 228.53 570.87 228.53 570.87 233.53 546.63 233.53 546.63 187.75"/><path class="cls-1" d="M575.21,445.54h5.64v32.18c0,6.74,2.19,9.87,7.76,9.87,6,0,7.83-3.46,7.83-9.87V445.54h5.63v32.18c0,8.79-4.47,14.49-13.46,14.49-9.15,0-13.4-5.07-13.4-14.49V445.54" transform="translate(0 -257.78)"/><polygon class="cls-1" points="623.55 233.53 617.9 233.53 617.9 192.75 606.42 192.75 606.42 187.75 635.08 187.75 635.08 192.75 623.55 192.75 623.55 233.53"/><rect class="cls-1" x="639.97" y="187.75" width="5.64" height="45.77"/><path class="cls-1" d="M657.64,468.42c0,10.58,1,19.17,8.85,19.17s8.86-8.59,8.86-19.17-1-19.18-8.86-19.18-8.85,8.61-8.85,19.18m23.6,0c0,11.54-2.11,23.8-14.75,23.8s-14.75-12.26-14.75-23.8,2.12-23.78,14.75-23.78,14.75,12.24,14.75,23.78" transform="translate(0 -257.78)"/><polygon class="cls-1" points="687.38 187.75 694.69 187.75 709.81 225.97 709.93 225.97 709.93 187.75 715.6 187.75 715.6 233.53 707.83 233.53 693.15 196.47 693.02 196.47 693.02 233.53 687.38 233.53 687.38 187.75"/><path class="cls-1" d="M743.08,457.4c0-4.81-1.74-8.16-7.11-8.16-4.76,0-7.56,2.58-7.56,7.45,0,12.89,21.59,5.2,21.59,21.93,0,10.59-7.74,13.59-14.22,13.59-10.71,0-13.86-5.51-13.86-15.25h5.64c0,5.12.33,10.63,8.61,10.63a7.7,7.7,0,0,0,7.94-8.07c0-13-21.6-5.45-21.6-22.25,0-4.24,1.78-12.63,13.4-12.63,8.71,0,12.69,4.35,12.81,12.76h-5.64" transform="translate(0 -257.78)"/><path class="cls-1" d="M395.37,383.43l.06-30.19c18.91,0,25.84-.93,29.14,22.26h2V349.68l-51.51,0v3.54H384v66.42h-9.83v3.51h53.08V396h-2.66c-2.65,20.53-7.85,23.65-22.43,23.65h-6.77V387.4h3.92c6.55.17,10.28,4,11.62,15.24h2.4V369.28c-.06.06-2.37,0-2.37,0,0,.17-.47,14.34-11.91,14.15h-3.65" transform="translate(0 -257.78)"/><path class="cls-1" d="M374.32,384.75H345.26v3.3h9.94v23.88c-1.67,6.07-10.6,8.6-13.27,8.6-18.57,0-17.25-27.15-17.25-34.44,0-6.64-.66-34.44,17.25-34.44,12.61,0,19.25,12.54,21.91,23.85h2c0-4.66.05-26.78,0-26.72,0-.18-8.65,6.24-8.68,6.14.19,0-4-5.95-15.28-5.95-21.92,0-30,21.87-29.87,37.12.1,14,6.54,37.74,29.87,37.74a17.81,17.81,0,0,0,15.28-8c0-.08,9.23,7.29,9.27,7.32V388.05h7.84v-3.3" transform="translate(0 -257.78)"/><path class="cls-1" d="M628.26,396.65l10.61-31.75,11.27,31.75H628.26M587.09,384H575.17V353.2h15.25c8.94,1.36,9.33,11.7,9.33,15,0,8-3.34,15.8-12.66,15.8M714,396c-2.65,20.53-7.85,23.6-22.43,23.6h-.89V353.23h9.28v-3.59H669.38v3.59h9.28v66.39h-7.35l-27.14-72h-4c.09,0-22.54,65.3-22.58,65.5,0-.2-1.71,5.6-5.43,6.32-3.43.16-3.18-1.63-3.18-2.25V404.63c0-3.3-.25-10.8-3.67-14.25-3.88-3.88-10.42-4.16-10.29-4.3s16.69-3.45,16.69-19.3c0-11.12-7.72-16.64-20.65-17.12H554.43v3.59h9.37v66.38h-9.37v3.54h30.06v-3.54h-9.38V387.7h12.52c21.69,1.79-3.72,35.5,24.7,35.47h17.92v-3.55c-1,0-7.57.19-8-4.39-.27-3.29,4.33-15.18,4.33-15.18H651c0-.05,7.59,19.58,7.66,19.58h-8.52v3.54h66.47V396Z" transform="translate(0 -257.78)"/><path class="cls-1" d="M518.29,353.2c18.9,0,25.9-.9,29.19,22.29h2V349.68H474.36v3.52h2c2.65,0,8.94.2,9.31,5.74h0V401.3l-35.14-51.62H431.36v3.52h3.17c3.77,0,9.06.17,9.3,5.74v54.27c0,5.3-7.93,7.32-11.25,7.32h0v2.64h25.89v-2.64c-3.3,0-11.29-2-11.29-7.32l.09-47.77c13.92,19.88,40.16,57.77,40.41,57.73h1.3V358.94c.39-5.54,6.67-5.74,9.31-5.74h8.63v66.46h-9.83v3.51h53.09V396h-2.66c-2.64,20.53-7.86,23.65-22.44,23.65h-6.75V387.4h3.9c6.57.17,10.28,4,11.61,15.25h2.41l0-33.37c0,.06-2.37,0-2.37,0,0,.17-.47,14.34-11.91,14.15h-3.62V353.2" transform="translate(0 -257.78)"/><polygon class="cls-1" points="750 95.44 750 91.85 720.03 91.85 720.03 95.44 729.46 95.44 729.49 161.81 720.03 161.81 720.03 165.38 750 165.38 750 161.81 740.59 161.81 740.59 95.44 750 95.44"/><path class="cls-1" d="M312.33,337.14v-3.57h9.94V267.1h-9.08v-3h51.33v25.39h-1.94c-.87-5.73-1.95-10.15-3.35-13.29a13,13,0,0,0-5.32-6.36,16.35,16.35,0,0,0-8.3-2.29c-1.62-.11-3.46-.11-5.5-.21s-4.23-.11-6.49-.11v30.36c0-.09.33-.09,1.08-.09a5.72,5.72,0,0,0,1.18.09h1.2a8.9,8.9,0,0,0,4.85-1.08,9.43,9.43,0,0,0,3.36-2.47c.32-.54.74-1.08,1.08-1.62s.65-1.2,1-1.84a7.64,7.64,0,0,0,.65-1.74,9,9,0,0,1,.44-1.61,8.62,8.62,0,0,0,.2-1.41c.13-.42.13-.86.24-1.18a4,4,0,0,1,.1-.76v-.45h2.38v33.3h-2.59a39,39,0,0,0-.66-3.9c-.21-1.07-.54-2.16-.76-3.23a16.45,16.45,0,0,0-2.37-4.65,7.41,7.41,0,0,0-3.36-2.59,10.26,10.26,0,0,0-4.32-.76h-3.67v32h9.83v3.57H312.33" transform="translate(0 -257.78)"/><path class="cls-1" d="M491.76,291.1c-.11-.87-.11-2-.32-3.23-.12-.76-.12-1.43-.23-2.17s-.1-1.53-.21-2.29a45.32,45.32,0,0,0-1-4.85,18.38,18.38,0,0,0-1.83-4.64,12.29,12.29,0,0,0-2.6-3.25,17.21,17.21,0,0,1-1.3-1.19c-.43-.33-1-.75-1.29-1s-1-.54-1.52-.87a6.37,6.37,0,0,0-2-.53h-6.9c.11,6.27.11,12.1.11,17.62v48.94H482v3.47H451.44v-3.47h9.3V267.11s-7.24-.11-9.19.31a14.5,14.5,0,0,0-1.94,1c-.42.22-.87.54-1.41.87s-1,.65-1.51,1.07a14.55,14.55,0,0,0-2.6,3.36A19.58,19.58,0,0,0,443,276a20.3,20.3,0,0,0-.77,2.36c-.42,1.72-.74,3.35-1,4.87a17.52,17.52,0,0,0-.24,2.26c-.09.64-.19,2.17-.19,2.17l-.11,1.73v1.29h-2.28V264.09h55.34l.11,27h-2.16" transform="translate(0 -257.78)"/><path class="cls-1" d="M608.74,292.72a14.14,14.14,0,0,0,1.41-2.38c.22-.87.53-1.74.75-2.7a26.33,26.33,0,0,0,.64-5.84,10.15,10.15,0,0,0-.1-1.62c0-.54-.11-1.29-.11-2.05a21.28,21.28,0,0,0-1.08-4.75,10.8,10.8,0,0,0-2.6-4.22,5.35,5.35,0,0,0-2-1.41,6.15,6.15,0,0,0-3.36-.65H586.91v30.59h12a11.92,11.92,0,0,0,5.94-1.29,8.53,8.53,0,0,0,3.9-3.68m18.63,43.55a9.33,9.33,0,0,1-2.48.64,15.84,15.84,0,0,1-3.25.43,12.89,12.89,0,0,1-6.59-1.4,8.92,8.92,0,0,1-3.36-3.88,19.41,19.41,0,0,1-1.18-5.51c0-1-.11-2.07-.11-3.14v-3.14a63.62,63.62,0,0,0,0-6.48,16.61,16.61,0,0,0-1-5.73,10.67,10.67,0,0,0-3-4.33,12.64,12.64,0,0,0-6.16-2.05H587.49v32h9.74l.09,3.47H566.85v-3.47h9.84V267.75h-9.84v-3.67h36.84c1.73,0,3.24,0,4.65.11a25,25,0,0,1,4.13.86,16.45,16.45,0,0,1,6.35,3,11.87,11.87,0,0,1,4,5.08,19.85,19.85,0,0,1,1.41,7.89c0,4-.86,7.24-2.71,9.61a22.72,22.72,0,0,1-5.74,5.95,24.87,24.87,0,0,1-8.08,3.67h.1a5.1,5.1,0,0,0,.77.21,4.41,4.41,0,0,1,1.17.23,3.33,3.33,0,0,1,1.42.32,11.77,11.77,0,0,1,3.35,1.3,9.48,9.48,0,0,1,3.34,2.16,12.45,12.45,0,0,1,2.06,3.23,20.2,20.2,0,0,1,1.07,3.9,12.16,12.16,0,0,1,.22,2.05c.11.65.11,1.3.21,1.94s.11,1.09.11,1.74v14.58a2.94,2.94,0,0,0,.21.76,3.67,3.67,0,0,0,1,.65,5.56,5.56,0,0,0,1.94.22l2.49-.87,2.27,2.27a4.87,4.87,0,0,1-2,1.3" transform="translate(0 -257.78)"/><path class="cls-1" d="M685.12,337.14H632.06v-3.47h9.84V267.1h-9v-3h51.44v25.39H682.3c-.44-2.92-.86-5.51-1.4-7.67a57.32,57.32,0,0,0-1.84-5.62,14.16,14.16,0,0,0-5.41-6.48,16.84,16.84,0,0,0-8.42-2.17c-1.63-.11-3.47-.11-5.39-.21-2.07,0-4.23-.11-6.61-.11v30.27h3.68A10.16,10.16,0,0,0,665,294c.44-.66.75-1.2,1.18-1.74a8.16,8.16,0,0,0,.87-1.72,18.17,18.17,0,0,1,.66-1.74,11.84,11.84,0,0,0,.42-1.71,5,5,0,0,0,.34-1.73,13.17,13.17,0,0,0,.19-2.06h2.38v33.39h-2.57c-.12-1.41-.34-2.7-.56-3.9a26.3,26.3,0,0,0-.86-3.23,17.36,17.36,0,0,0-2.26-4.76,9.08,9.08,0,0,0-3.24-2.59,11.61,11.61,0,0,0-4.32-.76h-4v32.2h6.7a44.25,44.25,0,0,0,9.3-.75,12.28,12.28,0,0,0,6.37-3.25,19.48,19.48,0,0,0,4.21-7.23,31.71,31.71,0,0,0,1.41-5.41c.44-2,.76-4.43,1.08-6.92h2.82v27" transform="translate(0 -257.78)"/><path class="cls-1" d="M413.18,267.75v-3.66H434.6v3.66h-9v40c0,8.13-.43,13.43-1.2,16-2.6,9.21-9.53,13.76-20.69,13.76a33.38,33.38,0,0,1-15.08-3.25A17.21,17.21,0,0,1,379,322.82c-.78-2.59-1-7.59-1-15.06V267.64h-9.08v-3.55H398.6v3.55h-9.11v40.12a139.13,139.13,0,0,0,.44,14.73,15.12,15.12,0,0,0,2.59,6.41c2.81,4.1,7.39,5.11,13.66,5.11,7.16,0,11.16-2.71,13.56-7.72a23.39,23.39,0,0,0,1.82-6.41c.21-2.16.33-6.16.33-12.12v-40h-8.71" transform="translate(0 -257.78)"/><path class="cls-1" d="M541.93,267.75v-3.66h21.4v3.66h-9v40c0,8.13-.44,13.43-1.19,16-2.6,9.21-9.54,13.76-20.69,13.76a33.28,33.28,0,0,1-15.07-3.25,17.24,17.24,0,0,1-9.65-11.48c-.76-2.59-1-7.59-1-15.06V267.64h-9.11v-3.55h29.7v3.55h-9.11v40.12a139.13,139.13,0,0,0,.44,14.73,15.06,15.06,0,0,0,2.62,6.41c2.8,4.1,7.36,5.11,13.65,5.11,7.16,0,11.14-2.71,13.52-7.72a22.45,22.45,0,0,0,1.85-6.41c.22-2.16.33-6.16.33-12.12v-40h-8.71" transform="translate(0 -257.78)"/><path class="cls-1" d="M217.88,402.85a4.28,4.28,0,0,1,3.31-2.77l15.95-3.56-1.45-14.23,0-.31c-.39-1.86-1.58-7.53-9-8.15-28.52-2.3-35.14-6.53-42.07-11a.21.21,0,0,1,0-.07l-.05,0-.45-.28a29.54,29.54,0,0,0-15.47-4.81c-8.09,0-18.31,3.2-19.14,3.47-2.48.71-4.77,1.46-7,2.17-8.94,2.87-16.65,5.36-29.61,5l-2.37-.07-.62,2.29c-.46,1.75-4.08,16.09-.6,25.29-3.13,2.47-3.13,5.34-3.1,5.71.12,3.15-.62,3.92-.87,4.16-1.49,1.58-6.47,1.78-10.65,1.78H93.06l-.91,1.22c-2.57,3.55-8.15,4.39-11.73,3.48-1.55-4.78-1.6-8.42-.07-10.6,1.78-2.58,5.56-2.85,7.11-2.85h.9a6.9,6.9,0,0,0,6.88-6.9V366.16A28.91,28.91,0,0,0,98.11,360a13,13,0,0,0,11-12.7,12.7,12.7,0,0,0-2-6.84c5.78-2.79,10.74-8.47,10.74-15.94s-3.77-10.87-7.34-13.12a113.18,113.18,0,0,0,3.79-13l5-17.93c2.23-7,8.09-11.58,14.93-11.58H222.5c-3.74,5.25-9.05,7.74-16.4,7.74H152.73l-2.79,6h47.83c-3.75,6-9.26,8.81-17.07,8.81H146l-2.79,6h30.95c-3.74,5.75-9.19,8.47-16.85,8.47H138.41l-2.79,6h19.82c.18.24.67,1.13.67,3.57a7.1,7.1,0,0,1-7.19,7,11.87,11.87,0,0,1-4.58-1.15l-2.6-1.12-4.62,4.13,2.58,1.1c4,1.73,6.21,2.63,9.22,2.63a12.93,12.93,0,0,0,9.29-3.93c3.38.23,8.86.67,14.17,1.11,6.34.52,12.32,1,15.43,1.18l4.37.22c2.65.13,5,.26,7.45.42,12,19.55,18.21,22.13,41.53,24.93,1.68,3,3.2,6.17,4.65,9.38v38.29c.13,1.75.13,2.34-.11,2.65-.79,1.07-4.4,2.57-5.65,3.08l-19.66,7.41c-2.6-3.52-3.55-7.22-2.51-9.87m-4.25,10.34H174.77l16.65-17.58c3.38-3.47,4.44-7.64,3-11.76a124.62,124.62,0,0,0-5.3-11.54c6.62,3.07,16.66,5.83,37,7.48,2.43.19,3.08,1,3.59,3.26l.89,8.8L220,394.24a10.2,10.2,0,0,0-7.69,6.44c-1.48,3.76-1,8.18,1.32,12.51m-70.08,0c-1.07-4.23-.64-7.61,1.3-9.81a7.68,7.68,0,0,1,6.66-2.46l11.36,2.1.29.05h1.58l8-8.65.08-.08c1.37-1.59,5.53-6.43,1.28-12.61l-10.74-17.67a38.26,38.26,0,0,1,5.22-.41h.07a23.54,23.54,0,0,1,11.19,3.28c.8,1.66,1.86,3.87,3.08,6.32,2.25,4.57,5.05,10.25,5.84,12.54.23.72,1,2.92-1.68,5.7l-20.57,21.7Zm-3.22-13.73c-2.16,2.48-4.27,6.8-2.9,13.73h-36.6c4-.38,6.8-1.31,8.75-3.35,2.42-2.5,2.63-5.91,2.55-8.35.08-.2.49-1,2.26-1.83l3.16-1.44-1.88-2.91c-3.14-4.8-1.78-15.3-.56-21h.26c12.43,0,20.44-2.59,28.91-5.3,2.2-.71,4.49-1.44,6.89-2.15l.08,0s2.52-.79,5.88-1.6l11.93,19.66.11.17c1.19,1.69,1.33,2.81-.84,5.34l-6,6.44-9.8-1.81-.09,0a13.68,13.68,0,0,0-12.13,4.44m-64.89-1.3c-2.56,3.66-2.86,8.7-1,15H68.31V364.93a25.61,25.61,0,0,0,6.8-2,48.57,48.57,0,0,1-.79,6L74,370.57l-.58,3.49H77c5.28,0,9.23-.83,12.27-2.39v20.14a.93.93,0,0,1-.89.94h-.9c-5.25,0-9.64,2-12,5.41M62.33,408l-28.17-7.34L6,408v-50.4l28.17-7.3,28.17,7.3ZM9.6,413.19l24.56-6.4,24.55,6.4ZM19.42,339a7.13,7.13,0,0,1,7.24-2.76l2.55.44.8-2.46a3.64,3.64,0,0,1,.9-1.52,4.22,4.22,0,0,1,3.14-1c3.61.12,8.1,2.63,11.77,6.55a31.46,31.46,0,0,1,3.57,4.76c.21.36.44.73.66,1.07s.52.84.58.95a20,20,0,0,1,1.82,3.11c1.25-1.74,2.47-3.48,3.71-5.21,0,0,0-.22-.12-.43a21.94,21.94,0,0,0-1.33-2.24q-.15-.22-.27-.45l0,0a6,6,0,0,0-.42-.67c-.4-.64-1-1.59-1.26-2.09l7.78-12.47a22.36,22.36,0,0,0,4.41.48h.18c11,0,22.36-6.35,22.36-16.95v-.27A53.1,53.1,0,0,0,86.35,300a26.66,26.66,0,0,1-.56-3.54c0-1.16,1.64-2.45,4-2.45h3.56l-1.61-9.22a19.13,19.13,0,0,0,7.92-15.4c5.39,4.13,9.19,11.3,9.88,18.92a30.53,30.53,0,0,1-1,8.58l-.38,1.37h.07a123.17,123.17,0,0,1-4.15,13.37l-.93,2.41,2.26,1.27c4,2.26,6.45,3.92,6.45,9.2,0,6.07-5.45,10.71-10.72,11.68L94,337.56l6.09,4.07a6.9,6.9,0,0,1,3.11,5.68,7.06,7.06,0,0,1-7.2,6.9H93.67L93,356.32c-2.22,7.28-4.66,10.85-12.47,11.61a42.71,42.71,0,0,0,.6-7.36c0-.71,0-2.68-.08-3.33l-.36-6.78L76,355.32a15.18,15.18,0,0,1-7.64,3.55V353L34.16,344.1,22,347.24c-2.71-2.7-3.27-7.18-2.58-8.23m36.87-21.93a.9.9,0,0,1,.79-.74l5.15.18c6.25-.23,12.66-2.8,13.36-9.34,0-4.43-3.13-8.72-7.56-8.72-2.37,0-5,1.63-8,3.62-2,1.29-3.5,2.3-4.69,2.3-.77,0-1.4-.52-1.4-.95a.4.4,0,0,1,0-.2l3.28-4.43-2.84-1.89c-.61-.4-1.54-1.15-1.66-1.71-.05-.26.34-.73.47-.86a53.86,53.86,0,0,0,3.87-5.11c.85-1.18,1.33-1.83,2.74-1.83a2.51,2.51,0,0,1,2.52,2.48c0,.9,1,1.62,2.22,1.62s1.79-.88,2.56-1.62c0,0,2.92-2.69,1.38-3.95-1.78-1.45-8.87,1.5-6.89-5l.49-.93c.76-1,4.15-3.52,11.15-3.52a34,34,0,0,1,4.18.28l1,.13,14.88-9.17a3.23,3.23,0,0,1,.16.53l0,.09c.77,4.5-2.07,9.87-6.61,12.47l-1.81,1,1.18,6.71c-3.83,1.18-6.48,4.24-6.48,7.92a26.25,26.25,0,0,0,.65,4.67,47.83,47.83,0,0,1,1,6.94c0,7-9.62,11.6-17.78,11.33h-.22c-.35,0-5.53-.42-6.8-1.43a1.07,1.07,0,0,1-.39-.9m12.33-46.62a19.62,19.62,0,0,1,4.3-3.73,18.9,18.9,0,0,1,5.13-2.3,20.6,20.6,0,0,1,9.61-.24L77.12,270.7c-1.34-.12-2.63-.2-3.87-.2a31.48,31.48,0,0,0-4.94.38c.11-.13.21-.28.31-.42m160.86-1.53h39.79c-3.72,5.26-9,7.74-16.38,7.74H223.51a26.88,26.88,0,0,0,6-7.74m-2,22.52H198.1a27.51,27.51,0,0,0,6.49-8.81h39.94c-3.73,6-9.23,8.81-17.07,8.81m-23.37,14.43H174.72a27,27,0,0,0,6.3-8.47H221c-3.75,5.75-9.18,8.47-16.86,8.47m6.74,22.42a36.63,36.63,0,0,1,22.68,12.46c1.21,1.43,2.4,3,3.55,4.62-15.65-2.06-21.11-4.34-29.84-17.63,1.14.16,2.37.34,3.61.55m62.49,64.44c.58.91,1.08,1.79,1.55,2.63.58,1,1.14,2,1.82,3.08-4.53-.28-8-2.8-11.14-7.54,2.93-1,6.47-.29,7.77,1.83M236.1,413.19l6.1-2.3.09,0c8.67-3.59,9.91-5.84,9.5-11.59V376c6.59,16.75,12.83,28.52,25.6,28.52a24.69,24.69,0,0,0,5.59-.68l5-1.12-3.45-3.79a32.82,32.82,0,0,1-4.47-6.45c-.5-.9-1-1.81-1.65-2.84-3-4.85-10.1-6.49-15.86-3.92-2.62-5.19-5.27-12-8.43-20.3l-.69-1.59c-.53-1.26-1.09-2.51-1.65-3.77v-.22h-.11a116.62,116.62,0,0,0-6.54-13,73.74,73.74,0,0,0-7.08-9.94c-6.66-7.84-15.49-12.7-26.23-14.47a151.15,151.15,0,0,0-19.35-1.82l-4.35-.22c-3-.17-9.25-.67-15.26-1.17-4.07-.33-8.22-.67-11.5-.91a12.39,12.39,0,0,0,.34-2.87,16.65,16.65,0,0,0-.34-3.57h42.72c11,0,19-4.88,23.73-14.46,11-.1,18.86-5.07,23.54-14.76h1.53c11.4,0,19.54-5.21,24.23-15.47l1.93-4.22H134.29c-9.52,0-17.63,6.21-20.66,15.81l-.09.33A30.73,30.73,0,0,0,100.81,263c-8-4.77-17.16-6.38-24.43-4.28a25.06,25.06,0,0,0-6.76,3.06,24.77,24.77,0,0,0-5.7,5.05,46.54,46.54,0,0,0-5,7.93A9.11,9.11,0,0,0,57,276.79L55.3,280l-.08.2a41.15,41.15,0,0,1-6.56,10.22,6.83,6.83,0,0,0-1.8,5.85,7.66,7.66,0,0,0,2,3.75l-.06.09a6.51,6.51,0,0,0-.88,3.29c0,3.82,3.32,6.71,7.39,6.71,3,0,5.43-1.38,8-3.09,1-.69,3.8-2.53,4.7-2.63a2.26,2.26,0,0,1,2.18,2.19c0,3.13-4,4.82-6.91,5l-5.88.63c-4.24.39-6.24,2.64-6.24,4.64a5,5,0,0,0,1.63,3.81l.41.45,1.53,1.33-6.25,10c-4.45-4.11-9.64-6.61-14.25-6.75a10.08,10.08,0,0,0-7.46,2.59,8.06,8.06,0,0,0-1.42,1.77h-.09a13.07,13.07,0,0,0-10.88,5.6c-2.11,3.24-1.34,8.85,1.33,13.12L0,353v75.24H288.64v-15Z" transform="translate(0 -257.78)"/><path class="cls-1" d="M12.07,365.56l0-2.8.14,0a1,1,0,0,1,.91.1,1.25,1.25,0,0,1,.28,1,1.92,1.92,0,0,1-.35,1.15,1.4,1.4,0,0,1-.87.58l-.16,0m.85,3.33v-.33l-.07,0a1.44,1.44,0,0,1-.59.09.34.34,0,0,1-.19-.14s-.05-.2,0-.64v-1.82a8.76,8.76,0,0,0,1.58-.53,3,3,0,0,0,1.14-.94,2.11,2.11,0,0,0,.43-1.26,1.25,1.25,0,0,0-.63-1.18,2.75,2.75,0,0,0-2.07,0l-2.89.75h0l0,.31h.08a1.55,1.55,0,0,1,.6-.08.33.33,0,0,1,.19.13,2.62,2.62,0,0,1,0,.65l-.08,4.37a2.63,2.63,0,0,1,0,.68,1.94,1.94,0,0,1-.21.27,2.13,2.13,0,0,1-.62.23h0v.32l3.42-.89Z" transform="translate(0 -257.78)"/><path class="cls-1" d="M16.67,365.52l1-2.35.83,1.87-1.79.48m-2.07,2.63h0v.31l2.31-.6v-.3h-.06a1.72,1.72,0,0,1-.62.05c-.13-.05-.18-.13-.17-.3a1.55,1.55,0,0,1,.14-.56l.28-.7,2.24-.57.31.69c.12.26.14.31.16.32a1.16,1.16,0,0,1,0,.17.27.27,0,0,1-.09.21,1.57,1.57,0,0,1-.52.25l-.18,0v.31l3.25-.84h.07v-.32h-.08a.59.59,0,0,1-.43,0,2.91,2.91,0,0,1-.52-.82l-2.28-4.92,0,0-.17,0-2.46,6a6.27,6.27,0,0,1-.57,1.15,1.34,1.34,0,0,1-.56.44" transform="translate(0 -257.78)"/><path class="cls-1" d="M24.75,365.52l-.08,0a1.94,1.94,0,0,1-.42.08.5.5,0,0,1-.29-.08.29.29,0,0,1-.08-.19c0-.11.08-.31.46-.86l1-1.46.88,1.15a5,5,0,0,1,.32.45.18.18,0,0,1,0,.12.3.3,0,0,1-.1.22,1.37,1.37,0,0,1-.47.22l-.05,0v.31l3.29-.86h.05v-.3l-.08,0a.78.78,0,0,1-.41-.05,3,3,0,0,1-.62-.66l-1.73-2.26,1.25-1.82c.34-.5.57-.79.64-.9a2.16,2.16,0,0,1,.37-.34,1.54,1.54,0,0,1,.44-.18h.05v-.31l-2.55.65v.31h.06a1.11,1.11,0,0,1,.41,0,.29.29,0,0,1,.19.09.36.36,0,0,1,.06.2,2.92,2.92,0,0,1-.54,1l-.66,1-.75-1-.33-.41a.71.71,0,0,1,0-.15.34.34,0,0,1,.1-.22.63.63,0,0,1,.34-.18l.22,0v-.31l-3.36.87h0v.3h.4a1.08,1.08,0,0,1,.23.16s.11.12.44.57L25,362.68l-1.32,1.93a8.69,8.69,0,0,1-.91,1.18,2,2,0,0,1-.67.4l0,0v.29l2.66-.67v-.31" transform="translate(0 -257.78)"/><path class="cls-1" d="M13.81,372.47a1.65,1.65,0,0,1,.62-.08.92.92,0,0,1,.47.29,2.2,2.2,0,0,1,.31.79l0,0,.29-.07,0-1.95-6,1.56h0l0,1.94.3-.07v0a2.46,2.46,0,0,1,.55-1.26,1.83,1.83,0,0,1,.94-.52l.4-.1-.09,5.12a1.38,1.38,0,0,1-.07.62.43.43,0,0,1-.19.26.84.84,0,0,1-.42.22l-.26.07v.31l3.53-.92h0v-.31l-.3.07a.67.67,0,0,1-.41,0,.31.31,0,0,1-.17-.14s-.05-.17-.05-.6l.1-5.15.44-.12" transform="translate(0 -257.78)"/><path class="cls-1" d="M18.82,371.28A.59.59,0,0,1,19,371a1.07,1.07,0,0,1,.44-.22l.26-.06v-.32l-3.52.92h-.05v.31l.3-.07a.67.67,0,0,1,.41,0,.35.35,0,0,1,.17.14,2.4,2.4,0,0,1,0,.61L17,376.74a2.27,2.27,0,0,1,0,.63.86.86,0,0,1-.18.26,1.15,1.15,0,0,1-.43.21l-.27.07v.3l3.51-.9.05,0V377l-.28.07a1,1,0,0,1-.43,0,.31.31,0,0,1-.17-.14,3.13,3.13,0,0,1,0-.6l.08-4.44a1.59,1.59,0,0,1,.05-.62" transform="translate(0 -257.78)"/><path class="cls-1" d="M24.21,371.7a1.75,1.75,0,0,1-.5.55,2.8,2.8,0,0,1-.94.4l.05-2.52a2.41,2.41,0,0,1,1-.12.74.74,0,0,1,.44.28,1.08,1.08,0,0,1,.14.66,1.51,1.51,0,0,1-.16.75m-1.44,1.46a2.78,2.78,0,0,1,1.05-.12.74.74,0,0,1,.54.34,1.39,1.39,0,0,1,.19.75,1.89,1.89,0,0,1-.18.77,1.71,1.71,0,0,1-.5.63,1.81,1.81,0,0,1-.69.35c-.18.05-.26,0-.33,0a.39.39,0,0,1-.13-.33ZM21,376.34a.73.73,0,0,1-.22.26,1.76,1.76,0,0,1-.6.22l-.05,0v.32l3.42-.89a4.27,4.27,0,0,0,2.18-1.18,2.16,2.16,0,0,0,.65-1.45,1.07,1.07,0,0,0-.57-1.08,2.16,2.16,0,0,0-1.08-.22,3.51,3.51,0,0,0,1-.81,1.74,1.74,0,0,0,.37-1,1.35,1.35,0,0,0-.27-.85,1.28,1.28,0,0,0-.78-.44,4.44,4.44,0,0,0-1.62.2l-3.16.82h0v.32l.07,0a1.54,1.54,0,0,1,.59-.08.3.3,0,0,1,.2.14,2.83,2.83,0,0,1,0,.63l-.08,4.38a2.31,2.31,0,0,1-.07.69" transform="translate(0 -257.78)"/><path class="cls-1" d="M29.51,368.5a.88.88,0,0,1,.2-.25.9.9,0,0,1,.45-.21l.26-.07v-.32l-3.55.92h0v.32l.29-.08a.94.94,0,0,1,.4,0,.26.26,0,0,1,.18.13s.05.19,0,.61L27.67,374a1.62,1.62,0,0,1-.06.61.41.41,0,0,1-.17.27,1.2,1.2,0,0,1-.44.21l-.26.06v.33l3.53-.93h0l0-.31-.31.08a.78.78,0,0,1-.4,0,.29.29,0,0,1-.19-.14,2.28,2.28,0,0,1,0-.6l.07-4.44c0-.4,0-.56.05-.63" transform="translate(0 -257.78)"/><path class="cls-1" d="M21.86,384.44l-1.81.46,1-2.33M29.4,380a2,2,0,0,1-.21.89,1.31,1.31,0,0,1-.49.55,3.36,3.36,0,0,1-1,.38l-.19.06,0-2.81.48-.14a1.25,1.25,0,0,1,1.08.07,1.27,1.27,0,0,1,.31,1M32,383.91a.46.46,0,0,1-.4,0,1.85,1.85,0,0,1-.42-.41l-1.51-1.82a3.14,3.14,0,0,0,.9-.69,2.08,2.08,0,0,0,.54-1.41,1.32,1.32,0,0,0-.33-1,1.35,1.35,0,0,0-.92-.42,7.08,7.08,0,0,0-1.79.28l-3,.81H25v.31l.07,0a1.44,1.44,0,0,1,.59-.07.28.28,0,0,1,.19.14,2.42,2.42,0,0,1,.05.63l-.07,4.38a2.51,2.51,0,0,1-.08.69.75.75,0,0,1-.22.26,1.33,1.33,0,0,1-.51.2.45.45,0,0,1-.39-.05,2.23,2.23,0,0,1-.53-.82l-2.27-4.92,0,0-.17,0-2.48,6a5.14,5.14,0,0,1-.56,1.14,1.18,1.18,0,0,1-.55.44l-.08,0a.85.85,0,0,1-.41,0,.37.37,0,0,1-.19-.13,3.3,3.3,0,0,1,0-.61l.08-4.45c0-.41,0-.56,0-.61s.11-.21.2-.26a1,1,0,0,1,.45-.22l.25-.07,0-.31-2.77.72h0l-1.83,4.8L12,382.57l-2.73.7H9.16v.31l.3-.07a.67.67,0,0,1,.37,0c.11,0,.18.08.19.14a1.39,1.39,0,0,1,.05.6L10,388.51c0,.36,0,.48,0,.49a1.2,1.2,0,0,1-.16.39.69.69,0,0,1-.28.25,1.13,1.13,0,0,1-.38.19l-.11,0v.31l2.33-.6h.06v-.32l-.09,0a1.06,1.06,0,0,1-.61,0,.53.53,0,0,1-.25-.3v-.59l.06-4.48,2.37,5.2,0,.05.21-.05,2.51-6.52-.07,4.65a4.26,4.26,0,0,1-.06.62.59.59,0,0,1-.19.26,1,1,0,0,1-.45.21l-.25.08v.3l3.3-.86h0l2.29-.59h0V387h-.07a1.61,1.61,0,0,1-.6.05.28.28,0,0,1-.19-.3,1.57,1.57,0,0,1,.15-.55l.27-.7,2.26-.58.3.71a2,2,0,0,1,.15.33.36.36,0,0,1,0,.15.34.34,0,0,1-.1.22,1.11,1.11,0,0,1-.51.22l-.17.06v.3l3.09-.79.22-.06h0l3.22-.84.05,0v-.3l-.08,0a2.81,2.81,0,0,1-.5.09.2.2,0,0,1-.09,0,.25.25,0,0,1-.18-.13,1.69,1.69,0,0,1-.05-.64l0-1.84.36-.1,2,2.5,0,0,2.12-.53,0,0v-.31Z" transform="translate(0 -257.78)"/><path class="cls-1" d="M15.26,391.74a.8.8,0,0,1-.14.37.43.43,0,0,1-.24.17,4,4,0,0,1-.54,0,3.52,3.52,0,0,0-1.49.09,4.81,4.81,0,0,0-1.82.94A5.24,5.24,0,0,0,9.66,395a4.28,4.28,0,0,0-.53,2,3,3,0,0,0,.42,1.65,2.09,2.09,0,0,0,1.27.94,2.65,2.65,0,0,0,.79.11,4.66,4.66,0,0,0,1.13-.16,4,4,0,0,0,1.42-.65,4.65,4.65,0,0,0,1.18-1.17h0v-.8l-.12.17a6,6,0,0,1-1.1,1.23,3,3,0,0,1-1.13.55,1.54,1.54,0,0,1-1.19-.05,1.44,1.44,0,0,1-.65-.9,6.22,6.22,0,0,1-.19-1.58,5.35,5.35,0,0,1,.32-1.73,3,3,0,0,1,.77-1.11,2.63,2.63,0,0,1,1.12-.65,1.52,1.52,0,0,1,2,1.31l0,.05.3-.08,0-2.47-.29.09v0" transform="translate(0 -257.78)"/><path class="cls-1" d="M22,394.72a3.32,3.32,0,0,1-.82,1.52,3.17,3.17,0,0,1-1.46.8l-.39.11a.67.67,0,0,1-.37,0,.13.13,0,0,1-.12-.12s-.07-.17-.05-.63l.05-1.87a1.47,1.47,0,0,1,.64,0c.15,0,.25.14.38.35a1.89,1.89,0,0,1,.23.87v.07l.29-.09.07-3.66-.33.08v0a2.65,2.65,0,0,1-.37,1.26,1.37,1.37,0,0,1-.88.62h0l0-2.62.63-.18a4.07,4.07,0,0,1,1-.16,1.06,1.06,0,0,1,.68.26,1.71,1.71,0,0,1,.35.91l0,.08.28-.09,0-2.12-5.6,1.46h0v.31l.29-.09a.72.72,0,0,1,.47,0,.21.21,0,0,1,.13.17,2.08,2.08,0,0,1,0,.55L17.1,397a1.56,1.56,0,0,1-.07.63.56.56,0,0,1-.17.26,1.06,1.06,0,0,1-.44.21l-.27.07v.31l5.79-1.5h0l.36-2.36-.31.09v0" transform="translate(0 -257.78)"/><path class="cls-1" d="M31.16,392.35a3.57,3.57,0,0,1-.82,1.52,2.9,2.9,0,0,1-1.45.8l-.4.11a.69.69,0,0,1-.37,0c-.09,0-.11-.06-.14-.13a2.1,2.1,0,0,1,0-.63l0-1.86a1.57,1.57,0,0,1,.65-.05.65.65,0,0,1,.38.36,1.76,1.76,0,0,1,.2.84l0,.09.3-.09.06-3.66-.31.09v0a3,3,0,0,1-.38,1.25,1.29,1.29,0,0,1-.88.62h0l0-2.61.63-.18a3.88,3.88,0,0,1,1-.17,1,1,0,0,1,.67.27,1.71,1.71,0,0,1,.35.91l0,.07.27-.08,0-2.12-5.59,1.46H25.4v.31l.3-.08a.69.69,0,0,1,.46,0,.25.25,0,0,1,.14.16,2.6,2.6,0,0,1,0,.55l-.07,4.43a2,2,0,0,1-.06.62.5.5,0,0,1-.17.26,1,1,0,0,1-.44.22l-.27.07v.32l5.78-1.51h0l.35-2.35-.29.08v0" transform="translate(0 -257.78)"/><path class="cls-1" d="M39.39,365l.23.07,2.18-4.61a3.3,3.3,0,0,1,.57-1,.71.71,0,0,1,.57-.22l.06,0V359l-2.3-.6,0,.32h0a1.85,1.85,0,0,1,.54.23.49.49,0,0,1,.21.22.78.78,0,0,1,.09.24.64.64,0,0,1-.06.28,3.78,3.78,0,0,1-.25.65l-1.17,2.52-1.45-3.59c-.16-.41-.25-.63-.28-.72s0-.15,0-.2,0-.12,0-.12a.94.94,0,0,1,.59,0l.17,0V358l-3.3-.85,0,.31,0,0a1.08,1.08,0,0,1,.5.32c.07.14.28.56.57,1.27l2.42,6" transform="translate(0 -257.78)"/><path class="cls-1" d="M44.17,363.68l.85-1.87.94,2.34-1.79-.47m-1.94,1.59h-.08v.31l2.32.6v-.31l0,0a2.22,2.22,0,0,1-.64-.27.58.58,0,0,1-.21-.44,1.47,1.47,0,0,1,.11-.48l.24-.53,2.27.58.34.91a2.71,2.71,0,0,1,.16.4.42.42,0,0,1,0,.18.12.12,0,0,1-.07.14l-.13,0a1.55,1.55,0,0,1-.37-.06l-.21-.06,0,.32,3.34.86,0-.31h0a1.23,1.23,0,0,1-.45-.3,4.38,4.38,0,0,1-.57-1.11l-2.53-6.15v0l-.17,0-2.24,4.82a3.66,3.66,0,0,1-.52.83.78.78,0,0,1-.54.14" transform="translate(0 -257.78)"/><path class="cls-1" d="M49.62,361a1,1,0,0,1,.45.19,2.9,2.9,0,0,1,.37.44l.13.2.11,4.74c0,.34,0,.56-.15.65a.83.83,0,0,1-.71,0l-.08,0,0,.32,2.45.63v-.3l-.2-.06a1.09,1.09,0,0,1-.57-.35,1.06,1.06,0,0,1-.26-.81l-.11-4.07,4.48,6.61h0l.26.08-.14-5.71a2.23,2.23,0,0,1,0-.62c.06-.11.1-.18.18-.2a1.62,1.62,0,0,1,.54,0h.07v-.31l-2.32-.59v.31l0,0a1.2,1.2,0,0,1,.77.45,1.88,1.88,0,0,1,.19.84l.07,2.68L52,361.31v0l-2.45-.63V361l0,0" transform="translate(0 -257.78)"/><path class="cls-1" d="M37.61,373.69a5.51,5.51,0,0,0,1.06,1,4.93,4.93,0,0,0,1.48.64,7,7,0,0,0,1.35.21h.16a5,5,0,0,0,1.09-.12l0,0,0-1.44a1.39,1.39,0,0,1,0-.44.25.25,0,0,1,.14-.16,1.45,1.45,0,0,1,.46,0l.08,0v-.3l-3.13-.82v.32l.2.06a.85.85,0,0,1,.37.18.58.58,0,0,1,.18.23,1.77,1.77,0,0,1,.06.5l0,1.36a2.84,2.84,0,0,1-.41,0,2,2,0,0,1-.44-.05,2.48,2.48,0,0,1-1.11-.62,2.68,2.68,0,0,1-.69-1.23,7.15,7.15,0,0,1-.25-1.74,5.17,5.17,0,0,1,.16-1.49,1.6,1.6,0,0,1,.59-1,1.24,1.24,0,0,1,1.1-.12,2.88,2.88,0,0,1,1.31.84,4.17,4.17,0,0,1,1,1.7v0l.3.08-.07-2.46v0l-.27-.07,0,.07c-.07.19-.12.26-.17.27a.15.15,0,0,1-.19,0,4,4,0,0,1-.51-.31,7.05,7.05,0,0,0-.68-.41,4.83,4.83,0,0,0-.84-.29,2.66,2.66,0,0,0-2.49.42,2.72,2.72,0,0,0-.94,2.37,4.34,4.34,0,0,0,.37,1.64,4.68,4.68,0,0,0,.73,1.14" transform="translate(0 -257.78)"/><path class="cls-1" d="M49,377.45l.25-2.21-.28-.05v.05a1.55,1.55,0,0,1-.74,1.08,1.92,1.92,0,0,1-1.44.05l-.39-.1a1.08,1.08,0,0,1-.4-.17.51.51,0,0,1-.15-.23,3.28,3.28,0,0,1-.06-.67l0-1.82a3,3,0,0,1,.64.28,1.61,1.61,0,0,1,.41.6,2.7,2.7,0,0,1,.27,1v0l.31.09-.08-3.61v0l-.31-.08v.07a2.21,2.21,0,0,1-.32,1.06c-.17.21-.44.25-.84.14l-.09,0-.07-2.62.6.17a4.62,4.62,0,0,1,1,.34,2.28,2.28,0,0,1,.7.64,3.48,3.48,0,0,1,.42,1.13v0l.3.07-.05-2.06v-.06L43,369.06l0,.32.26.07a1.14,1.14,0,0,1,.46.25.67.67,0,0,1,.18.28s0,.19,0,.57l.1,4.43a1.57,1.57,0,0,1,0,.59.22.22,0,0,1-.16.15,1.05,1.05,0,0,1-.43,0l-.29-.08v.3l5.76,1.5.06,0" transform="translate(0 -257.78)"/><path class="cls-1" d="M55.52,376.65l-.31-.08v.06a4,4,0,0,1-.44,1.06,1.18,1.18,0,0,1-.58.42,1.9,1.9,0,0,1-.84,0l-.53-.14a2.11,2.11,0,0,1-.58-.19.85.85,0,0,1-.23-.24,2.93,2.93,0,0,1,0-.66l-.13-4.28a2.93,2.93,0,0,1,0-.6.31.31,0,0,1,.16-.16,1.09,1.09,0,0,1,.43,0l.36.1v-.31l-3.66-.94,0,.31.25.06a1.28,1.28,0,0,1,.44.2,1.14,1.14,0,0,1,.21.26,3.44,3.44,0,0,1,.06.65l.11,4.42c0,.44,0,.55,0,.59s-.07.14-.14.16a1,1,0,0,1-.44,0l-.28-.07v.31l5.91,1.52.08,0,.19-2.37v-.07" transform="translate(0 -257.78)"/><path class="cls-1" d="M55.4,372.59l.27.06a1.13,1.13,0,0,1,.41.21.38.38,0,0,1,.2.25,1.8,1.8,0,0,1,.08.64l.11,4.45a2.06,2.06,0,0,1,0,.57c0,.09-.08.14-.16.17a.84.84,0,0,1-.43,0l-.3-.08v.31l3.51.91h.07v-.3l-.26-.07a1.26,1.26,0,0,1-.42-.2.78.78,0,0,1-.21-.25,1.89,1.89,0,0,1-.08-.65l-.1-4.43c0-.43,0-.55,0-.59s.07-.13.16-.15a.65.65,0,0,1,.43,0l.29.07,0-.31-3.56-.93v.32" transform="translate(0 -257.78)"/><path class="cls-1" d="M39.4,384.76a2.66,2.66,0,0,1-1.29-.9,4,4,0,0,1-.88-1.82v0l-.3-.09.08,2.64v0l.27.07,0-.05a.41.41,0,0,1,.2-.21.33.33,0,0,1,.22,0,1.8,1.8,0,0,1,.35.19c.31.19.53.34.72.43a3.73,3.73,0,0,0,.61.22,2.52,2.52,0,0,0,.7.1,1.67,1.67,0,0,0,1-.29,1.49,1.49,0,0,0,.63-1.34,2.44,2.44,0,0,0-.44-1.3,6.55,6.55,0,0,0-1.62-1.53c-.56-.43-.91-.71-1.08-.86a2.47,2.47,0,0,1-.43-.56.88.88,0,0,1-.11-.39.62.62,0,0,1,.25-.51.86.86,0,0,1,.72-.05,2.24,2.24,0,0,1,1.18.81,2.94,2.94,0,0,1,.73,1.5v.05l.32.08-.12-2.36v0l-.25-.06v.06c0,.22-.09.29-.12.31a.21.21,0,0,1-.15,0,4.28,4.28,0,0,1-.43-.28,4.8,4.8,0,0,0-.56-.36A3.36,3.36,0,0,0,39,378a1.83,1.83,0,0,0-1.53.2,1.38,1.38,0,0,0-.54,1.27,2.08,2.08,0,0,0,.23.95,3.48,3.48,0,0,0,.63.88,14.61,14.61,0,0,0,1.33,1.12,6.15,6.15,0,0,1,.9.75,2,2,0,0,1,.38.5,1.28,1.28,0,0,1,.13.48.67.67,0,0,1-.27.56,1,1,0,0,1-.82.08" transform="translate(0 -257.78)"/><path class="cls-1" d="M47,380.82a1.73,1.73,0,0,1,.5.55,3.16,3.16,0,0,1,.38,1v0l.27.07,0-1.9v0l-6-1.55-.07,0,.05,1.9v0l.31.07v-.06a1.32,1.32,0,0,1,.48-1,1.18,1.18,0,0,1,.91,0l.43.12.14,5.14c0,.45,0,.56,0,.6a.3.3,0,0,1-.14.17,1,1,0,0,1-.44,0l-.29-.08v.31L47,387l.09,0v-.31l-.26-.06a1.5,1.5,0,0,1-.44-.2,1.31,1.31,0,0,1-.19-.26,1.68,1.68,0,0,1-.07-.64L46,380.46l.44.11a2,2,0,0,1,.62.25" transform="translate(0 -257.78)"/><path class="cls-1" d="M52.07,386l-1.8-.48.86-1.87.94,2.35m.71,2.17a.92.92,0,0,1-.5,0l-.2,0v.31l3.23.84.09,0v-.32h0a1.1,1.1,0,0,1-.45-.29,4.53,4.53,0,0,1-.57-1.11l-2.54-6.18-.18,0-2.24,4.82a2.73,2.73,0,0,1-.52.85.72.72,0,0,1-.53.13h-.07v.31l2.23.57.08,0v-.32h0a2.28,2.28,0,0,1-.63-.28.54.54,0,0,1-.21-.43,1.37,1.37,0,0,1,.11-.48l.23-.54,2.28.58.34.91a1.21,1.21,0,0,1,.15.41.28.28,0,0,1,0,.17.14.14,0,0,1-.08.14" transform="translate(0 -257.78)"/><path class="cls-1" d="M44.85,396.28a1,1,0,0,1-.38-.18,2.48,2.48,0,0,1-.18-.24,3.76,3.76,0,0,1-.06-.66l-.12-4.44c0-.43,0-.55,0-.58a.25.25,0,0,1,.14-.16.56.56,0,0,1,.37,0l.05,0h0a.69.69,0,0,1,.57.52c0,.08,0,.26,0,.56l.12,4.43a1.84,1.84,0,0,1,0,.6.16.16,0,0,1-.12.15.5.5,0,0,1-.36,0h-.09m10.94-3.38v-.29l-2-.52-.09,0v.32h.07a1.58,1.58,0,0,1,.47.21.9.9,0,0,1,.19.2.76.76,0,0,1,.06.26.93.93,0,0,1,0,.27c0,.12-.12.34-.24.67l-1,2.53L52,393a4.73,4.73,0,0,1-.25-.73.39.39,0,0,1-.05-.2c0-.09,0-.11.05-.14a.92.92,0,0,1,.48,0l.17.06v-.31L49.54,391l0,0h-.08l-4.83-1.26-.11,0-2-.53L41,393.07l-1.71-4.72v0l-2.46-.64h-.07l0,.3L37,388a1,1,0,0,1,.37.19.56.56,0,0,1,.18.24,2.27,2.27,0,0,1,.06.64l.12,4.26c0,.37,0,.48,0,.49a.65.65,0,0,1-.11.31.24.24,0,0,1-.21.11.62.62,0,0,1-.33,0l-.15,0v.3l2.06.53.08,0v-.31H39a1.11,1.11,0,0,1-.55-.29.8.8,0,0,1-.22-.44,4,4,0,0,1-.07-.62L38,389.07l2.34,6.36.2.05,2-5.33.12,4.7a1.63,1.63,0,0,1,0,.58.4.4,0,0,1-.14.17.67.67,0,0,1-.37,0l-.26-.08v.31l2.77.72h0l5.2,1.34.2-2.14v-.05l-.25-.07v.05a1.84,1.84,0,0,1-.66,1.11,1.6,1.6,0,0,1-1.26.08l-.37-.09a.72.72,0,0,1-.33-.15.85.85,0,0,1-.14-.21,2.6,2.6,0,0,1-.06-.68l0-1.82a2.38,2.38,0,0,1,.53.26,1.61,1.61,0,0,1,.37.57,3.85,3.85,0,0,1,.25,1v.05l.26.07-.1-3.62v0l-.26-.08v.08a2.27,2.27,0,0,1-.28,1.07c-.15.21-.39.26-.73.16h-.09l0-2.62.52.13a3.5,3.5,0,0,1,.89.33,1.68,1.68,0,0,1,.63.61A3.35,3.35,0,0,1,49.3,393l0,0,.27.08-.05-1.8a.65.65,0,0,1,.35.28,5.63,5.63,0,0,1,.51,1.26l2.18,5.89.23.07,1.9-4.68a6,6,0,0,1,.5-1,.58.58,0,0,1,.52-.22Z" transform="translate(0 -257.78)"/><path class="cls-1" d="M59.19,397.12a7.25,7.25,0,0,0-1.43-1.47,7.5,7.5,0,0,1-.95-.82,2,2,0,0,1-.42-.55,1,1,0,0,1-.1-.4.63.63,0,0,1,.23-.5.69.69,0,0,1,.63-.08,2,2,0,0,1,1.07.78,3.39,3.39,0,0,1,.62,1.48l0,0,.28.08-.1-2.35v0l-.24-.07v.07a.92.92,0,0,1-.08.3.14.14,0,0,1-.14,0,2.4,2.4,0,0,1-.39-.26,2.37,2.37,0,0,0-.52-.35,3.5,3.5,0,0,0-.56-.24,1.39,1.39,0,0,0-1.33.26,1.48,1.48,0,0,0-.5,1.29,2.36,2.36,0,0,0,.2.93,3.62,3.62,0,0,0,.59.87,11.45,11.45,0,0,0,1.16,1.07,8,8,0,0,1,.81.72,2,2,0,0,1,.33.5,1,1,0,0,1,.13.46.69.69,0,0,1-.25.58.81.81,0,0,1-.72.11,2.18,2.18,0,0,1-1.14-.86,4,4,0,0,1-.78-1.8v0l-.27-.08.07,2.64v.05l.26.06v0a.49.49,0,0,1,.17-.23.29.29,0,0,1,.2,0,1.12,1.12,0,0,1,.32.17,3.17,3.17,0,0,0,.64.41,2.44,2.44,0,0,0,.53.21,2.59,2.59,0,0,0,.58.08,1.41,1.41,0,0,0,.92-.32,1.61,1.61,0,0,0,.56-1.36,2.58,2.58,0,0,0-.39-1.31" transform="translate(0 -257.78)"/></svg>