<svg width="22" height="18" viewBox="0 0 22 18" fill="none" xmlns="http://www.w3.org/2000/svg">
<path d="M10.999 1V3.66665" stroke="#1987FB" stroke-width="1.2" stroke-linecap="round" stroke-linejoin="round"/>
<path d="M18.0701 3.86377L16.1421 5.74909" stroke="#1987FB" stroke-width="1.2" stroke-linecap="round" stroke-linejoin="round"/>
<path d="M21 10.7778H18.2729" stroke="#1987FB" stroke-width="1.2" stroke-linecap="round" stroke-linejoin="round"/>
<path d="M6.45068 6.33301L9.71043 9.52054" stroke="#1987FB" stroke-width="1.2" stroke-linecap="round" stroke-linejoin="round"/>
<path d="M1 10.7778H3.72706" stroke="#1987FB" stroke-width="1.2" stroke-linecap="round" stroke-linejoin="round"/>
<path fill-rule="evenodd" clip-rule="evenodd" d="M10.9943 9C11.9988 9 12.8123 9.79555 12.8123 10.7778C12.8123 11.76 11.9988 12.5555 10.9943 12.5555C9.98984 12.5555 9.17627 11.76 9.17627 10.7778C9.17627 9.79555 9.98984 9 10.9943 9Z" stroke="#1987FB" stroke-width="1.2" stroke-linecap="round" stroke-linejoin="round"/>
<path fill-rule="evenodd" clip-rule="evenodd" d="M18.7122 16.9999C20.1403 15.3092 20.9984 13.1412 20.9984 10.7777C20.9984 5.37775 16.5215 1 10.9992 1C5.47692 1 1 5.37775 1 10.7777C1 13.1412 1.85811 15.3092 3.28618 16.9999H18.7122Z" stroke="#1987FB" stroke-width="1.2" stroke-linecap="round" stroke-linejoin="round"/>
</svg>
