<svg width="16" height="18" viewBox="0 0 16 18" fill="none" xmlns="http://www.w3.org/2000/svg">
<path d="M5.6669 11.1819L1.6797 13.6677C1.2583 13.9303 1 14.4037 1 14.915V16.1112C1 16.6021 1.39797 17.0001 1.88889 17.0001H14.1111C14.602 17.0001 15 16.6021 15 16.1112V14.915C15 14.4037 14.7417 13.9303 14.3203 13.6677L10.3296 11.1797" stroke="#091C3F" stroke-width="1.2" stroke-linecap="round" stroke-linejoin="round"/>
<path fill-rule="evenodd" clip-rule="evenodd" d="M7.99834 11.9092C5.67854 11.9092 3.79834 9.95571 3.79834 7.54551V5.36367C3.79834 2.95347 5.67854 1 7.99834 1C10.3181 1 12.1983 2.95347 12.1983 5.36367V7.54551C12.1983 9.95571 10.3181 11.9092 7.99834 11.9092Z" stroke="#091C3F" stroke-width="1.2" stroke-linecap="round" stroke-linejoin="round"/>
</svg>
