<?xml version="1.0" encoding="utf-8"?>
<!-- Generator: Adobe Illustrator 27.7.0, SVG Export Plug-In . SVG Version: 6.00 Build 0)  -->
<svg version="1.1" id="Layer_1" xmlns="http://www.w3.org/2000/svg" xmlns:xlink="http://www.w3.org/1999/xlink" x="0px" y="0px"
	 viewBox="0 0 100 100" style="enable-background:new 0 0 100 100;" xml:space="preserve">
<style type="text/css">
	.st0{fill:#8F8F8F;}
</style>
<path class="st0" d="M75.7,33.4c-2.1,0-4.1-0.4-5.9-1.2c-1.9-0.8-3.6-2-5.1-3.4c-1.4-1.4-2.6-3.2-3.4-5.1c-0.8-1.9-1.2-4-1.2-5.9
	c0-2.1,0.4-4.1,1.2-5.9c0.8-2,2-3.6,3.4-5.1c1.4-1.5,3.2-2.6,5.1-3.4c1.9-0.8,3.9-1.2,5.9-1.2s4.1,0.4,5.9,1.2
	c2,0.8,3.6,1.9,5.1,3.4c1.5,1.4,2.6,3.1,3.4,5.1c0.8,1.9,1.2,3.9,1.2,5.9c0,2-0.4,4.1-1.2,5.9c-0.8,1.9-1.9,3.6-3.4,5.1
	c-1.4,1.4-3.1,2.6-5.1,3.4C79.8,32.9,77.8,33.4,75.7,33.4z M75.7,24.3l6.5-6.5l-1.3-1.3l-4.2,4.3v-9.5h-1.9v9.5l-4.3-4.3l-1.3,1.3
	L75.7,24.3z"/>
<path class="st0" d="M8.6,16.7v81.2h68.2V36.6h-2.2v59.1H10.8V18.9h6.3V41c2.6-2.6,5.1-5.1,7.7-7.7c2.6,2.6,5.1,5.1,7.7,7.7V18.9
	h24.4v-2.2L8.6,16.7z"/>
<g>
	<path class="st0" d="M17.2,46.6v2.2h51.2v-2.2H17.2z"/>
	<path class="st0" d="M17.2,53v2.2h51.2V53H17.2z"/>
	<path class="st0" d="M17.2,59.4v2.2h51.2v-2.2H17.2z"/>
	<path class="st0" d="M17.2,65.7v2.2h51.2v-2.2H17.2z"/>
	<path class="st0" d="M17.2,72.1v2.2h51.2v-2.2H17.2z"/>
	<path class="st0" d="M17.2,79.6v2.2h25.5v-2.2H17.2z"/>
	<path class="st0" d="M58.5,85.8V88h9.9v-2.2H58.5z"/>
</g>
</svg>
