<svg width="130" height="130" viewBox="0 0 130 130" fill="none" xmlns="http://www.w3.org/2000/svg">
<g opacity="0.1">
<path d="M89.8747 4.94786C101.752 9.86757 111.903 18.1988 119.046 28.888C126.188 39.5771 130 52.1442 130 65C130 69.4874 126.362 73.125 121.875 73.125C117.388 73.125 113.75 69.4874 113.75 65C113.75 55.3582 110.891 45.9329 105.534 37.916C100.177 29.8991 92.5641 23.6507 83.6558 19.9609C74.748 16.2711 64.946 15.3057 55.4894 17.1867C46.0328 19.0677 37.3464 23.7108 30.5286 30.5286C23.7108 37.3464 19.0677 46.0328 17.1867 55.4894C15.3057 64.946 16.2711 74.748 19.9609 83.6558C23.6507 92.5641 29.8991 100.177 37.916 105.534C45.9329 110.891 55.3582 113.75 65 113.75C69.4874 113.75 73.125 117.388 73.125 121.875C73.125 126.362 69.4874 130 65 130C52.1442 130 39.5772 126.188 28.888 119.046C18.1988 111.903 9.86757 101.752 4.94786 89.8747C0.0281626 77.9972 -1.25905 64.9279 1.24898 52.3191C3.75702 39.7104 9.94768 28.1285 19.0381 19.0381C28.1285 9.94768 39.7104 3.75702 52.3191 1.24898C64.9279 -1.25905 77.9972 0.0281626 89.8747 4.94786ZM95.1202 83.6298L105.625 94.1346L116.13 83.6298C119.303 80.4568 124.447 80.4568 127.62 83.6298C130.793 86.8026 130.793 91.9474 127.62 95.1202L117.115 105.625L127.62 116.13C130.793 119.303 130.793 124.447 127.62 127.62C124.447 130.793 119.303 130.793 116.13 127.62L105.625 117.115L95.1202 127.62C91.9474 130.793 86.8026 130.793 83.6298 127.62C80.4568 124.447 80.4568 119.303 83.6298 116.13L94.1346 105.625L83.6298 95.1202C80.4568 91.9474 80.4568 86.8026 83.6298 83.6298C86.8026 80.4568 91.9474 80.4568 95.1202 83.6298ZM65 24.375C69.1668 24.375 72.601 27.5116 73.0703 31.5525L73.125 32.5V65C73.125 69.1668 69.9884 72.601 65.9475 73.0703L65 73.125H40.625C36.1377 73.125 32.5 69.4873 32.5 65C32.5 60.8332 35.6366 57.399 39.6775 56.9297L40.625 56.875H56.875V32.5C56.875 28.0127 60.5127 24.375 65 24.375Z" fill="#FFACB1"/>
</g>
</svg>
