<svg width="20" height="20" viewBox="0 0 20 20" fill="none" xmlns="http://www.w3.org/2000/svg">
<g clip-path="url(#clip0_2779_20229)">
<path d="M8.75 15.8334H4.16667C3.72464 15.8334 3.30072 15.6578 2.98816 15.3453C2.67559 15.0327 2.5 14.6088 2.5 14.1667V5.83341C2.5 5.39139 2.67559 4.96746 2.98816 4.6549C3.30072 4.34234 3.72464 4.16675 4.16667 4.16675H15.8333C16.2754 4.16675 16.6993 4.34234 17.0118 4.6549C17.3244 4.96746 17.5 5.39139 17.5 5.83341V9.16675" stroke="#51668C" stroke-width="1.25" stroke-linecap="round" stroke-linejoin="round"/>
<path d="M2.5 5.83325L10 10.8333L12.4858 9.17575L17.5 5.83325" stroke="#51668C" stroke-width="1.25" stroke-linecap="round" stroke-linejoin="round"/>
<path d="M15.0014 18.3333L17.7931 15.5966C17.9643 15.4305 18.1004 15.2317 18.1936 15.0121C18.2867 14.7925 18.3349 14.5564 18.3352 14.3179C18.3356 14.0793 18.2882 13.8431 18.1958 13.6232C18.1034 13.4033 17.9679 13.2041 17.7972 13.0374C17.449 12.6969 16.9816 12.5058 16.4945 12.5048C16.0074 12.5039 15.5393 12.6932 15.1897 13.0324L15.0031 13.2158L14.8172 13.0324C14.469 12.6921 14.0018 12.5012 13.5149 12.5002C13.0281 12.4993 12.5601 12.6885 12.2106 13.0274C12.0393 13.1935 11.9031 13.3922 11.8099 13.6118C11.7167 13.8314 11.6684 14.0674 11.668 14.306C11.6675 14.5445 11.7148 14.7807 11.8072 15.0007C11.8995 15.2206 12.035 15.4199 12.2056 15.5866L15.0014 18.3333Z" stroke="#51668C" stroke-width="1.25" stroke-linecap="round" stroke-linejoin="round"/>
</g>
<defs>
<clipPath id="clip0_2779_20229">
<rect width="20" height="20" fill="white"/>
</clipPath>
</defs>
</svg>
