<?xml version="1.0" encoding="utf-8"?>
<!-- Generator: Adobe Illustrator 27.7.0, SVG Export Plug-In . SVG Version: 6.00 Build 0)  -->
<svg version="1.1" id="Layer_1" xmlns="http://www.w3.org/2000/svg" xmlns:xlink="http://www.w3.org/1999/xlink" x="0px" y="0px"
	 viewBox="0 0 110 110" style="enable-background:new 0 0 110 110;" xml:space="preserve">
<style type="text/css">
	.st0{fill:#8F8F8F;}
	.st1{fill:#FFFFFF;}
</style>
<g>
	<path class="st0" d="M3.9,9c0-2.9,2.4-5.1,5.1-5.1h91.9c2.8,0,5.1,2.2,5.1,5.1v65.3c0,2.9-2.4,5.1-5.1,5.1H9
		c-2.8,0-5.1-2.2-5.1-5.1v-15l3.9-0.9V74c0,0.9,0.7,1.8,1.7,1.8h91.1c0.9,0,1.8-0.9,1.8-1.8l-0.2-64.5c0-1.1-0.7-1.8-1.7-1.8H9.4
		c-0.9,0-1.7,0.7-1.7,1.8v34.7l-3.9,1.1V9z"/>
	<path class="st0" d="M58.6,22.1c0-0.9,0.7-1.7,1.7-1.7h29.7c0.9,0,1.7,0.7,1.7,1.7c0,1.1-0.7,1.8-1.7,1.8H60.2
		C59.3,23.9,58.6,23.2,58.6,22.1z"/>
	<polygon class="st0" points="30.9,108.4 24.6,108.4 32.9,82.9 39.1,82.9 	"/>
	<polygon class="st0" points="65.9,82.9 68.5,90.6 40.2,90.6 42.6,82.9 	"/>
	<polygon class="st0" points="37.5,99.3 39.1,93.9 69.6,93.9 71.2,99.3 	"/>
	<polygon class="st0" points="84,108.4 77.8,108.4 69.6,82.9 75.8,82.9 	"/>
	<path class="st0" d="M91.7,51.4c0,0.9-0.9,1.7-1.8,1.7H23.7c-0.9,0-1.7-0.7-1.7-1.7s0.7-1.7,1.7-1.7h66.2
		C90.8,49.8,91.6,50.5,91.7,51.4z"/>
	<path class="st0" d="M18.6,61.1c0-0.9,0.7-1.7,1.7-1.7h69.7c0.9,0,1.8,0.7,1.8,1.7S90.8,63,89.9,63H20.2C19.3,63,18.6,62,18.6,61.1
		z"/>
	<path class="st0" d="M20.6,34.4l1.3,0.2c0.2,0.7,0.5,1.4,0.7,2l-0.6,1.1c-0.7,0.9-0.7,2.4,0.2,3.1l2.2,2.2c0.9,0.9,2.2,1.1,3.3,0.4
		l0.9-0.7c0.7,0.4,1.4,0.7,2,0.9l0.2,1.1c0.4,1.3,1.3,2.2,2.6,2.2h3.1c1.3,0,2.2-0.9,2.6-2.2l0.2-1.1c0.6-0.2,1.3-0.6,2-0.9l0.9,0.7
		c1.1,0.7,2.4,0.6,3.3-0.4l2.2-2.2c0.9-0.7,0.9-2.2,0.2-3.1l-0.6-1.1c0.2-0.6,0.5-1.3,0.7-2l1.3-0.2c1.1-0.2,2-1.3,2-2.6v-2.9
		c0-1.3-0.9-2.4-2-2.6l-1.3-0.2c-0.2-0.7-0.5-1.4-0.7-2l0.6-1.1c0.7-0.9,0.7-2.4-0.2-3.3l-2.2-2c-0.9-0.9-2.2-1.1-3.3-0.4L41.3,18
		c-0.7-0.4-1.4-0.7-2-0.9L39.1,16c-0.4-1.3-1.3-2.2-2.6-2.2h-3.1c-1.3,0-2.2,0.9-2.6,2.2l-0.2,1.1c-0.6,0.2-1.3,0.6-2,0.9l-0.9-0.7
		c-1.1-0.7-2.4-0.6-3.3,0.4l-2.2,2c-0.9,0.9-0.9,2.4-0.2,3.3l0.6,1.1c-0.2,0.6-0.5,1.3-0.7,2l-1.3,0.2c-1.1,0.2-2,1.3-2,2.6v2.9
		C18.6,33.1,19.5,34.2,20.6,34.4z"/>
	<path class="st0" d="M22.1,29.6l0.9-0.2c1.1-0.2,1.8-0.9,2-1.8c0.2-0.9,0.6-1.7,0.9-2.4c0.6-0.7,0.6-1.8,0-2.6l-0.7-0.9l1.1-1.1
		l0.9,0.6c0.9,0.6,1.8,0.6,2.8,0.2c0.7-0.5,1.5-0.8,2.2-0.9c1.1-0.4,1.7-1.1,1.8-2l0.2-1.1h1.7l0.2,1.1c0.2,0.9,0.9,1.7,1.8,2
		c0.7,0.1,1.5,0.4,2.2,0.9c0.9,0.4,1.8,0.4,2.8-0.2l0.9-0.6l1.1,1.1l-0.6,0.9c-0.7,0.7-0.7,1.8-0.2,2.6c0.4,0.7,0.7,1.5,0.9,2.4
		c0.2,0.9,1.1,1.7,2,1.8l0.9,0.2v1.5L47,31.2c-0.9,0.2-1.8,0.9-2,1.8c-0.2,0.9-0.6,1.7-0.9,2.4c-0.6,0.7-0.6,1.8,0.2,2.6l0.6,0.9
		L43.7,40l-0.9-0.6c-0.7-0.6-1.8-0.6-2.8-0.2c-0.7,0.4-1.5,0.7-2.2,0.9c-0.9,0.4-1.7,1.1-1.8,2l-0.2,1.1h-1.7L34,42.2
		c-0.2-0.9-0.9-1.7-1.8-2c-0.7-0.2-1.5-0.6-2.2-0.9c-0.9-0.4-1.8-0.4-2.8,0.2L26.3,40l-1.1-1.1l0.7-0.9c0.6-0.7,0.6-1.8,0-2.8
		c-0.4-0.6-0.7-1.3-0.9-2.2c-0.2-0.9-0.9-1.7-2-1.8l-0.9-0.2V29.6z"/>
	<path class="st0" d="M35.1,38.4c4.2,0,7.7-3.7,7.7-7.9c0-4.4-3.5-7.9-7.7-7.9c-4.4,0-7.9,3.5-7.9,7.9
		C27.2,34.7,30.7,38.4,35.1,38.4z"/>
	<circle class="st1" cx="35.1" cy="30.5" r="4.4"/>
	<path class="st0" d="M58.6,32c0-0.9,0.9-1.7,1.8-1.7h29.5c0.9,0,1.8,0.7,1.8,1.7c0,0.9-0.9,1.8-1.8,1.8H60.4
		C59.5,33.8,58.6,32.9,58.6,32z"/>
	<path class="st0" d="M55.3,41.7c0-0.9,0.7-1.7,1.7-1.7h33c0.9,0,1.8,0.7,1.8,1.7c0,1.1-0.9,1.8-1.8,1.8h-33
		C56,43.5,55.3,42.8,55.3,41.7z"/>
</g>
</svg>
