<?xml version="1.0" encoding="utf-8"?>
<!-- Generator: Adobe Illustrator 27.7.0, SVG Export Plug-In . SVG Version: 6.00 Build 0)  -->
<svg version="1.1" id="Layer_1" xmlns="http://www.w3.org/2000/svg" xmlns:xlink="http://www.w3.org/1999/xlink" x="0px" y="0px"
	 viewBox="0 0 110 110" style="enable-background:new 0 0 110 110;" xml:space="preserve">
<style type="text/css">
	.st0{fill:#8F8F8F;}
	.st1{fill-rule:evenodd;clip-rule:evenodd;fill:#8F8F8F;}
</style>
<path class="st0" d="M3.9,9c0-2.9,2.4-5.1,5.1-5.1h91.9c2.8,0,5.1,2.2,5.1,5.1v65.3c0,2.9-2.4,5.1-5.1,5.1H9c-2.8,0-5.1-2.2-5.1-5.1
	v-15l3.9-0.9V74c0,0.9,0.7,1.8,1.7,1.8h91.1c0.9,0,1.8-0.9,1.8-1.8l-0.2-64.5c0-1.1-0.7-1.8-1.7-1.8H9.4c-0.9,0-1.7,0.7-1.7,1.8
	v34.7l-3.9,1.1V9H3.9z"/>
<polygon class="st0" points="30.9,108.4 24.6,108.4 32.9,82.9 39.1,82.9 "/>
<polygon class="st0" points="65.9,82.9 68.5,90.6 40.2,90.6 42.6,82.9 "/>
<polygon class="st0" points="37.5,99.3 39.1,93.9 69.6,93.9 71.2,99.3 "/>
<polygon class="st0" points="84,108.4 77.8,108.4 69.6,82.9 75.8,82.9 "/>
<path class="st1" d="M90.2,52.1c0.9,0.5,1.4,1.4,1.6,2.3l2.1,9.4c0,0.2,0,0.4,0,0.7c0,1.6-1.4,3-3,3h-9.6c-0.2,0-0.4,0-0.7,0
	c-1.6-0.5-2.5-2.1-2.3-3.7l2.1-9.4c0.3-0.9,0.8-1.7,1.6-2.3c0.3-0.3,0.7-0.5,1.1-0.7V35.9l-6.6,3v19.6c0,1.1-0.5,1.8-1.4,2.5
	c-6.4,5.9-14.8,9.1-23.1,9.1c-8.5,0-16.9-3.2-23.5-9.4c-0.7-0.7-1.1-1.4-1.1-2.3V38.9l-10.7-4.8c-0.7-0.2-1.4-0.7-1.6-1.6
	c-0.7-1.4,0-3.2,1.6-3.9l34-15.3c0.7-0.2,1.6-0.2,2.5,0L87,28.4c1.4,0.5,2.1,1.6,2.1,3v20.1C89.6,51.6,89.9,51.8,90.2,52.1z
	 M52.1,19.2L25.4,31.1l7.5,3.4c0.2,0.2,0.3,0.2,0.5,0.2l18.7,8.5l18.5-8.5c0.2,0,0.3-0.1,0.5-0.2l7.8-3.4L52.1,19.2z M70.4,41.6
	l-17.1,7.5c-0.7,0.5-1.6,0.5-2.5,0l-17.1-7.5v15.5c5.3,4.6,11.9,6.9,18.5,6.9c6.4,0,13-2.3,18.3-6.9V41.6z"/>
</svg>
