<?xml version="1.0" encoding="utf-8"?>
<!-- Generator: Adobe Illustrator 27.7.0, SVG Export Plug-In . SVG Version: 6.00 Build 0)  -->
<svg version="1.1" id="Layer_1" xmlns="http://www.w3.org/2000/svg" xmlns:xlink="http://www.w3.org/1999/xlink" x="0px" y="0px"
	 viewBox="0 0 46 46" style="enable-background:new 0 0 46 46;" xml:space="preserve">
<style type="text/css">
	.st0{fill:#8F8F8F;}
</style>
<path class="st0" d="M16.7,3.6h3.1c0.5-2.5,3.6-3.5,5.4-1.7c0.5,0.5,0.8,1,1,1.7h3.1c0.6,0,1,0.5,1,1v0.7h7c1.7,0,3.1,1.5,3.1,3.2
	v33.3c0,1.7-1.4,3.2-3.1,3.2H8.6c-1.7,0-3.1-1.5-3.1-3.2V8.5c0-1.7,1.4-3.2,3.1-3.2h7V4.6c0-0.2,0.1-0.6,0.3-0.7
	C16.1,3.7,16.4,3.6,16.7,3.6z M30.3,6.2v1.4h6.5c0.2,0,0.5,0.2,0.5,0.5v32.3c0,0.2-0.2,0.5-0.5,0.5H9.3c-0.2,0-0.5-0.2-0.5-0.5V8
	c0-0.2,0.2-0.5,0.5-0.5h6.5V6.2h-7c-1.2,0-2.2,1-2.2,2.3v33.3c0,1.2,0.9,2.2,2.2,2.2h28.7c1.2,0,2.2-1,2.2-2.2V8.5
	c0-1.2-0.9-2.2-2.2-2.2L30.3,6.2z M30.3,8.6v0.9c0,0.6-0.5,1-1,1H16.7c-0.2,0-0.6-0.1-0.7-0.3c-0.2-0.2-0.3-0.5-0.3-0.7V8.6H9.7
	v31.3h26.5V8.6L30.3,8.6z M23,14c3.7,0,6.8,3.1,6.8,6.8c0,4.1-3.5,7.3-7.6,6.8l-1.6,2c-0.2,0.3-0.9,0.2-0.9-0.3v-2.5
	c-4.1-2.2-5-7.6-1.7-11C19.4,14.7,21.1,14,23,14z M27.1,16.7c-2.3-2.3-6-2.3-8.4,0c-2.9,2.9-2,7.8,1.7,9.5c0.1,0.1,0.2,0.2,0.2,0.5
	V28l0.8-1.1c0.2-0.3,0.6-0.2,0.9-0.1c3.4,0.2,6.3-2.5,6.3-5.9C28.9,19.3,28.2,17.8,27.1,16.7z M15.5,32.6h2.4c0.3-1.5,2.3-2,3.4-0.9
	c0.2,0.2,0.5,0.6,0.6,0.9h2.4c0.3-1.5,2.3-2,3.4-0.9c0.2,0.2,0.5,0.6,0.6,0.9h2.4c0.3-1.5,2.3-2,3.4-0.9c1.2,1.2,0.3,3.4-1.4,3.4
	c-0.9,0-1.7-0.7-1.9-1.5h-2.4c-0.3,1.5-2.3,2-3.4,0.9c-0.2-0.2-0.5-0.6-0.6-0.9H22c-0.3,1.5-2.3,2-3.4,0.9c-0.2-0.2-0.5-0.6-0.6-0.9
	h-2.4c-0.3,1.5-2.3,2-3.4,0.9c-1.2-1.2-0.3-3.4,1.4-3.4C14.5,31.2,15.3,31.7,15.5,32.6z M14.3,32.4c-0.7-0.7-1.8-0.2-1.8,0.7
	s1.1,1.4,1.8,0.7C14.6,33.4,14.6,32.7,14.3,32.4z M33.1,32.4c-0.7-0.7-1.8-0.2-1.8,0.7s1.1,1.4,1.8,0.7
	C33.5,33.4,33.5,32.7,33.1,32.4z M26.9,32.4c-0.7-0.7-1.8-0.2-1.8,0.7s1.1,1.4,1.8,0.7C27.2,33.4,27.2,32.7,26.9,32.4z M20.5,32.4
	c-0.7-0.7-1.8-0.2-1.8,0.7s1.1,1.4,1.8,0.7C21,33.4,21,32.7,20.5,32.4z M20.2,4.6h-3.5c0,0,0,4.6,0,4.9h12.6V4.6h-3.5
	c-0.2,0-0.5-0.2-0.5-0.5c-0.1-1.9-2.5-2.9-4-1.6c-0.5,0.3-0.7,0.9-0.7,1.5C20.6,4.4,20.4,4.6,20.2,4.6z M23,2.7c1.4,0,1.9,1.6,1,2.5
	c-0.9,0.9-2.5,0.2-2.5-1C21.5,3.4,22.1,2.7,23,2.7z M20.2,18.7c-0.7,0-0.7-0.9,0-0.9h5.6c0.7,0,0.7,0.9,0,0.9H20.2z M20.2,23.6
	c-0.7,0-0.7-0.9,0-0.9h5.6c0.7,0,0.7,0.9,0,0.9H20.2z M20.2,21.1c-0.7,0-0.7-0.9,0-0.9h5.6c0.7,0,0.7,0.9,0,0.9H20.2z M23.3,3.7
	c-0.3-0.3-0.9-0.1-0.9,0.3s0.6,0.7,0.9,0.3C23.6,4.3,23.6,4,23.3,3.7z"/>
</svg>
